<svg width="143" height="77" viewBox="0 0 143 77" fill="none" xmlns="http://www.w3.org/2000/svg">
<path d="M35.6445 43.2196C35.3962 43.2196 35.3284 43.3626 35.2532 43.7537C34.9973 45.1903 34.5607 45.9275 33.635 46.3713C32.7093 46.815 31.204 46.8526 30.2707 46.8827C26.5678 46.9805 25.9883 46.469 25.9431 44.017C25.9205 42.9865 25.9883 39.7296 26.0033 38.5261L26.0334 35.7355C26.0334 35.5249 26.0711 35.382 26.2592 35.382C27.1323 35.382 30.7073 35.397 31.3846 35.4647C32.7017 35.6001 33.1985 36.1191 33.3641 36.8111C33.4619 37.2624 33.4619 37.7137 33.492 38.0673C33.492 38.2403 33.5597 38.3756 33.8081 38.3756C34.1242 38.3756 34.1317 37.992 34.1317 37.7137C34.1317 37.473 34.2522 36.0815 34.2973 35.382C34.4554 33.6144 34.5984 33.0578 34.6059 32.8472C34.6059 32.6366 34.5005 32.5689 34.3651 32.5689C34.192 32.5689 34.0414 32.7419 33.7931 33.0202C33.4694 33.3662 32.9351 33.4715 32.0846 33.5392C31.2642 33.6069 27.1172 33.6069 26.3119 33.6144C26.0936 33.6144 26.056 33.4715 26.0635 33.2233L26.1614 24.3175C26.1614 24.0693 26.2366 23.964 26.4173 23.9715C27.1398 23.9866 30.9255 24.1295 31.5276 24.2047C33.3038 24.4454 33.6501 24.8666 33.8909 25.4909C34.064 25.9121 34.0941 26.4988 34.0941 26.7395C34.0941 27.0479 34.1618 27.2209 34.4027 27.2284C34.6511 27.2284 34.7263 27.0254 34.7564 26.8524C34.8317 26.4387 34.9145 24.9193 34.9521 24.5733C35.0725 22.9862 35.2532 22.58 35.2532 22.3393C35.2532 22.1663 35.2231 22.0309 35.0424 22.0234C34.8618 22.0159 34.6511 22.1137 34.478 22.1513C34.1995 22.2114 33.6275 22.2716 32.9576 22.3243C32.2803 22.3468 25.1152 22.1814 23.9411 22.1588C23.4293 22.1437 22.5788 22.0911 21.6155 22.0384C20.6897 22.0159 19.606 21.9557 18.5974 21.9331C18.033 21.9181 17.7695 21.9858 17.7695 22.234C17.7695 22.4822 17.9878 22.5574 18.4017 22.5725C18.9286 22.58 19.5608 22.6327 19.8618 22.7079C21.0886 22.9787 21.3746 23.5578 21.4348 24.7613C21.4951 25.8971 21.48 26.89 21.4123 32.2906L21.337 38.5637C21.2994 41.8507 21.2617 44.6789 21.0585 46.1832C20.893 47.2287 20.6973 48.0185 19.9446 48.184C19.606 48.2667 19.1544 48.3495 18.5899 48.3645C18.1383 48.3796 17.9803 48.4924 17.9803 48.6729C17.9803 48.9286 18.2362 49.0264 18.7329 49.0114C19.4855 48.9888 20.464 48.8835 21.322 48.8609C22.2176 48.8008 23.0304 48.7707 23.4444 48.7632C24.5507 48.7331 25.6947 48.7331 27.2677 48.7556C28.8332 48.7406 30.8126 48.7556 33.4995 48.6729C34.8467 48.6353 35.1628 48.6203 35.4187 47.7101C35.5994 47.0106 35.9004 44.6337 35.908 43.8364C35.908 43.4904 35.908 43.2121 35.637 43.2196H35.6445Z" fill="#243149"/>
<path d="M62.7017 41.5649C62.4533 41.5649 62.3856 41.7003 62.2877 42.2268C62.1598 42.8211 61.7458 43.7838 61.2115 44.4232C59.9395 45.9727 58.2085 46.3563 55.3334 46.4315C50.9381 46.5518 44.902 42.6932 44.9546 34.5923C44.9772 31.2978 45.6395 28.086 48.1006 25.8595C49.5683 24.5432 51.4574 23.8437 54.2948 23.9039C57.2602 23.9641 59.7438 24.8968 60.79 26.0626C61.5803 26.9276 61.9867 28.0709 62.0093 29.0864C62.0093 29.5452 62.0695 29.8085 62.3179 29.8085C62.5963 29.8085 62.6641 29.5527 62.6942 29.0563C62.7544 28.4019 62.7318 26.6117 62.792 25.5361C62.8597 24.4003 62.9501 24.0092 62.9501 23.7459C62.9501 23.5504 62.8221 23.3849 62.4834 23.3473C61.5426 23.2269 60.5341 22.911 59.3299 22.723C57.8623 22.4898 56.6806 22.3318 54.6786 22.2867C49.8016 22.1739 46.633 23.4451 44.1945 25.6264C40.898 28.5749 40.1453 32.6141 40.1227 34.9458C40.1002 38.2779 40.9657 42.114 44.2998 44.9948C47.3555 47.6049 51.1864 48.5075 55.6721 48.3646C57.7418 48.2969 60.1728 47.9885 61.4448 47.4244C61.9867 47.1761 62.1071 47.0107 62.2727 46.4465C62.5888 45.3183 62.9726 42.4525 62.9726 42.0538C62.9726 41.7906 62.9124 41.5649 62.6866 41.5724L62.7017 41.5649Z" fill="#243149"/>
<path d="M82.1119 42.1741C81.8786 42.1741 81.8259 42.3696 81.7958 42.6554C81.7431 43.2572 81.3969 44.1448 81.0432 44.566C80.3207 45.4385 79.1767 45.4987 77.6187 45.5438C75.3081 45.604 74.5254 45.4009 74.0211 44.9345C73.3889 44.3704 73.3889 42.159 73.3889 38.0521V32.4184C73.3889 27.5668 73.3889 26.6793 73.4416 25.6563C73.5018 24.5431 73.7427 24.0091 74.5405 23.8662C74.8942 23.8135 75.3684 23.7909 75.6995 23.7985C76.0533 23.806 76.2339 23.7458 76.2339 23.5277C76.2339 23.3095 76.0231 23.2419 75.6092 23.2268C74.4501 23.2042 72.2675 23.2494 71.545 23.2268C70.7321 23.2118 68.8205 23.0689 67.3829 23.0388C66.9238 23.0312 66.7056 23.0839 66.7056 23.3171C66.7056 23.5502 66.8862 23.6104 67.2249 23.6179C67.6238 23.6255 67.9926 23.6631 68.2334 23.7383C69.2419 23.9865 69.4828 24.5055 69.543 25.5962C69.6032 26.6266 69.6032 27.5217 69.6032 32.4108V38.0898C69.6032 41.0608 69.6032 43.6182 69.4451 44.9872C69.3247 45.9274 69.1667 46.6495 68.557 46.7999C68.2786 46.8751 67.9098 46.9504 67.4507 46.9654C67.0819 46.9729 66.9539 47.0782 66.9539 47.2437C66.9539 47.4694 67.1722 47.5671 67.5711 47.5521C68.1883 47.5371 68.986 47.4468 69.686 47.4242C70.416 47.3716 71.0859 47.349 71.4246 47.3415C72.6664 47.3039 73.7502 47.3039 75.0974 47.3264C76.4371 47.3189 77.9725 47.334 80.0874 47.2663C81.6001 47.2211 81.7431 47.0557 81.9162 46.3561C82.142 45.4385 82.3453 43.0691 82.3377 42.7231C82.3377 42.3395 82.3076 42.1816 82.1044 42.1891L82.1119 42.1741Z" fill="#243149"/>
<path d="M105.142 23.8812C103.946 23.8511 102.433 23.9113 101.357 23.8812C100.619 23.8662 98.9483 23.7383 97.5333 23.7082C97.1344 23.7007 96.9463 23.7533 96.9463 23.9639C96.9463 24.1746 97.1119 24.2347 97.4054 24.2422C97.7817 24.2498 98.2333 24.2874 98.4516 24.3551C99.3321 24.5807 99.5504 25.0696 99.6106 26.0851C99.6708 27.0479 99.6783 27.8903 99.7084 32.456L99.7461 37.7588C99.7687 40.5343 99.7837 42.9262 99.6558 44.1974C99.5579 45.0774 99.4224 45.7469 98.8881 45.8898C98.6472 45.9575 98.3236 46.0252 97.9247 46.0402C97.6011 46.0478 97.4957 46.1455 97.4957 46.296C97.4957 46.5066 97.6839 46.5968 98.0376 46.5818C99.1139 46.5517 100.792 46.4088 101.402 46.3862C102.087 46.3637 103.75 46.4013 105.466 46.3486C105.752 46.3411 105.955 46.2433 105.955 46.0327C105.955 45.8823 105.82 45.7995 105.541 45.8071C105.15 45.8221 104.578 45.777 104.209 45.7243C103.419 45.6265 103.261 44.9721 103.178 44.1297C103.035 42.8435 103.02 40.4741 102.997 37.7137L102.907 25.7692C102.907 25.4382 102.982 25.2652 103.11 25.205C103.344 25.1223 103.735 25.0997 104.126 25.1072C104.721 25.1223 105.782 25.3179 106.723 26.3107C108.168 27.8075 108.266 29.7782 108.273 30.7485C108.304 33.7572 106.317 35.6302 104.864 35.6377C104.315 35.6377 104.134 35.7279 104.141 35.9686C104.141 36.1792 104.33 36.2093 104.458 36.2319C104.585 36.262 104.872 36.262 105.007 36.2545C108.665 36.2319 111.276 33.2758 111.231 29.1239C111.216 27.5744 110.501 26.2505 109.937 25.6262C109.523 25.1825 108.371 23.9263 105.158 23.8511L105.142 23.8812Z" fill="#243149"/>
<path d="M120.94 32.8022L120.263 32.2005C118.231 30.3802 117.659 29.3723 117.644 28.0485C117.621 26.326 118.705 25.1075 120.489 25.1451C122.047 25.1752 122.746 26.0402 123.108 26.5893C123.612 27.3339 123.747 28.214 123.747 28.4697C123.747 28.8082 123.823 28.9812 123.988 28.9812C124.176 28.9812 124.244 28.7555 124.237 28.1312C124.207 25.9274 124.289 25.1075 124.289 24.7389C124.289 24.5434 124.169 24.4531 123.951 24.3929C123.334 24.1823 122.333 23.8739 120.775 23.8363C117.41 23.7611 115.183 25.9875 115.213 29.1692C115.235 31.516 116.199 33.5469 118.916 36.0215L120.045 37.052C122.062 38.8948 122.438 40.2036 122.453 41.6102C122.468 43.1296 121.437 44.9047 119.262 44.9724C117.749 45.0175 116.289 44.2729 115.724 42.1292C115.596 41.6403 115.491 41.031 115.484 40.6474C115.484 40.4142 115.453 40.151 115.228 40.1585C115.032 40.1585 114.957 40.4819 114.942 40.9182C114.919 41.3845 114.844 43.1371 114.859 44.7467C114.859 45.3861 114.942 45.5365 115.341 45.7246C116.409 46.2436 117.516 46.4166 118.938 46.3714C120.225 46.3338 121.572 46.0254 122.762 45.0777C124.455 43.6862 124.952 41.708 124.929 40.0607C124.891 37.3604 123.853 35.4048 120.933 32.8173L120.94 32.8022Z" fill="#243149"/>
<path d="M139.395 41.1588C139.244 41.1588 139.199 41.2716 139.161 41.5725C139.026 42.7008 138.77 43.2875 138.206 43.6335C137.634 43.9795 136.7 44.002 136.121 44.0246C133.825 44.0848 133.457 43.6786 133.381 41.753C133.344 40.9482 133.329 38.3833 133.314 37.4356L133.283 35.2392C133.283 35.0737 133.298 34.9609 133.419 34.9609C133.961 34.9609 136.181 34.9759 136.603 35.0286C137.423 35.1339 137.739 35.5476 137.859 36.0967C137.935 36.4502 137.935 36.8113 137.965 37.0896C137.965 37.2249 138.01 37.3378 138.168 37.3378C138.364 37.3378 138.364 37.0369 138.356 36.8113C138.356 36.6157 138.401 35.5175 138.416 34.9684C138.484 33.5694 138.559 33.1331 138.559 32.9676C138.559 32.8022 138.492 32.7495 138.401 32.7495C138.288 32.7495 138.206 32.8849 138.055 33.103C137.859 33.3738 137.528 33.4566 137.001 33.5167C136.49 33.5694 133.916 33.5694 133.419 33.5694C133.283 33.5694 133.261 33.4566 133.253 33.261L133.148 26.2507C133.148 26.0552 133.186 25.9724 133.306 25.98C133.758 25.9875 136.106 26.0853 136.482 26.153C137.588 26.341 137.814 26.672 137.98 27.1609C138.093 27.4918 138.123 27.9582 138.13 28.1462C138.13 28.3944 138.183 28.5298 138.334 28.5298C138.492 28.5298 138.529 28.3643 138.552 28.2365C138.589 27.9055 138.612 26.7096 138.635 26.4388C138.68 25.1827 138.785 24.8592 138.785 24.6712C138.785 24.5358 138.763 24.423 138.65 24.423C138.537 24.423 138.409 24.4982 138.296 24.5207C138.123 24.5734 137.769 24.6185 137.355 24.6637C136.934 24.6787 132.478 24.5809 131.756 24.5659C131.439 24.5583 130.913 24.5207 130.318 24.4756C129.746 24.4606 129.076 24.423 128.452 24.4079C128.105 24.4004 127.947 24.453 127.947 24.6486C127.947 24.8442 128.09 24.9043 128.346 24.9119C128.67 24.9194 129.061 24.957 129.249 25.0172C130.009 25.2278 130.198 25.6791 130.258 26.6268C130.318 27.5219 130.326 28.3042 130.386 32.5464L130.454 37.4732C130.491 40.0531 130.521 42.272 130.423 43.4529C130.341 44.2728 130.235 44.8896 129.776 45.0175C129.565 45.0776 129.294 45.1453 128.948 45.1529C128.67 45.1604 128.579 45.2506 128.579 45.386C128.579 45.5816 128.745 45.6643 129.046 45.6568C129.505 45.6418 130.107 45.5666 130.642 45.5515C131.191 45.5064 131.695 45.4913 131.944 45.4838C132.629 45.4612 133.336 45.4688 134.307 45.4989C135.278 45.4989 136.505 45.5139 138.176 45.4612C139.011 45.4387 139.214 45.4312 139.357 44.7091C139.455 44.1525 139.606 42.2871 139.59 41.6553C139.583 41.3845 139.583 41.1663 139.402 41.1663L139.395 41.1588Z" fill="#243149"/>
<path d="M93.4843 46.1832C93.0703 46.1983 92.4682 46.1531 92.0769 46.1005C91.2414 46.0027 91.0458 45.4536 90.963 44.6187C90.8425 43.2949 90.835 40.8503 90.82 37.8642L90.7974 32.4485C90.7748 27.7851 90.7748 26.9276 90.82 25.9498C90.8726 24.8817 91.0909 24.3627 91.836 24.2273C92.1672 24.1746 92.3854 24.1445 92.6564 24.1521C92.9273 24.1521 93.0929 24.0994 93.0929 23.8587C93.0929 23.6782 92.8746 23.6105 92.5134 23.603C91.4672 23.5804 89.834 23.6331 89.1416 23.618C88.3288 23.603 86.5601 23.4676 85.4913 23.445C85.0397 23.4375 84.814 23.4902 84.814 23.6782C84.814 23.9264 84.9871 23.9941 85.2655 24.0016C85.6042 24.0092 85.973 24.0468 86.2816 24.1445C86.8988 24.31 87.1848 24.8441 87.245 25.8896C87.3052 26.8825 87.3052 27.7475 87.3278 32.441L87.3503 37.9018C87.3654 40.918 87.3729 43.3701 87.2374 44.6864C87.1546 45.589 86.9891 46.1306 86.4246 46.266C86.1687 46.3337 85.83 46.4089 85.401 46.4239C85.0548 46.4314 84.9419 46.5292 84.9419 46.6872C84.9419 46.9053 85.1451 46.9956 85.5139 46.9805C86.6504 46.9429 88.4266 46.8 89.0739 46.7774C89.8265 46.7549 91.5801 46.7925 93.409 46.7398C93.7101 46.7323 93.9283 46.6345 93.9283 46.4164C93.9283 46.2584 93.7929 46.1757 93.4918 46.1832H93.4843ZM89.8942 27.4015L89.0438 26.8825L88.1782 27.3563L88.3513 26.3108L87.6589 25.5436L88.6223 25.4232L89.0588 24.483L89.4803 25.4533L90.4361 25.6414L89.7437 26.3635L89.9018 27.4165L89.8942 27.4015Z" fill="#243149"/>
<path d="M43.8934 58.376C42.8999 57.5487 42.644 56.4129 42.6515 55.42C42.6515 54.7205 42.8773 53.5095 43.8633 52.5693C44.5933 51.8697 45.5567 51.426 47.0544 51.3658C47.6716 51.3432 48.0404 51.3658 48.4995 51.4109C48.8758 51.4485 49.1919 51.5237 49.493 51.5463C49.6058 51.5463 49.6435 51.599 49.6435 51.6591C49.6435 51.7419 49.6134 51.8622 49.5908 52.2157C49.5682 52.5467 49.5757 53.1033 49.5532 53.3064C49.5456 53.4568 49.5231 53.5396 49.4327 53.5471C49.3575 53.5471 49.3349 53.4719 49.3349 53.329C49.3274 53.0206 49.1994 52.667 48.9511 52.4188C48.6274 52.0804 47.8522 51.8321 46.9265 51.8697C46.0534 51.8998 45.4814 52.148 45.0298 52.5768C44.2847 53.2914 44.0891 54.2692 44.0815 55.2545C44.0665 57.684 45.8878 58.7973 47.2351 58.7296C48.1232 58.6844 48.6651 58.5566 49.064 58.0676C49.2371 57.8646 49.365 57.5637 49.4026 57.3832C49.4327 57.2177 49.4553 57.1801 49.5306 57.1726C49.5983 57.1726 49.6209 57.2403 49.6209 57.323C49.6209 57.4433 49.4929 58.3309 49.3951 58.6769C49.3424 58.8499 49.3048 58.9026 49.1392 58.9853C48.7403 59.1658 47.9802 59.2787 47.3404 59.3163C45.9706 59.3915 44.8116 59.1433 43.8934 58.3836V58.376Z" fill="#243149"/>
<path d="M52.0518 55.1114C52.0593 53.3965 53.1732 51.1324 56.0859 51.0271C58.4717 50.9369 59.9394 52.3133 59.9318 54.5774C59.9318 56.8414 58.3965 58.7144 55.9579 58.8422C53.1732 58.9927 52.0443 56.8941 52.0518 55.1114ZM58.5997 54.9986C58.6072 52.7797 57.3804 51.4484 55.7999 51.5085C54.686 51.5537 53.4141 52.2381 53.399 54.7353C53.3915 56.8189 54.5054 58.4135 56.3568 58.3157C57.0342 58.2856 58.5846 57.8644 58.5922 54.9986H58.5997Z" fill="#243149"/>
<path d="M63.2211 53.7427C63.2211 52.2534 63.2211 51.9826 63.206 51.6667C63.191 51.3357 63.1157 51.1778 62.8071 51.1251C62.7319 51.1101 62.5738 51.1025 62.4383 51.1101C62.333 51.1101 62.2803 51.095 62.2803 51.0273C62.2803 50.9596 62.348 50.9371 62.4835 50.9295C62.9802 50.9145 63.5673 50.9145 63.763 50.9145C64.0791 50.8994 64.7865 50.8468 65.0725 50.8393C65.6596 50.8167 66.2767 50.8543 66.7735 51.1928C67.0294 51.3658 67.3982 51.8472 67.3982 52.5016C67.3982 53.2161 67.1122 53.8931 66.1789 54.7355C66.9993 55.7886 67.6315 56.6235 68.1734 57.1951C68.6852 57.7292 69.0615 57.7818 69.197 57.8044C69.2948 57.8194 69.3776 57.827 69.4529 57.8194C69.5281 57.8194 69.5657 57.842 69.5657 57.8871C69.5657 57.9624 69.5055 57.9849 69.3926 57.9924L68.5271 58.0376C68.0153 58.0677 67.782 58.0301 67.5487 57.9022C67.1498 57.6991 66.8036 57.2628 66.2918 56.5332C65.923 56.0142 65.5015 55.3674 65.3811 55.232C65.336 55.1793 65.2833 55.1718 65.2155 55.1718L64.4102 55.1868C64.3651 55.1868 64.335 55.2094 64.335 55.2696V55.405C64.335 56.3151 64.335 57.0898 64.3801 57.496C64.4102 57.7818 64.4629 57.9924 64.7414 58.015C64.8844 58.0301 65.0876 58.0376 65.193 58.0301C65.2682 58.0301 65.3059 58.0526 65.3059 58.1053C65.3059 58.173 65.2381 58.2031 65.1177 58.2106C64.5758 58.2407 63.8909 58.2482 63.7479 58.2557C63.5673 58.2632 62.9802 58.3234 62.6039 58.346C62.4835 58.346 62.4157 58.3234 62.4157 58.2557C62.4157 58.2106 62.4534 58.173 62.5663 58.173C62.7093 58.1654 62.8222 58.1429 62.905 58.1128C63.0931 58.0677 63.1383 57.842 63.1759 57.5562C63.2211 57.1425 63.2286 56.3677 63.2286 55.4651V53.7351L63.2211 53.7427ZM64.3199 54.4648C64.3199 54.5701 64.335 54.6077 64.4027 54.6377C64.5984 54.6979 64.8769 54.713 65.1102 54.7054C65.479 54.6904 65.5994 54.6453 65.765 54.5099C66.0434 54.2842 66.3144 53.8254 66.3144 53.0206C66.3144 51.6366 65.4489 51.2755 64.8994 51.2906C64.6661 51.2981 64.5005 51.3131 64.4102 51.3507C64.3425 51.3733 64.3274 51.4109 64.3274 51.4937V54.4648H64.3199Z" fill="#243149"/>
<path d="M71.4397 53.3814C71.4397 51.9147 71.4397 51.6514 71.4247 51.343C71.4096 51.0196 71.3344 50.8691 71.0333 50.809C70.9656 50.7939 70.8075 50.7864 70.6796 50.7939C70.5817 50.7939 70.5291 50.7789 70.5291 50.7112C70.5291 50.6435 70.5893 50.6209 70.7247 50.6209C71.2064 50.6059 71.7709 50.6134 72.0268 50.5984C72.3956 50.5833 72.9149 50.5382 73.3288 50.5231C74.4427 50.478 74.8416 50.8691 74.9846 51.0045C75.1803 51.2001 75.4287 51.6138 75.4287 52.1253C75.4287 53.4792 74.5105 54.4796 73.2385 54.5397C73.1934 54.5397 73.0955 54.5397 73.0504 54.5397C73.0052 54.5322 72.945 54.5247 72.945 54.457C72.945 54.3818 73.0052 54.3442 73.1934 54.3367C73.6901 54.3141 74.3901 53.6823 74.3901 52.7044C74.3901 52.3885 74.3599 51.7492 73.8632 51.2904C73.5396 50.9895 73.1783 50.9444 72.9676 50.9519C72.8321 50.9519 72.6966 50.9744 72.6138 51.0045C72.5687 51.0271 72.5461 51.0797 72.5461 51.1926V55.0362C72.5461 55.9237 72.5461 56.6834 72.5913 57.0896C72.6214 57.3604 72.6741 57.5635 72.945 57.5936C73.0729 57.6086 73.2686 57.6161 73.4041 57.6086C73.5019 57.6086 73.5471 57.6312 73.5471 57.6763C73.5471 57.744 73.4794 57.7741 73.374 57.7816C72.7794 57.8117 72.2149 57.8117 71.9816 57.8267C71.7709 57.8343 71.2064 57.8944 70.8452 57.917C70.7247 57.917 70.6645 57.8944 70.6645 57.8343C70.6645 57.7891 70.7022 57.759 70.8075 57.7515C70.943 57.744 71.0484 57.7214 71.1312 57.6989C71.3118 57.6537 71.3569 57.4356 71.3946 57.1573C71.4397 56.7511 71.4397 55.9839 71.4397 55.1039V53.404V53.3814Z" fill="#243149"/>
<path d="M77.5435 53.9532C77.5435 52.3285 78.5294 50.1923 81.1335 50.0945C83.271 50.0118 84.6031 51.3206 84.6107 53.4643C84.6107 55.608 83.2559 57.3756 81.0658 57.4959C78.567 57.6313 77.5435 55.638 77.5435 53.9532ZM83.414 53.8629C83.414 51.7644 82.3001 50.5007 80.8851 50.5534C79.8841 50.591 78.7477 51.2378 78.7552 53.5997C78.7552 55.5704 79.7637 57.0897 81.4346 56.9995C82.0367 56.9694 83.429 56.5707 83.4215 53.8629H83.414Z" fill="#243149"/>
<path d="M87.5611 52.6743C87.5611 51.2602 87.5611 51.0045 87.5385 50.7036C87.5235 50.3877 87.4558 50.2448 87.1773 50.1921C87.1095 50.1771 86.9665 50.1696 86.8461 50.1771C86.7558 50.1771 86.7031 50.162 86.7031 50.1019C86.7031 50.0342 86.7633 50.0191 86.8913 50.0116C87.3353 49.9966 87.8697 50.0041 88.0428 49.9966C88.3288 49.989 88.961 49.9364 89.2244 49.9213C89.7513 49.8988 90.3082 49.9364 90.7523 50.2598C90.9856 50.4253 91.3168 50.8841 91.3243 51.5009C91.3243 52.1854 91.0759 52.8172 90.2405 53.6145C90.9856 54.6149 91.5576 55.4047 92.0468 55.9538C92.5134 56.4653 92.8446 56.5104 92.9725 56.533C93.0629 56.548 93.1381 56.548 93.2059 56.548C93.2736 56.548 93.3037 56.5706 93.3037 56.6157C93.3037 56.6909 93.251 56.7135 93.1457 56.7135L92.3629 56.7586C91.9038 56.7812 91.6931 56.7511 91.4823 56.6307C91.1286 56.4352 90.8125 56.0215 90.3383 55.3295C89.9997 54.8406 89.6158 54.2238 89.5104 54.0959C89.4653 54.0433 89.4201 54.0357 89.3599 54.0357L88.6374 54.0508C88.5922 54.0508 88.5697 54.0733 88.5697 54.126V54.2539C88.5697 55.1189 88.5697 55.8485 88.6223 56.2396C88.6449 56.5104 88.6976 56.706 88.9535 56.736C89.0814 56.7511 89.2621 56.7586 89.3599 56.7511C89.4277 56.7511 89.4578 56.7736 89.4578 56.8188C89.4578 56.8865 89.3975 56.9166 89.2922 56.9166C88.8105 56.9391 88.1858 56.9466 88.0654 56.9542C87.9073 56.9617 87.373 57.0219 87.0418 57.0369C86.9289 57.0369 86.8762 57.0219 86.8762 56.9542C86.8762 56.909 86.9063 56.879 87.0117 56.8714C87.1397 56.8714 87.2375 56.8413 87.3128 56.8188C87.4783 56.7736 87.5235 56.563 87.5536 56.2923C87.5912 55.9011 87.5912 55.164 87.5912 54.3065V52.6668L87.5611 52.6743ZM88.5546 53.3663C88.5546 53.4641 88.5697 53.5017 88.6299 53.5318C88.803 53.592 89.0589 53.607 89.2621 53.592C89.5932 53.5769 89.7061 53.5318 89.8491 53.4039C90.0975 53.1933 90.3383 52.757 90.3308 51.9973C90.3308 50.6886 89.5405 50.335 89.0513 50.3576C88.8406 50.3651 88.6901 50.3802 88.6073 50.4103C88.5471 50.4328 88.532 50.4704 88.532 50.5456L88.5471 53.3663H88.5546Z" fill="#243149"/>
<path d="M95.283 54.2691C95.2454 54.2691 95.2303 54.2916 95.2078 54.3443L94.7788 55.6155C94.696 55.8486 94.6583 56.0668 94.6583 56.1796C94.6583 56.3451 94.7336 56.4579 94.9895 56.4429H95.1099C95.2078 56.4353 95.2303 56.4429 95.2303 56.503C95.2303 56.5782 95.1852 56.5933 95.0949 56.6008C94.839 56.6159 94.4852 56.6008 94.2293 56.6158C94.139 56.6158 93.6874 56.6685 93.266 56.6911C93.1606 56.6911 93.1079 56.6835 93.1079 56.6083C93.1079 56.5557 93.138 56.5331 93.2058 56.5331C93.281 56.5331 93.3939 56.5106 93.4616 56.503C93.838 56.4278 93.9885 56.1044 94.1541 55.638L96.1561 49.8839C96.2539 49.6131 96.2991 49.5153 96.3819 49.5078C96.4571 49.5078 96.5023 49.583 96.5851 49.7936C96.7808 50.2825 98.0903 53.8629 98.6097 55.2168C98.9182 56.0141 99.1515 56.1345 99.3171 56.1721C99.4375 56.1946 99.558 56.1946 99.6558 56.1871C99.716 56.1871 99.7612 56.1871 99.7612 56.2548C99.7612 56.33 99.6934 56.3451 99.3924 56.3676C99.1064 56.3827 98.5193 56.4128 97.8796 56.4278C97.7366 56.4278 97.6387 56.4278 97.6387 56.3676C97.6387 56.315 97.6689 56.2924 97.7517 56.2774C97.8043 56.2548 97.8645 56.1721 97.8194 56.0668L97.1646 54.2239C97.1495 54.1788 97.127 54.1638 97.0818 54.1638L95.2755 54.254L95.283 54.2691ZM96.9313 53.735C96.9689 53.735 96.9764 53.7049 96.9689 53.6824L96.2313 51.4785C96.2313 51.4785 96.2163 51.3958 96.1937 51.3958C96.1711 51.3958 96.1561 51.4409 96.1485 51.4785L95.4185 53.7425C95.4185 53.7425 95.4185 53.8027 95.4486 53.8027L96.9313 53.735Z" fill="#243149"/>
<path d="M102.177 49.9367L101.003 50.0195C100.544 50.0571 100.356 50.1097 100.235 50.3128C100.16 50.4482 100.115 50.561 100.1 50.6362C100.085 50.7115 100.062 50.7491 100.017 50.7491C99.9645 50.7491 99.9494 50.7039 99.9419 50.6062C99.9419 50.4632 100.085 49.6359 100.1 49.5606C100.123 49.4403 100.145 49.3876 100.19 49.3876C100.25 49.3876 100.333 49.4704 100.529 49.4854C100.755 49.5005 101.056 49.508 101.319 49.5005L104.42 49.3801C104.668 49.3726 104.842 49.335 104.954 49.3124C105.067 49.2823 105.135 49.2598 105.165 49.2598C105.218 49.2598 105.225 49.3124 105.225 49.4478C105.225 49.6359 105.21 50.2526 105.21 50.4858C105.203 50.5761 105.188 50.6287 105.143 50.6287C105.082 50.6287 105.067 50.5911 105.06 50.4557V50.3579C105.037 50.1248 104.819 49.8841 104.134 49.8916H103.148L103.178 53.5772C103.178 54.4046 103.193 55.1117 103.231 55.4953C103.253 55.7435 103.306 55.9391 103.539 55.9616C103.652 55.9767 103.818 55.9842 103.938 55.9767C104.021 55.9767 104.066 55.9992 104.066 56.0444C104.066 56.1045 104.006 56.1346 103.916 56.1422C103.404 56.1722 102.907 56.1722 102.689 56.1798C102.508 56.1873 102.012 56.2399 101.696 56.2625C101.59 56.2625 101.537 56.2475 101.537 56.1798C101.537 56.1346 101.568 56.1045 101.665 56.1045C101.786 56.1045 101.876 56.0745 101.951 56.0519C102.109 56.0068 102.155 55.8112 102.177 55.5479C102.215 55.1643 102.207 54.4573 102.2 53.6299L102.17 49.9442L102.177 49.9367Z" fill="#243149"/>
<path d="M107.754 51.7943C107.739 50.4479 107.739 50.1997 107.724 49.9139C107.709 49.613 107.626 49.4626 107.461 49.425C107.378 49.4024 107.28 49.3949 107.182 49.4024C107.107 49.4024 107.062 49.3874 107.054 49.3197C107.054 49.267 107.114 49.2445 107.235 49.2445C107.528 49.2369 108.01 49.2445 108.228 49.2369C108.416 49.2294 108.868 49.1843 109.154 49.1768C109.252 49.1768 109.312 49.1918 109.312 49.2445C109.312 49.3122 109.267 49.3347 109.192 49.3347C109.116 49.3347 109.056 49.3498 108.966 49.3723C108.763 49.425 108.702 49.5754 108.687 49.8838C108.672 50.1696 108.68 50.4178 108.687 51.7567L108.702 53.3137C108.71 54.1712 108.718 54.8707 108.748 55.2543C108.77 55.495 108.83 55.653 109.056 55.6755C109.162 55.6906 109.327 55.6981 109.448 55.6906C109.53 55.6906 109.568 55.7131 109.568 55.7508C109.568 55.8109 109.508 55.841 109.425 55.8485C108.921 55.8786 108.439 55.8711 108.236 55.8861C108.063 55.8937 107.581 55.9463 107.272 55.9614C107.175 55.9614 107.122 55.9463 107.114 55.8786C107.114 55.8335 107.145 55.8034 107.235 55.8034C107.348 55.8034 107.446 55.7733 107.513 55.7508C107.664 55.7056 107.709 55.5552 107.732 55.2919C107.769 54.9158 107.762 54.2163 107.754 53.3588L107.739 51.7943H107.754Z" fill="#243149"/>
<path d="M111.344 52.4111C111.329 50.9067 112.157 48.936 114.392 48.8533C116.229 48.7856 117.373 49.9966 117.395 51.9823C117.418 53.9681 116.266 55.6003 114.385 55.6981C112.247 55.8184 111.359 53.9681 111.344 52.4111ZM116.379 52.3509C116.357 50.4103 115.393 49.2369 114.182 49.282C113.331 49.3121 112.353 49.9139 112.375 52.0952C112.39 53.9229 113.271 55.322 114.693 55.2468C115.213 55.2242 116.402 54.8631 116.372 52.3509H116.379Z" fill="#243149"/>
<path d="M120.361 54.0886C120.383 54.7581 120.481 54.9762 120.624 55.0288C120.745 55.074 120.88 55.074 121 55.0665C121.076 55.0665 121.121 55.074 121.121 55.1266C121.121 55.1943 121.061 55.2169 120.955 55.2244C120.489 55.247 120.195 55.2394 120.06 55.247C119.992 55.247 119.653 55.2921 119.277 55.3147C119.187 55.3147 119.119 55.3147 119.119 55.2395C119.119 55.1868 119.164 55.1718 119.232 55.1642C119.322 55.1642 119.458 55.1417 119.555 55.1041C119.744 55.0288 119.766 54.7731 119.766 54.0209V48.9438C119.766 48.7708 119.789 48.6504 119.864 48.6504C119.939 48.6504 120.007 48.7557 120.135 48.9061C120.225 49.0115 121.332 50.3428 122.393 51.5388C122.882 52.0954 123.86 53.2838 123.981 53.4117H124.019L123.898 49.5831C123.883 49.0641 123.823 48.9062 123.65 48.8234C123.544 48.7783 123.371 48.7858 123.273 48.7858C123.191 48.7858 123.161 48.7632 123.161 48.7106C123.161 48.6429 123.236 48.6278 123.341 48.6278C123.71 48.6128 124.049 48.6278 124.199 48.6278C124.274 48.6278 124.545 48.5902 124.892 48.5752C124.982 48.5752 125.057 48.5752 125.057 48.6429C125.057 48.6955 125.02 48.7181 124.929 48.7256C124.861 48.7256 124.801 48.7256 124.718 48.7557C124.523 48.8309 124.47 49.0115 124.47 49.4853V54.8634C124.47 55.0514 124.44 55.1266 124.372 55.1341C124.297 55.1341 124.207 55.0514 124.131 54.9611C123.68 54.4722 122.754 53.3966 122.001 52.5542C121.211 51.6666 120.398 50.6512 120.27 50.4932H120.248L120.368 54.0811L120.361 54.0886Z" fill="#243149"/>
<path d="M46.633 72.6372C27.8549 74.7282 11.0712 60.0759 11.3045 39.361C11.5378 18.3002 29.1569 2.83548 48.3716 4.89644C56.4022 5.76144 63.2812 9.58248 68.226 15.0508C62.5512 7.25074 53.7228 1.54927 43.0806 0.270572C20.8102 -2.40717 0.158018 15.0583 -3.50013e-05 39.2181C-0.158088 62.9191 19.606 79.3691 41.2818 76.7215C50.8929 75.5481 59.2396 70.7943 65.2155 64.1602C60.2105 68.7033 53.8131 71.8474 46.633 72.6447V72.6372Z" fill="url(#paint0_linear_1_11736)"/>
<path d="M140.599 25.1747H140.238V25.0469H141.111V25.1747H140.75V26.2278H140.592V25.1747H140.599Z" fill="#243149"/>
<path d="M142.232 25.7014C142.225 25.5359 142.21 25.3403 142.217 25.1899C142.179 25.3253 142.127 25.4757 142.067 25.6337L141.856 26.2053H141.743L141.555 25.6412C141.502 25.4757 141.449 25.3253 141.419 25.1824C141.419 25.3328 141.404 25.5284 141.397 25.7014L141.367 26.2053H141.224L141.306 25.0244H141.502L141.705 25.5961C141.75 25.739 141.796 25.8668 141.826 25.9947C141.856 25.8744 141.893 25.7465 141.954 25.5961L142.164 25.0244H142.36L142.435 26.2053H142.285L142.255 25.6863L142.232 25.7014Z" fill="#243149"/>
<path d="M141.367 27.2659C140.471 27.2659 139.734 26.5363 139.734 25.6337C139.734 24.7311 140.464 24.0015 141.367 24.0015C142.27 24.0015 143 24.7311 143 25.6337C143 26.5363 142.27 27.2659 141.367 27.2659ZM141.367 24.1594C140.554 24.1594 139.884 24.8213 139.884 25.6412C139.884 26.4611 140.546 27.123 141.367 27.123C142.187 27.123 142.85 26.4611 142.85 25.6412C142.85 24.8213 142.187 24.1594 141.367 24.1594Z" fill="#243149"/>
<defs>
<linearGradient id="paint0_linear_1_11736" x1="34.1125" y1="-0.000488281" x2="34.1125" y2="77.0009" gradientUnits="userSpaceOnUse">
<stop stop-color="#67C3EC"/>
<stop offset="1" stop-color="#006FBA"/>
</linearGradient>
</defs>
</svg>
