<svg width="221" height="163" viewBox="0 0 221 163" fill="none" xmlns="http://www.w3.org/2000/svg">
<g clip-path="url(#clip0_1_1102)">
<g clip-path="url(#clip1_1_1102)">
<path d="M215.725 25.272H94.2754V106.728H215.725V25.272Z" fill="black" stroke="black" stroke-linecap="round" stroke-linejoin="round"/>
<path d="M212.277 27.5845H97.7231V104.415H212.277V27.5845Z" fill="white" stroke="black" stroke-linecap="round" stroke-linejoin="round"/>
<path d="M104.993 91.9224H206.516" stroke="black" stroke-width="0.5" stroke-linecap="round" stroke-linejoin="round"/>
<path d="M110.484 92.3359V90.6709" stroke="black" stroke-width="0.5" stroke-linecap="round" stroke-linejoin="round"/>
<path d="M117.87 92.3359V90.6709" stroke="black" stroke-width="0.5" stroke-linecap="round" stroke-linejoin="round"/>
<path d="M125.256 92.3359V90.6709" stroke="black" stroke-width="0.5" stroke-linecap="round" stroke-linejoin="round"/>
<path d="M132.642 92.3359V90.6709" stroke="black" stroke-width="0.5" stroke-linecap="round" stroke-linejoin="round"/>
<path d="M140.033 92.3359V90.6709" stroke="black" stroke-width="0.5" stroke-linecap="round" stroke-linejoin="round"/>
<path d="M147.419 92.3359V90.6709" stroke="black" stroke-width="0.5" stroke-linecap="round" stroke-linejoin="round"/>
<path d="M154.804 92.3359V90.6709" stroke="black" stroke-width="0.5" stroke-linecap="round" stroke-linejoin="round"/>
<path d="M162.196 92.3359V90.6709" stroke="black" stroke-width="0.5" stroke-linecap="round" stroke-linejoin="round"/>
<path d="M169.581 92.3359V90.6709" stroke="black" stroke-width="0.5" stroke-linecap="round" stroke-linejoin="round"/>
<path d="M176.967 92.3359V90.6709" stroke="black" stroke-width="0.5" stroke-linecap="round" stroke-linejoin="round"/>
<path d="M184.358 92.3359V90.6709" stroke="black" stroke-width="0.5" stroke-linecap="round" stroke-linejoin="round"/>
<path d="M191.744 92.3359V90.6709" stroke="black" stroke-width="0.5" stroke-linecap="round" stroke-linejoin="round"/>
<path d="M199.13 92.3359V90.6709" stroke="black" stroke-width="0.5" stroke-linecap="round" stroke-linejoin="round"/>
<path d="M113.436 86.084L121.455 82.9553L128.423 85.8718L137.29 79.6198L144.042 73.3623L151.009 84.6203L158.605 80.8713L165.781 86.7098L172.748 76.0721L180.343 88.3748L188.368 85.2461L195.754 79.6198" stroke="black" stroke-width="0.5" stroke-linecap="round" stroke-linejoin="round"/>
<path d="M113.436 82.955L121.455 79.8263L128.423 71.9038L137.29 76.4908L144.042 78.7816L151.009 88.5868L158.605 96.0903L165.781 83.5808L172.748 86.7095L180.343 85.2458L188.368 76.284L195.754 76.4908" stroke="#67C3EC" stroke-width="0.5" stroke-linecap="round" stroke-linejoin="round"/>
<path d="M109.333 43.2012H104.883V65.4451H109.333V43.2012Z" fill="#67C3EC" stroke="black" stroke-width="0.5" stroke-linecap="round" stroke-linejoin="round"/>
<path d="M115.827 51.646H111.382V65.4505H115.827V51.646Z" fill="white" stroke="black" stroke-width="0.5" stroke-linecap="round" stroke-linejoin="round"/>
<path d="M122.331 53.1367H117.881V65.4503H122.331V53.1367Z" fill="#67C3EC" stroke="black" stroke-width="0.5" stroke-linecap="round" stroke-linejoin="round"/>
<path d="M128.83 49.6597H124.38V65.4502H128.83V49.6597Z" fill="white" stroke="black" stroke-width="0.5" stroke-linecap="round" stroke-linejoin="round"/>
<path d="M135.329 49.1646H130.879V65.4503H135.329V49.1646Z" fill="#67C3EC" stroke="black" stroke-width="0.5" stroke-linecap="round" stroke-linejoin="round"/>
<path d="M141.834 38.0698H137.384V65.4449H141.834V38.0698Z" fill="white" stroke="black" stroke-width="0.5" stroke-linecap="round" stroke-linejoin="round"/>
<path d="M148.333 50.4868H143.883V65.4503H148.333V50.4868Z" fill="#67C3EC" stroke="black" stroke-width="0.5" stroke-linecap="round" stroke-linejoin="round"/>
<path d="M154.832 46.1826H150.382V65.4502H154.832V46.1826Z" fill="white" stroke="black" stroke-width="0.5" stroke-linecap="round" stroke-linejoin="round"/>
<path d="M161.326 56.1133H156.881V65.4505H161.326V56.1133Z" fill="#67C3EC" stroke="black" stroke-width="0.5" stroke-linecap="round" stroke-linejoin="round"/>
<path d="M208.84 40.3169H180.073V43.6361H208.84V40.3169Z" fill="white" stroke="black" stroke-width="0.5" stroke-linecap="round" stroke-linejoin="round"/>
<path d="M208.84 45.769H180.073V49.0882H208.84V45.769Z" fill="white" stroke="black" stroke-width="0.5" stroke-linecap="round" stroke-linejoin="round"/>
<path d="M208.84 51.2266H180.073V54.5457H208.84V51.2266Z" fill="white" stroke="black" stroke-width="0.5" stroke-linecap="round" stroke-linejoin="round"/>
<path d="M208.84 56.6787H180.073V59.9979H208.84V56.6787Z" fill="white" stroke="black" stroke-width="0.5" stroke-linecap="round" stroke-linejoin="round"/>
<path d="M208.84 62.1309H180.073V65.45H208.84V62.1309Z" fill="white" stroke="black" stroke-width="0.5" stroke-linecap="round" stroke-linejoin="round"/>
<path d="M197.445 40.3169H180.073V43.6361H197.445V40.3169Z" fill="#67C3EC" stroke="black" stroke-width="0.5" stroke-linecap="round" stroke-linejoin="round"/>
<path d="M191.529 45.769H180.073V49.0882H191.529V45.769Z" fill="#67C3EC" stroke="black" stroke-width="0.5" stroke-linecap="round" stroke-linejoin="round"/>
<path d="M205.249 51.2266H180.073V54.5457H205.249V51.2266Z" fill="#67C3EC" stroke="black" stroke-width="0.5" stroke-linecap="round" stroke-linejoin="round"/>
<path d="M202.93 56.6787H180.073V59.9979H202.93V56.6787Z" fill="#67C3EC" stroke="black" stroke-width="0.5" stroke-linecap="round" stroke-linejoin="round"/>
<path d="M199.13 62.1309H180.073V65.45H199.13V62.1309Z" fill="#67C3EC" stroke="black" stroke-width="0.5" stroke-linecap="round" stroke-linejoin="round"/>
<path d="M104.883 32.2803H116.278" stroke="black" stroke-width="0.5" stroke-linecap="round" stroke-linejoin="round"/>
<path d="M104.883 34.7832H116.278" stroke="black" stroke-width="0.5" stroke-linecap="round" stroke-linejoin="round"/>
<path d="M104.883 37.2861H116.278" stroke="black" stroke-width="0.5" stroke-linecap="round" stroke-linejoin="round"/>
<path d="M180.261 32.2803H191.662" stroke="black" stroke-width="0.5" stroke-linecap="round" stroke-linejoin="round"/>
<path d="M180.261 34.7832H191.662" stroke="black" stroke-width="0.5" stroke-linecap="round" stroke-linejoin="round"/>
<path d="M180.261 37.2861H191.662" stroke="black" stroke-width="0.5" stroke-linecap="round" stroke-linejoin="round"/>
</g>
<path d="M202.483 195.748L167.132 201.747C167.132 201.747 160.977 169.148 157.308 164.014C153.638 158.875 154.31 156.764 152.528 153.303C151.452 151.213 146.06 147.315 141.828 143.467H141.823C141.455 143.134 141.096 142.802 140.753 142.469C140.603 142.335 140.464 142.191 140.324 142.057C139.762 141.501 139.239 140.959 138.776 140.428C138.607 140.239 138.447 140.051 138.298 139.862C137.417 138.775 136.794 137.757 136.585 136.838C136.57 136.788 136.56 136.739 136.555 136.684C136.54 136.62 136.53 136.56 136.525 136.5C136.431 135.731 136.331 134.852 136.232 133.898C136.212 133.71 136.192 133.511 136.167 133.313C136.157 133.233 136.147 133.159 136.137 133.074C136.052 132.28 135.958 131.436 135.848 130.567C135.739 129.658 135.619 128.715 135.48 127.766C135.435 127.438 135.39 127.111 135.335 126.778C135.335 126.773 135.335 126.768 135.33 126.768C135.276 126.401 135.216 126.033 135.156 125.661L134.992 124.707C134.982 124.653 134.967 124.603 134.962 124.558C134.892 124.186 134.822 123.824 134.753 123.456C134.738 123.416 134.733 123.377 134.728 123.332C134.658 123.009 134.593 122.691 134.519 122.369C134.364 121.649 134.19 120.944 134.001 120.258C133.628 118.893 133.189 117.617 132.681 116.485C130.132 110.809 133.448 112.86 131.452 98.2564C131.452 98.2564 132.92 94.8699 137.108 97.5761C137.431 97.7846 137.74 98.0131 138.044 98.2564H138.049C138.89 98.9317 139.637 99.7311 140.275 100.63C141.106 101.797 141.753 103.132 142.196 104.582C142.859 106.742 143.073 109.161 142.764 111.683C142.764 111.683 145.911 122.438 147.569 124.886C149.232 127.334 156.083 113.272 155.64 111.633C155.55 111.306 155.426 110.506 155.286 109.409C155.256 109.165 155.227 108.907 155.192 108.634C155.162 108.361 155.127 108.078 155.097 107.785C155.077 107.646 155.062 107.497 155.042 107.353C155.037 107.293 155.032 107.234 155.022 107.179C154.963 106.618 154.893 106.022 154.828 105.407C154.813 105.233 154.793 105.069 154.774 104.9C154.744 104.607 154.714 104.304 154.684 104.006C154.674 103.962 154.674 103.912 154.669 103.857C154.649 103.689 154.629 103.515 154.614 103.336C154.574 102.988 154.539 102.636 154.505 102.283C154.47 101.98 154.445 101.678 154.415 101.375C154.355 100.804 154.301 100.233 154.246 99.6814C154.206 99.2693 154.166 98.8621 154.131 98.4649C154.121 98.3755 154.111 98.2862 154.106 98.2017C153.897 96.0169 153.733 94.2194 153.673 93.4548C153.673 93.4548 148.689 86.0959 148.176 82.6301C147.663 79.1592 147.708 75.5145 149.794 74.0299C154.734 70.5242 153.29 76.1749 155.5 78.5137C157.711 80.8623 161.102 84.6858 163.024 85.8824C164.796 87.0046 166.38 91.3643 166.604 91.9999C166.35 91.0465 163.815 81.6717 163.761 79.7848C163.696 77.7937 162.172 67.2917 164.761 63.5229C167.346 59.7591 170.791 62.6788 171.11 63.4236C171.428 64.1685 171.523 74.3427 172.434 77.178C173.35 80.0083 177.159 91.8112 177.159 91.8112C177.159 91.8112 177.319 80.331 178.18 75.1918C179.036 70.0575 181.277 66.0355 183.468 65.8071C185.659 65.5786 187.685 67.9869 187.685 67.9869C187.685 67.9869 186.819 76.1799 187.068 78.0718C187.312 79.9586 186.709 86.7961 187.75 90.4705C187.75 90.4705 187.63 80.6836 189.154 79.4323C190.682 78.181 191.987 77.5802 192.843 78.4243C193.695 79.2684 193.884 85.0631 194.755 88.5489C195.632 92.0396 195.517 96.7717 196.09 102.209C196.662 107.646 198.918 115.194 198.47 119.509C198.022 123.814 196.642 134.524 195.532 140.805C194.422 147.092 191.589 155.692 191.589 155.692C191.589 155.692 192.878 160.285 192.629 164.381C192.375 168.478 202.483 195.748 202.483 195.748Z" fill="white"/>
<path opacity="0.4" d="M189.154 79.437C189.154 79.437 189.144 79.4519 189.139 79.4519C189.084 79.4916 188.95 79.5959 188.756 79.7598C188.88 79.5314 189.01 79.3129 189.149 79.1143L189.159 79.437H189.154Z" fill="#67C3EC"/>
<path opacity="0.2" d="M142.197 104.582C142.197 104.582 133.379 109.036 132.682 116.484C130.132 110.809 133.449 112.86 131.452 98.2562C131.452 98.2562 132.921 94.8698 137.108 97.5759C137.432 97.7845 137.74 98.0129 138.044 98.2562H138.049C138.891 98.9315 139.637 99.731 140.275 100.63L142.197 104.582Z" fill="black"/>
<path d="M167.132 201.751C167.132 201.751 160.983 169.153 157.308 164.019C153.639 158.885 154.311 156.769 152.528 153.308C150.746 149.847 137.128 141.426 136.526 136.505C135.923 131.589 135.231 122.165 132.682 116.489C130.133 110.809 133.449 112.865 131.447 98.2613C131.447 98.2613 132.926 94.8798 137.108 97.581C141.291 100.287 143.496 105.7 142.764 111.693C142.764 111.693 145.911 122.443 147.569 124.891C149.232 127.344 156.078 113.277 155.635 111.633C155.192 109.99 153.878 96.0069 153.673 93.4597C153.673 93.4597 148.689 86.0959 148.177 82.6349C147.664 79.1691 147.709 75.5194 149.795 74.0397C154.734 70.5341 153.29 76.1848 155.501 78.5285C157.711 80.8722 161.102 84.6956 163.024 85.8973C164.946 87.0989 166.629 92.0892 166.629 92.0892C166.629 92.0892 163.821 81.7908 163.761 79.7997C163.701 77.8085 162.173 67.3066 164.762 63.5427C167.351 59.7789 170.796 62.6986 171.11 63.4385C171.424 64.1783 171.528 74.3575 172.44 77.1878C173.351 80.0231 177.16 91.826 177.16 91.826C177.16 91.826 177.324 80.3459 178.18 75.2066C179.042 70.0674 181.282 66.0453 183.468 65.8219C185.659 65.5935 187.685 68.0017 187.685 68.0017C187.685 68.0017 186.819 76.1947 187.063 78.0866C187.307 79.9784 186.709 86.8109 187.75 90.4853C187.75 90.4853 187.626 80.6984 189.154 79.4471C190.683 78.1958 191.987 77.595 192.839 78.4391C193.695 79.2833 193.879 85.078 194.756 88.5637C195.627 92.0495 195.517 96.7865 196.09 102.224C196.663 107.661 198.918 115.208 198.47 119.518C198.022 123.828 196.638 134.534 195.527 140.82C194.417 147.107 191.589 155.707 191.589 155.707C191.589 155.707 192.879 160.3 192.625 164.396C192.371 168.493 202.478 195.763 202.478 195.763" stroke="black" stroke-width="0.5" stroke-linecap="round" stroke-linejoin="round"/>
<path d="M177.155 91.811C178.185 94.2243 180.73 104.413 181.641 105.824C182.552 107.234 183.583 107.661 183.583 107.661" stroke="black" stroke-width="0.5" stroke-linecap="round" stroke-linejoin="round"/>
<path d="M187.75 90.4756C187.75 90.4756 187.531 92.5611 188.661 99.2198C189.791 105.878 190.344 108.709 190.976 110.193" stroke="black" stroke-width="0.5" stroke-linecap="round" stroke-linejoin="round"/>
<path d="M166.629 92.0791C168.013 96.1359 168.79 102.601 169.576 104.547C170.363 106.494 171.065 106.896 171.065 106.896" stroke="black" stroke-width="0.5" stroke-linecap="round" stroke-linejoin="round"/>
<path d="M168.865 101.812C168.865 101.812 170.313 102.884 170.776 104.22" stroke="black" stroke-width="0.5" stroke-linecap="round" stroke-linejoin="round"/>
<path d="M147.574 124.886C147.574 124.886 148.331 130.264 151.712 129.837" stroke="black" stroke-width="0.5" stroke-linecap="round" stroke-linejoin="round"/>
<path d="M155.64 111.633C155.64 111.633 156.517 118.024 155.078 120.74" stroke="black" stroke-width="0.5" stroke-linecap="round" stroke-linejoin="round"/>
<path d="M182.642 111.688C182.642 111.688 184.912 113.073 183.393 117.14C181.875 121.207 179.236 137.613 179.236 137.613" stroke="black" stroke-width="0.5" stroke-linecap="round" stroke-linejoin="round"/>
<path d="M192.525 115.978C193.476 119.652 193.561 119.747 192.017 124.26C190.469 128.774 187.979 139.827 187.979 139.827" stroke="black" stroke-width="0.5" stroke-linecap="round" stroke-linejoin="round"/>
<path d="M191.594 155.697C191.594 155.697 190.11 152.707 191.335 150.25" stroke="black" stroke-width="0.5" stroke-linecap="round" stroke-linejoin="round"/>
<path d="M184.932 71.84L185.948 70.842L186.406 70.7129L186.376 71.2045L185.445 72.3912L184.932 71.84Z" fill="#006FBA" stroke="black" stroke-width="0.5" stroke-linecap="round" stroke-linejoin="round"/>
<path d="M185.754 72.3961L184.105 76.1351L139.692 135.189L134.743 132.046L141.46 123.645L181.352 73.7417L184.872 71.5122C184.872 71.5122 185.624 71.7059 185.758 72.3961H185.754Z" fill="#67C3EC"/>
<mask id="mask0_1_1102" style="mask-type:luminance" maskUnits="userSpaceOnUse" x="134" y="71" width="52" height="65">
<path d="M185.754 72.3961L184.105 76.1351L139.692 135.189L134.743 132.046L141.46 123.645L181.352 73.7417L184.872 71.5122C184.872 71.5122 185.624 71.7059 185.758 72.3961H185.754Z" fill="white"/>
</mask>
<g mask="url(#mask0_1_1102)">
<path opacity="0.3" d="M185.754 72.3961L184.105 76.1351L139.692 135.189L134.743 132.046L141.46 123.645C144.547 123.327 145.06 125.144 145.06 125.144L183.324 75.3406C182.95 73.9999 181.352 73.7417 181.352 73.7417L184.872 71.5122C184.872 71.5122 185.624 71.7059 185.758 72.3961H185.754Z" fill="black"/>
</g>
<path d="M185.754 72.3961L184.105 76.1351L139.692 135.189L134.743 132.046L141.46 123.645L181.352 73.7417L184.872 71.5122C184.872 71.5122 185.624 71.7059 185.758 72.3961H185.754Z" stroke="black" stroke-width="0.5" stroke-linecap="round" stroke-linejoin="round"/>
<path d="M154.176 117.701C154.176 117.701 149.222 127.513 144.452 134.454L141.047 135.333C141.047 135.333 133.23 143.079 128.46 146.948C128.46 146.948 127.235 146.238 126.129 144.996C126.129 144.996 132.901 132.026 140.394 123.818C140.394 123.818 141.485 124.151 142.854 125.119C143.666 125.695 144.582 126.49 145.418 127.572L153.768 117.095L154.181 117.701H154.176Z" fill="#67C3EC"/>
<mask id="mask1_1_1102" style="mask-type:luminance" maskUnits="userSpaceOnUse" x="126" y="117" width="29" height="30">
<path d="M154.176 117.701C154.176 117.701 149.222 127.513 144.452 134.454L141.047 135.333C141.047 135.333 133.23 143.079 128.46 146.948C128.46 146.948 127.235 146.238 126.129 144.996C126.129 144.996 132.901 132.026 140.394 123.818C140.394 123.818 141.485 124.151 142.854 125.119C143.666 125.695 144.582 126.49 145.418 127.572L153.768 117.095L154.181 117.701H154.176Z" fill="white"/>
</mask>
<g mask="url(#mask1_1_1102)">
<path opacity="0.3" d="M154.176 117.701C154.176 117.701 149.222 127.513 144.452 134.454L141.047 135.333C141.047 135.333 133.229 143.079 128.459 146.948L128.589 144.842C133.762 136.962 140.334 128.367 142.849 125.119C143.661 125.695 144.577 126.49 145.413 127.572L140.773 133.749L143.431 133.273L153.763 117.095L154.176 117.701Z" fill="black"/>
</g>
<path d="M154.176 117.701C154.176 117.701 149.222 127.513 144.452 134.454L141.047 135.333C141.047 135.333 133.23 143.079 128.46 146.948C128.46 146.948 127.235 146.238 126.129 144.996C126.129 144.996 132.901 132.026 140.394 123.818C140.394 123.818 141.485 124.151 142.854 125.119C143.666 125.695 144.582 126.49 145.418 127.572L153.768 117.095L154.181 117.701H154.176Z" stroke="black" stroke-width="0.5" stroke-linecap="round" stroke-linejoin="round"/>
<path d="M171.065 106.891L157.194 120.308L154.978 122.453C156.497 118.56 155.76 112.547 155.665 111.812V111.802C155.66 111.763 155.655 111.738 155.655 111.738C155.655 111.703 155.655 111.658 155.645 111.633C155.56 111.311 155.436 110.506 155.297 109.409C155.267 109.166 155.237 108.907 155.202 108.634C155.167 108.361 155.137 108.078 155.102 107.785C155.082 107.646 155.068 107.502 155.053 107.358C155.048 107.299 155.043 107.239 155.033 107.184C154.973 106.623 154.903 106.027 154.838 105.407C154.824 105.238 154.804 105.069 154.784 104.9C154.754 104.607 154.724 104.309 154.694 104.007C154.689 103.962 154.684 103.912 154.679 103.858C154.664 103.689 154.639 103.515 154.624 103.331C154.585 102.984 154.555 102.631 154.515 102.279C154.485 101.976 154.455 101.673 154.425 101.37C154.37 100.799 154.311 100.228 154.261 99.6766C154.216 99.2645 154.176 98.8573 154.141 98.4651C154.131 98.3757 154.126 98.2863 154.117 98.1969C153.907 96.0121 153.743 94.2196 153.683 93.4499C153.683 93.4499 148.704 86.0911 148.186 82.6252C147.674 79.1593 147.718 75.5097 149.805 74.03C154.744 70.5194 153.295 76.1701 155.506 78.5138C157.716 80.8625 161.112 84.6809 163.029 85.8826C164.946 87.0892 166.634 92.0745 166.634 92.0745C168.013 96.1313 168.795 102.591 169.581 104.543C170.368 106.489 171.07 106.891 171.07 106.891H171.065Z" fill="white"/>
<path d="M168.865 101.812C168.865 101.812 170.314 102.884 170.777 104.22" stroke="black" stroke-width="0.5" stroke-linecap="round" stroke-linejoin="round"/>
<path d="M171.065 106.896C171.065 106.896 170.363 106.494 169.577 104.548C168.79 102.601 168.008 96.136 166.629 92.0792C166.629 92.0792 164.941 87.089 163.024 85.8873C161.107 84.6857 157.717 80.8623 155.501 78.5186C153.29 76.1749 154.734 70.5242 149.795 74.0298C147.709 75.5095 147.669 79.1591 148.177 82.625C148.69 86.0909 153.674 93.4497 153.674 93.4497C153.878 96.002 155.192 109.985 155.635 111.623" stroke="black" stroke-width="0.5" stroke-linecap="round" stroke-linejoin="round"/>
<path d="M155.64 111.633C155.64 111.633 156.517 118.024 155.078 120.74" stroke="black" stroke-width="0.5" stroke-linecap="round" stroke-linejoin="round"/>
<path opacity="0.2" d="M70.4785 119.454C70.4785 119.454 73.6303 134.048 66.804 144.669C59.9777 155.285 54.7248 158.12 52.3598 161.288C49.9947 164.456 40.7486 182.168 40.7486 182.168L29.9441 150.255L40.7486 110.774L70.4835 119.459L70.4785 119.454Z" fill="black"/>
<path d="M134.16 108.292L67.1623 136.411L60.2564 139.311L47.2411 108.471L17.0183 36.8537L90.9223 5.83447L134.16 108.292Z" fill="white"/>
<mask id="mask2_1_1102" style="mask-type:luminance" maskUnits="userSpaceOnUse" x="17" y="5" width="118" height="135">
<path d="M134.16 108.292L67.1623 136.411L60.2564 139.311L47.2411 108.471L17.0183 36.8537L90.9223 5.83447L134.16 108.292Z" fill="white"/>
</mask>
<g mask="url(#mask2_1_1102)">
<path d="M71.8278 19.1666L39.927 32.5535C39.3295 32.8067 39.0457 33.492 39.2997 34.0878C39.5536 34.6837 40.2407 34.9667 40.8382 34.7135L72.739 21.3266C73.3364 21.0733 73.6202 20.3881 73.3663 19.7923C73.1124 19.1964 72.4253 18.9134 71.8278 19.1666Z" fill="black"/>
<path d="M65.7283 26.9575L49.7755 33.6509C49.4767 33.7751 49.3373 34.1227 49.4618 34.4206C49.5862 34.7185 49.9348 34.8576 50.2335 34.7334L66.1864 28.04C66.4851 27.9158 66.6246 27.5683 66.5001 27.2703C66.3756 26.9724 66.0271 26.8334 65.7283 26.9575Z" fill="black"/>
<path d="M91.973 67.7388C91.973 67.7388 92.6451 73.0071 90.6784 73.8364C88.881 74.5911 86.5159 71.7608 84.4496 72.6298C82.3833 73.4987 84.0115 80.9668 82.0198 81.8059C80.0282 82.6401 77.6283 79.5715 75.9106 80.2915C74.1928 81.0115 75.2334 84.8547 73.4609 85.5995C71.997 86.2153 69.9058 83.1565 68.2329 82.4862C67.8793 82.3422 67.5457 82.3074 67.237 82.4365C65.4844 83.1714 66.3558 91.2006 64.8421 91.8312C64.3392 92.0447 63.9011 92.0795 63.4978 92.0497C62.9003 92.01 62.3725 91.8312 61.79 91.8908C61.5858 91.9106 61.3767 91.9603 61.1527 92.0546C59.8631 92.5959 60.0373 96.8215 58.8573 97.318C57.6773 97.8146 56.5122 97.1989 55.2525 97.7302C53.9928 98.2615 54.0127 100.456 52.1306 101.246L52.9273 103.128L98.7893 83.8815" fill="#DBDEE4"/>
<path d="M91.973 67.7388C91.973 67.7388 92.6451 73.0071 90.6784 73.8364C88.881 74.5911 86.5159 71.7608 84.4496 72.6298C82.3833 73.4987 84.0115 80.9668 82.0198 81.8059C80.0282 82.6401 77.6283 79.5715 75.9106 80.2915C74.1928 81.0115 75.2334 84.8547 73.4609 85.5995C71.997 86.2153 69.9058 83.1565 68.2329 82.4862C67.8793 82.3422 67.5457 82.3074 67.237 82.4365C65.4844 83.1714 66.3558 91.2006 64.8421 91.8312C64.3392 92.0447 63.9011 92.0795 63.4978 92.0497C62.9003 92.01 62.3725 91.8312 61.79 91.8908C61.5858 91.9106 61.3767 91.9603 61.1527 92.0546C59.8631 92.5959 60.0373 96.8215 58.8573 97.318C57.6773 97.8146 56.5122 97.1989 55.2525 97.7302C53.9928 98.2615 54.0127 100.456 52.1306 101.246L52.9273 103.128L98.7893 83.8815" stroke="black" stroke-width="0.5" stroke-miterlimit="10"/>
<path d="M43.6365 81.1255L52.9224 103.127L100.94 82.9726" stroke="black" stroke-width="0.5" stroke-linecap="round" stroke-linejoin="round"/>
<path d="M95.6625 76.4832C95.6625 76.4832 95.4384 76.2051 95.0949 75.8774C94.5024 75.3064 93.5613 74.5814 92.8443 74.8793C92.1423 75.1723 92.0825 76.3342 92.0975 77.5706C92.1124 79.0801 92.2469 80.6988 91.4851 81.0216C90.8378 81.2947 90.2602 80.8826 89.6627 80.4406C88.9806 79.9342 88.2835 79.378 87.4421 79.7306C86.028 80.3264 86.4562 82.1637 85.9583 83.7377C85.7044 84.5421 85.2065 85.277 84.0961 85.7438C82.8713 86.2552 81.6315 85.7537 80.4664 84.9592C78.4947 83.6185 76.7222 81.4437 75.577 81.9253C73.7497 82.69 75.7662 87.6207 73.7995 88.445C72.7041 88.9068 70.4336 85.4558 68.2279 82.4914C66.4853 80.1427 64.7824 78.1019 63.7318 78.5389C61.3618 79.532 65.2654 91.315 63.5426 92.04C63.5277 92.0449 63.5078 92.0549 63.4879 92.0598C62.7709 92.3429 62.2431 92.1641 61.7801 91.9009C61.1577 91.5484 60.6548 91.0518 59.9677 91.3398C58.698 91.8711 59.4449 96.489 58.0458 97.0799C56.6467 97.6658 55.8102 96.8167 54.2368 97.4771C52.9074 98.0333 52.1157 101.251 52.1157 101.251L52.9124 103.133L98.7744 83.8867" fill="#006FBA"/>
<path d="M95.6625 76.4832C95.6625 76.4832 95.4384 76.2051 95.0949 75.8774C94.5024 75.3064 93.5613 74.5814 92.8443 74.8793C92.1423 75.1723 92.0825 76.3342 92.0975 77.5706C92.1124 79.0801 92.2469 80.6988 91.4851 81.0216C90.8378 81.2947 90.2602 80.8826 89.6627 80.4406C88.9806 79.9342 88.2835 79.378 87.4421 79.7306C86.028 80.3264 86.4562 82.1637 85.9583 83.7377C85.7044 84.5421 85.2065 85.277 84.0961 85.7438C82.8713 86.2552 81.6315 85.7537 80.4664 84.9592C78.4947 83.6185 76.7222 81.4437 75.577 81.9253C73.7497 82.69 75.7662 87.6207 73.7995 88.445C72.7041 88.9068 70.4336 85.4558 68.2279 82.4914C66.4853 80.1427 64.7824 78.1019 63.7318 78.5389C61.3618 79.532 65.2654 91.315 63.5426 92.04C63.5277 92.0449 63.5078 92.0549 63.4879 92.0598C62.7709 92.3429 62.2431 92.1641 61.7801 91.9009C61.1577 91.5484 60.6548 91.0518 59.9677 91.3398C58.698 91.8711 59.4449 96.489 58.0458 97.0799C56.6467 97.6658 55.8102 96.8167 54.2368 97.4771C52.9074 98.0333 52.1157 101.251 52.1157 101.251L52.9124 103.133L98.7744 83.8867" stroke="black" stroke-width="0.5" stroke-linecap="round" stroke-linejoin="round"/>
<path d="M85.9583 92.1889L70.0054 98.8824C69.7067 99.0065 69.5673 99.3541 69.6918 99.652C69.8162 99.95 70.1648 100.089 70.4635 99.9649L86.4164 93.2714C86.7151 93.1473 86.8545 92.7997 86.7301 92.5018C86.6056 92.2038 86.257 92.0648 85.9583 92.1889Z" fill="black"/>
<path d="M98.5849 65.8346L97.0474 66.4798C96.8877 66.5468 96.8128 66.7302 96.88 66.8894L97.5269 68.4226C97.5941 68.5819 97.778 68.6567 97.9376 68.5897L99.4751 67.9445C99.6348 67.8775 99.7097 67.6941 99.6425 67.5349L98.9956 66.0016C98.9284 65.8424 98.7445 65.7676 98.5849 65.8346Z" fill="#DBDEE4" stroke="black" stroke-width="0.5" stroke-miterlimit="10"/>
<path d="M106.925 63.2352L100.552 65.9116C100.418 65.9662 100.263 65.9066 100.208 65.7726C100.154 65.6385 100.213 65.4846 100.348 65.43L106.721 62.7536C106.855 62.699 107.01 62.7585 107.065 62.8926C107.119 63.0267 107.06 63.1806 106.925 63.2352Z" fill="black"/>
<path d="M105.426 65.1073L100.995 66.9644C100.861 67.019 100.706 66.9594 100.652 66.8253C100.597 66.6913 100.657 66.5373 100.791 66.4827L105.222 64.6256C105.357 64.571 105.511 64.6306 105.566 64.7647C105.621 64.8987 105.561 65.0527 105.426 65.1073Z" fill="black"/>
<path d="M100.581 70.5617L99.0433 71.2068C98.8836 71.2738 98.8086 71.4572 98.8758 71.6165L99.5227 73.1497C99.5899 73.3089 99.7738 73.3837 99.9335 73.3167L101.471 72.6716C101.631 72.6046 101.706 72.4211 101.638 72.2619L100.991 70.7287C100.924 70.5694 100.74 70.4947 100.581 70.5617Z" fill="#006FBA" stroke="black" stroke-width="0.5" stroke-linecap="round" stroke-linejoin="round"/>
<path d="M108.922 67.9623L102.549 70.6387C102.414 70.6933 102.26 70.6337 102.205 70.4996C102.15 70.3656 102.21 70.2116 102.344 70.157L108.718 67.4806C108.852 67.426 109.006 67.4856 109.061 67.6197C109.116 67.7537 109.056 67.9077 108.922 67.9623Z" fill="black"/>
<path d="M107.418 69.8343L102.987 71.6914C102.852 71.746 102.698 71.6865 102.643 71.5524C102.589 71.4183 102.648 71.2644 102.783 71.2098L107.214 69.3527C107.348 69.2981 107.503 69.3577 107.558 69.4917C107.612 69.6258 107.553 69.7797 107.418 69.8343Z" fill="black"/>
<path d="M117.301 87.4468L65.5242 109.176C65.2255 109.3 65.0861 109.647 65.2106 109.945C65.335 110.243 65.6836 110.382 65.9823 110.258L117.759 88.5292C118.058 88.4051 118.198 88.0575 118.073 87.7596C117.949 87.4617 117.6 87.3226 117.301 87.4468Z" fill="black"/>
<path d="M118.944 91.3349L58.7379 116.604C58.4391 116.728 58.2997 117.076 58.4242 117.374C58.5487 117.672 58.8972 117.811 59.1959 117.687L119.403 92.4174C119.701 92.2933 119.841 91.9457 119.716 91.6478C119.592 91.3498 119.243 91.2108 118.944 91.3349Z" fill="black"/>
<path d="M120.583 95.2226L60.376 120.492C60.0773 120.616 59.9379 120.964 60.0624 121.262C60.1868 121.559 60.5354 121.698 60.8341 121.574L121.041 96.3051C121.34 96.181 121.479 95.8334 121.354 95.5355C121.23 95.2375 120.881 95.0985 120.583 95.2226Z" fill="black"/>
<path d="M122.226 99.1108L62.0191 124.38C61.7204 124.504 61.581 124.852 61.7054 125.15C61.8299 125.448 62.1784 125.587 62.4772 125.463L122.684 100.193C122.983 100.069 123.122 99.7216 122.998 99.4236C122.873 99.1257 122.524 98.9867 122.226 99.1108Z" fill="black"/>
<path d="M98.5751 113.615L63.657 128.268C63.3583 128.392 63.2189 128.74 63.3434 129.037C63.4678 129.335 63.8164 129.474 64.1151 129.35L99.0332 114.697C99.3319 114.573 99.4713 114.225 99.3469 113.928C99.2224 113.63 98.8738 113.491 98.5751 113.615Z" fill="black"/>
<path d="M79.3462 37.8169C79.3462 37.8169 80.0183 43.0852 78.0516 43.9145C76.2542 44.6692 73.8891 41.8389 71.8228 42.7079C69.7565 43.5768 71.3847 51.0449 69.393 51.884C67.4014 52.7182 65.0015 49.6496 63.2837 50.3696C61.566 51.0896 62.6066 54.9328 60.8341 55.6777C59.3702 56.2934 57.279 53.2347 55.6061 52.5643C55.2525 52.4203 54.9189 52.3856 54.6102 52.5147C52.8576 53.2496 53.729 61.2787 52.2153 61.9093C51.7124 62.1228 51.2743 62.1576 50.871 62.1278C50.2735 62.0881 49.7457 61.9093 49.1632 61.9689C48.959 61.9888 48.7499 62.0384 48.5258 62.1328C47.2363 62.674 47.4105 66.8996 46.2305 67.3962C45.0505 67.8927 43.8854 67.277 42.6257 67.8083C41.366 68.3396 41.3859 70.5343 39.5088 71.3238L40.3054 73.2057L86.1674 53.9596" fill="#DBDEE4"/>
<path d="M79.3462 37.8169C79.3462 37.8169 80.0183 43.0852 78.0516 43.9145C76.2542 44.6692 73.8891 41.8389 71.8228 42.7079C69.7565 43.5768 71.3847 51.0449 69.393 51.884C67.4014 52.7182 65.0015 49.6496 63.2837 50.3696C61.566 51.0896 62.6066 54.9328 60.8341 55.6777C59.3702 56.2934 57.279 53.2347 55.6061 52.5643C55.2525 52.4203 54.9189 52.3856 54.6102 52.5147C52.8576 53.2496 53.729 61.2787 52.2153 61.9093C51.7124 62.1228 51.2743 62.1576 50.871 62.1278C50.2735 62.0881 49.7457 61.9093 49.1632 61.9689C48.959 61.9888 48.7499 62.0384 48.5258 62.1328C47.2363 62.674 47.4105 66.8996 46.2305 67.3962C45.0505 67.8927 43.8854 67.277 42.6257 67.8083C41.366 68.3396 41.3859 70.5343 39.5088 71.3238L40.3054 73.2057L86.1674 53.9596" stroke="black" stroke-width="0.5" stroke-miterlimit="10"/>
<path d="M82.3088 44.8379C82.3088 44.8379 82.727 47.3901 81.7163 47.8172C80.8748 48.1697 80.357 47.6781 79.4707 47.6483C79.1172 47.6334 78.704 47.693 78.1861 47.9115C77.3745 48.2492 77.1804 49.3416 77.036 50.5184C76.8567 51.9633 76.7671 53.5274 75.7066 53.9743C74.9647 54.2872 74.1631 54.1034 73.3365 53.8154C72.0221 53.3586 70.6329 52.6337 69.2985 53.1948C68.6513 53.4679 68.1982 54.168 67.8446 55.0369C67.0131 57.0877 66.7542 60.057 65.853 60.4344C64.5734 60.9707 62.2283 58.7759 61.0931 59.2526C59.9578 59.7293 60.4209 61.7006 59.4998 62.0879C58.5786 62.4752 58.0509 61.3332 56.4277 62.0134C54.8045 62.6937 55.5962 65.087 53.3058 66.0454C51.0155 67.0037 50.0147 65.241 47.799 66.1695C45.5833 67.0981 45.9866 68.7714 44.4282 69.4269C42.8697 70.0823 42.2075 68.9452 41.0922 69.412C40.0068 69.8688 39.713 71.6415 39.6931 71.7557L40.3055 73.2056L86.1675 53.9594" fill="#67C3EC"/>
<path d="M82.3088 44.8379C82.3088 44.8379 82.727 47.3901 81.7163 47.8172C80.8748 48.1697 80.357 47.6781 79.4707 47.6483C79.1172 47.6334 78.704 47.693 78.1861 47.9115C77.3745 48.2492 77.1804 49.3416 77.036 50.5184C76.8567 51.9633 76.7671 53.5274 75.7066 53.9743C74.9647 54.2872 74.1631 54.1034 73.3365 53.8154C72.0221 53.3586 70.6329 52.6337 69.2985 53.1948C68.6513 53.4679 68.1982 54.168 67.8446 55.0369C67.0131 57.0877 66.7542 60.057 65.853 60.4344C64.5734 60.9707 62.2283 58.7759 61.0931 59.2526C59.9578 59.7293 60.4209 61.7006 59.4998 62.0879C58.5786 62.4752 58.0509 61.3332 56.4277 62.0134C54.8045 62.6937 55.5962 65.087 53.3058 66.0454C51.0155 67.0037 50.0147 65.241 47.799 66.1695C45.5833 67.0981 45.9866 68.7714 44.4282 69.4269C42.8697 70.0823 42.2075 68.9452 41.0922 69.412C40.0068 69.8688 39.713 71.6415 39.6931 71.7557L40.3055 73.2056L86.1675 53.9594" stroke="black" stroke-width="0.5" stroke-miterlimit="10"/>
<path d="M31.0095 51.1987L40.2954 73.2007L88.3134 53.0508" stroke="black" stroke-width="0.5" stroke-linecap="round" stroke-linejoin="round"/>
<path d="M73.1871 61.9292L57.2342 68.6226C56.9355 68.7468 56.796 69.0943 56.9205 69.3923C57.045 69.6902 57.3935 69.8292 57.6923 69.7051L73.6451 63.0117C73.9439 62.8875 74.0833 62.5399 73.9588 62.242C73.8343 61.9441 73.4858 61.805 73.1871 61.9292Z" fill="black"/>
<path d="M85.1552 34.0021L83.6177 34.6472C83.4581 34.7142 83.3831 34.8976 83.4503 35.0569L84.0972 36.5901C84.1644 36.7494 84.3483 36.8241 84.508 36.7571L86.0454 36.112C86.2051 36.045 86.28 35.8616 86.2128 35.7023L85.5659 34.1691C85.4988 34.0099 85.3148 33.9351 85.1552 34.0021Z" fill="#DBDEE4" stroke="black" stroke-width="0.5" stroke-miterlimit="10"/>
<path d="M93.4916 31.4017L87.1184 34.0781C86.984 34.1327 86.8296 34.0731 86.7749 33.9391C86.7201 33.805 86.7798 33.6511 86.9143 33.5965L93.2875 30.9201C93.4219 30.8655 93.5762 30.925 93.631 31.0591C93.6858 31.1932 93.626 31.3471 93.4916 31.4017Z" fill="black"/>
<path d="M91.9929 33.2738L87.5615 35.1309C87.4271 35.1855 87.2728 35.1259 87.218 34.9918C87.1632 34.8578 87.223 34.7038 87.3574 34.6492L91.7888 32.7921C91.9232 32.7375 92.0775 32.7971 92.1323 32.9312C92.1871 33.0652 92.1273 33.2192 91.9929 33.2738Z" fill="black"/>
<path d="M87.151 38.7291L85.6136 39.3743C85.4539 39.4413 85.3789 39.6247 85.4461 39.7839L86.093 41.3172C86.1602 41.4764 86.3441 41.5512 86.5038 41.4842L88.0412 40.839C88.2009 40.772 88.2759 40.5886 88.2087 40.4294L87.5618 38.8962C87.4946 38.7369 87.3107 38.6621 87.151 38.7291Z" fill="#67C3EC" stroke="black" stroke-width="0.5" stroke-miterlimit="10"/>
<path d="M95.4884 36.1288L89.1152 38.8052C88.9808 38.8598 88.8265 38.8002 88.7717 38.6661C88.7169 38.5321 88.7767 38.3781 88.9111 38.3235L95.2843 35.6471C95.4187 35.5925 95.5731 35.6521 95.6278 35.7862C95.6826 35.9202 95.6229 36.0742 95.4884 36.1288Z" fill="black"/>
<path d="M93.9848 38.0008L89.5535 39.8579C89.419 39.9125 89.2647 39.853 89.2099 39.7189C89.1552 39.5848 89.2149 39.4309 89.3493 39.3763L93.7807 37.5192C93.9151 37.4646 94.0695 37.5242 94.1242 37.6582C94.179 37.7923 94.1193 37.9462 93.9848 38.0008Z" fill="black"/>
<path opacity="0.2" d="M67.1624 136.411L60.2564 139.311L47.2412 108.47C48.0578 107.696 49.0138 106.37 49.4171 104.215C50.1938 100.084 49.6461 86.8012 60.0175 85.4307C70.3838 84.0603 61.6406 107.318 62.1186 111.753C62.5568 115.79 68.4669 127.523 67.1624 136.411Z" fill="black"/>
</g>
<path d="M134.16 108.292L67.1623 136.411L60.2564 139.311L47.2411 108.471L17.0183 36.8537L90.9223 5.83447L134.16 108.292Z" stroke="black" stroke-width="0.5" stroke-linecap="round" stroke-linejoin="round"/>
<path d="M62.9899 113.436C64.1501 109.474 68.6909 96.7473 68.0984 91.1215C68.0437 90.615 67.9341 90.1582 67.7798 89.751C66.1865 85.5502 59.6739 85.9574 57.1694 89.4382C54.421 93.2665 52.1804 100.159 51.9862 104.349C51.8817 106.668 50.8859 108.794 50.0145 110.238C50.0145 110.248 50.0145 110.253 50.0046 110.258C49.3025 111.42 48.6851 112.125 48.6851 112.125L33.8227 76.96C33.8227 76.96 31.4228 78.8965 29.934 81.2898C29.3316 82.2482 28.8835 83.2909 28.7938 84.3039C28.4901 87.7648 24.5567 101.996 22.9186 108.004C22.8887 108.133 22.8489 108.252 22.819 108.371C21.2456 114.141 25.3981 135.572 24.2131 141.799C23.0231 148.021 22.2862 147.887 22.1169 152.306C21.9925 155.533 17.3619 165.345 12.1738 175.42C9.20128 181.195 6.03959 187.049 3.43555 191.791L41.4356 190.217C42.0929 185.614 42.77 180.753 43.3874 176.051C43.6414 174.114 44.0546 172.123 44.5226 170.236C45.3591 166.855 46.3848 163.801 47.0022 162.013C47.9731 159.223 48.9839 154.019 48.9839 154.019C53.4053 149.351 59.2009 142.022 60.8788 137.052C60.8788 137.042 60.8888 137.027 60.8888 137.017C61.312 135.761 61.4664 134.659 61.2672 133.795C61.0979 133.08 61.0083 132.151 60.9684 131.083C60.9684 131.083 60.9684 131.08 60.9684 131.074C60.7743 125.696 62.0091 116.743 62.985 113.441L62.9899 113.436Z" fill="white"/>
<path d="M9.22119 181.329C13.9861 172.644 18.6216 163.712 21.9576 154.079C22.3559 152.693 21.8232 150.891 22.2265 149.505C26.7425 136.992 21.619 123.968 22.4605 111.157C23.1675 106.107 24.7857 101.018 26.4039 95.933C27.1657 92.2486 27.4545 88.1322 28.6694 84.428C29.9241 81.6374 31.1639 78.39 33.8326 76.96C38.9113 88.5692 43.9749 100.223 48.6951 112.125C50.8261 110.894 51.1697 108.143 51.5331 105.844C52.6783 100.317 53.8384 95.2527 55.9346 90.6001C58.0656 86.8611 63.4928 85.2672 66.8238 88.3209C67.7748 89.1949 68.2876 90.5405 68.3474 91.911C67.7001 98.3263 65.6786 104.801 63.6422 110.819C62.8406 113.59 62.024 115.909 61.6804 118.66C61.7203 119.574 61.7352 120.025 61.775 120.939C60.595 125.552 61.6804 129.614 61.4116 134.192C60.3809 142.449 53.7588 148.204 48.9789 154.332C47.7989 158.945 46.6188 163.558 44.9807 168.19C42.9791 175.122 42.3518 181.994 41.6696 188.673" stroke="black" stroke-width="0.5" stroke-linecap="round" stroke-linejoin="round"/>
<path d="M48.695 112.121C48.695 112.121 47.1316 115.115 46.5092 117.548C45.8868 119.981 42.7351 119.628 41.1069 121.143" stroke="black" stroke-width="0.5" stroke-linecap="round" stroke-linejoin="round"/>
<path d="M36.8052 107.835C36.8052 107.835 41.0921 109.345 43.5866 111.286C46.0811 113.228 47.9284 113.705 47.9284 113.705" stroke="black" stroke-width="0.5" stroke-linecap="round" stroke-linejoin="round"/>
<path d="M34.0715 97.2342C34.0715 97.2342 37.532 98.2024 40.0962 96.9859C40.0962 96.9859 40.2854 94.8706 40.7484 93.3164" stroke="black" stroke-width="0.5" stroke-linecap="round" stroke-linejoin="round"/>
<path d="M40.9229 97.4873C40.9229 97.4873 40.9577 97.969 42.7253 97.9888" stroke="black" stroke-width="0.5" stroke-linecap="round" stroke-linejoin="round"/>
<path d="M48.9889 154.014C48.9889 154.014 45.6131 157.068 43.5518 162.57" stroke="black" stroke-width="0.5" stroke-linecap="round" stroke-linejoin="round"/>
<path d="M22.6248 109.429C22.4705 112.404 25.9707 122.975 27.0363 128.223C28.1018 133.477 28.4951 137.191 28.4951 137.191" stroke="black" stroke-width="0.5" stroke-linecap="round" stroke-linejoin="round"/>
</g>
<defs>
<clipPath id="clip0_1_1102">
<rect width="221" height="202" fill="white"/>
</clipPath>
<clipPath id="clip1_1_1102">
<rect width="122" height="82" fill="white" transform="translate(94 25)"/>
</clipPath>
</defs>
</svg>
