<svg width="181" height="181" viewBox="0 0 181 181" fill="none" xmlns="http://www.w3.org/2000/svg">
<g clip-path="url(#clip0_1_1267)">
<path d="M27.4903 180.335C26.7713 180.335 26.0512 180.177 25.5033 179.861L4.29412 167.588C4.20965 167.539 4.18115 167.43 4.22972 167.346C4.27828 167.261 4.38809 167.233 4.4715 167.282L25.6807 179.555C26.6805 180.131 28.3033 180.132 29.2958 179.555L42.6402 171.808C42.7246 171.759 42.8323 171.787 42.8819 171.872C42.9305 171.956 42.9031 172.064 42.8186 172.114L29.4742 179.861C28.9283 180.177 28.2104 180.335 27.4914 180.335H27.4903Z" fill="#006FBA"/>
<path d="M167.48 139.007C167.451 139.007 167.42 138.999 167.393 138.984L139.053 122.743C138.052 122.166 136.43 122.166 135.438 122.743L122.093 130.491C122.009 130.539 121.9 130.511 121.851 130.426C121.803 130.342 121.83 130.234 121.915 130.185L135.259 122.438C136.352 121.805 138.132 121.805 139.229 122.438L167.568 138.677C167.652 138.725 167.682 138.833 167.633 138.917C167.601 138.974 167.541 139.006 167.48 139.006V139.007Z" fill="#006FBA"/>
<path d="M88.6755 178.9C87.8224 178.9 86.9683 178.712 86.3158 178.336L70.2621 169.077C70.1777 169.029 70.1492 168.921 70.1977 168.837C70.2474 168.751 70.3561 168.723 70.4395 168.772L86.4931 178.031C87.6978 178.725 89.6511 178.726 90.8484 178.031L137.629 153.244C137.716 153.199 137.823 153.231 137.868 153.317C137.913 153.403 137.881 153.51 137.795 153.555L91.0205 178.34C90.3775 178.713 89.5275 178.901 88.6766 178.901L88.6755 178.9Z" fill="#006FBA"/>
<g opacity="0.1">
<path d="M68.2731 137.64C67.1308 138.298 67.1255 139.364 68.2552 140.02L96.3768 156.347C97.5065 157.003 99.3478 157.003 100.49 156.344L128.791 140.02C129.934 139.362 129.939 138.296 128.809 137.64L100.688 121.313C99.5579 120.657 97.7166 120.657 96.5742 121.315L68.2731 137.639V137.64Z" fill="black"/>
</g>
<path d="M128.131 135.232C128.131 135.67 127.847 136.108 127.271 136.43L98.972 152.761C98.4188 153.076 97.704 153.237 96.9892 153.253C96.2206 153.26 95.4446 153.099 94.8522 152.761L66.7307 136.43C66.1774 136.116 65.8924 135.686 65.8924 135.255L65.8691 120.836C65.8691 121.266 66.1532 121.688 66.7148 122.011L94.8364 138.342C95.4203 138.679 96.2121 138.84 96.9881 138.826C97.6955 138.81 98.4019 138.65 98.9477 138.342L127.247 122.011C127.823 121.681 128.107 121.25 128.107 120.812L128.13 135.232H128.131Z" fill="#F1F2F5"/>
<path d="M96.9385 153.43C96.1171 153.43 95.3474 153.247 94.7656 152.914L66.642 136.583C66.0549 136.249 65.7171 135.765 65.7171 135.256L65.6938 120.84V120.838C65.6938 120.739 65.773 120.659 65.8702 120.659C65.9673 120.659 66.0465 120.739 66.0465 120.836V120.839C66.0475 121.216 66.3168 121.578 66.8035 121.858L94.9261 138.188C95.4572 138.496 96.2195 138.666 96.985 138.648C97.6934 138.633 98.3607 138.469 98.8611 138.187L127.158 121.858C127.657 121.572 127.931 121.202 127.931 120.812C127.931 120.715 128.01 120.636 128.107 120.636C128.204 120.636 128.283 120.715 128.283 120.812L128.307 135.232C128.307 135.753 127.96 136.246 127.355 136.584L99.0586 152.914C98.5043 153.229 97.7705 153.413 96.9913 153.43C96.9723 153.43 96.9543 153.43 96.9364 153.43H96.9385ZM66.0486 121.705L66.0697 135.254C66.0697 135.633 66.3421 136.005 66.8183 136.276L94.942 152.608C95.4825 152.917 96.2184 153.1 96.9871 153.075C97.7061 153.06 98.3807 152.893 98.8844 152.607L127.182 136.277C127.682 135.998 127.954 135.628 127.954 135.232L127.933 121.688C127.78 121.863 127.579 122.024 127.334 122.164L99.0375 138.494C98.4842 138.806 97.7599 138.985 96.9934 139.002C96.1487 139.014 95.3347 138.833 94.7498 138.494L66.6272 122.164C66.3917 122.029 66.1975 121.873 66.0486 121.705Z" fill="black"/>
<path d="M96.9892 153.253C96.2206 153.26 95.4446 153.099 94.8522 152.761L66.7307 136.431C66.1774 136.116 65.8924 135.686 65.8924 135.256L65.8691 120.836C65.8691 121.266 66.1532 121.688 66.7148 122.011L94.8364 138.342C95.4203 138.679 96.2121 138.841 96.9882 138.826" fill="#BEC4CD"/>
<path d="M96.9364 153.43C96.1171 153.43 95.3474 153.247 94.7656 152.914L66.642 136.583C66.0549 136.249 65.7171 135.765 65.7171 135.256L65.6938 120.841V120.838C65.6938 120.74 65.773 120.661 65.8702 120.661C65.9673 120.661 66.0465 120.74 66.0465 120.837V120.84C66.0475 121.218 66.3168 121.579 66.8035 121.859L94.9261 138.19C95.4572 138.498 96.2195 138.668 96.985 138.65C97.0926 138.654 97.1634 138.726 97.1655 138.823C97.1676 138.92 97.0895 139.001 96.9923 139.003C96.135 139.013 95.3337 138.834 94.7487 138.496L66.6261 122.165C66.3907 122.03 66.1964 121.875 66.0475 121.706L66.0687 135.255C66.0687 135.634 66.3411 136.006 66.8172 136.277L94.9409 152.609C95.4815 152.918 96.2174 153.101 96.986 153.077H96.9881C97.0853 153.077 97.1644 153.155 97.1644 153.252C97.1644 153.349 97.0874 153.429 96.9902 153.43C96.9712 153.43 96.9533 153.43 96.9353 153.43H96.9364Z" fill="black"/>
<path d="M111.951 141.377C111.89 141.377 111.831 141.345 111.798 141.288C111.75 141.204 111.779 141.096 111.862 141.048L124.511 133.75C124.593 133.701 124.702 133.729 124.753 133.814C124.801 133.899 124.772 134.006 124.688 134.055L112.04 141.353C112.012 141.368 111.982 141.377 111.951 141.377Z" fill="black"/>
<path d="M101.095 147.975C100.998 147.975 100.919 147.895 100.919 147.798V141.506C100.919 141.409 100.998 141.33 101.095 141.33C101.192 141.33 101.272 141.409 101.272 141.506V147.798C101.272 147.895 101.192 147.975 101.095 147.975Z" fill="black"/>
<path d="M103.479 146.599C103.382 146.599 103.303 146.52 103.303 146.423V140.13C103.303 140.033 103.382 139.954 103.479 139.954C103.576 139.954 103.656 140.033 103.656 140.13V146.423C103.656 146.52 103.576 146.599 103.479 146.599Z" fill="black"/>
<path d="M105.863 145.223C105.766 145.223 105.687 145.144 105.687 145.046V138.754C105.687 138.657 105.766 138.578 105.863 138.578C105.96 138.578 106.04 138.657 106.04 138.754V145.046C106.04 145.144 105.96 145.223 105.863 145.223Z" fill="black"/>
<path d="M66.7297 119.632C65.5873 120.29 65.582 121.357 66.7117 122.013L94.8333 138.339C95.963 138.996 97.8043 138.996 98.9467 138.336L127.248 122.013C128.39 121.355 128.395 120.288 127.266 119.632L99.1442 103.306C98.0145 102.65 96.1731 102.65 95.0307 103.309L66.7297 119.632Z" fill="white"/>
<path d="M96.8825 139.004C96.1065 139.004 95.3326 138.833 94.7435 138.491L66.6219 122.165C66.0211 121.815 65.6907 121.341 65.6907 120.828C65.6907 120.31 66.0285 119.831 66.6398 119.479L94.9409 103.156C96.1287 102.471 98.0524 102.469 99.2317 103.153L127.353 119.479C127.954 119.828 128.285 120.302 128.283 120.816C128.283 121.333 127.946 121.812 127.334 122.165L99.0332 138.488C98.4388 138.832 97.6596 139.003 96.8815 139.003L96.8825 139.004ZM97.0948 102.99C96.381 102.99 95.6652 103.147 95.1193 103.463L66.8183 119.786C66.321 120.073 66.0465 120.444 66.0454 120.83C66.0454 121.212 66.3136 121.578 66.8014 121.861L94.9229 138.187C96.002 138.815 97.7684 138.814 98.858 138.184L127.159 121.861C127.656 121.574 127.931 121.203 127.931 120.817C127.931 120.435 127.663 120.069 127.176 119.786L99.0543 103.459C98.5159 103.146 97.8053 102.99 97.0937 102.99H97.0948Z" fill="black"/>
<path d="M123.435 127.959C124.231 127.5 124.88 127.869 124.882 128.779C124.884 129.693 124.241 130.806 123.445 131.266C122.654 131.723 122.006 131.354 122.002 130.44C122 129.529 122.643 128.415 123.435 127.959Z" fill="#BEC4CD"/>
<path d="M118.301 130.921C119.097 130.463 119.745 130.832 119.747 131.742C119.749 132.655 119.106 133.769 118.31 134.229C117.519 134.686 116.871 134.317 116.868 133.403C116.866 132.492 117.509 131.378 118.301 130.921Z" fill="#BEC4CD"/>
<path d="M113.166 133.884C113.962 133.425 114.611 133.794 114.613 134.704C114.615 135.618 113.972 136.732 113.176 137.192C112.385 137.648 111.737 137.279 111.734 136.366C111.732 135.454 112.375 134.341 113.166 133.884Z" fill="#BEC4CD"/>
<path d="M81.1648 121.033L96.889 130.162L112.726 121.027L97.003 111.899L81.1648 121.033Z" fill="white"/>
<path d="M96.889 130.338C96.8584 130.338 96.8277 130.33 96.8003 130.314L81.0771 121.186C81.0222 121.154 80.9895 121.096 80.9895 121.033C80.9895 120.97 81.0233 120.912 81.0782 120.881L96.9164 111.746C96.9713 111.714 97.0389 111.714 97.0938 111.746L112.817 120.875C112.872 120.906 112.905 120.965 112.905 121.028C112.905 121.091 112.871 121.149 112.816 121.18L96.9777 130.315C96.9502 130.331 96.9196 130.339 96.889 130.339V130.338ZM81.5174 121.034L96.8879 129.958L112.374 121.028L97.003 112.103L81.5174 121.035V121.034Z" fill="black"/>
<path d="M112.723 121.027L109.89 122.66L97.0072 115.174L83.9944 122.676L81.1616 121.035L97.0072 111.899L112.723 121.027Z" fill="#BEC4CD"/>
<path d="M83.9932 122.852C83.9626 122.852 83.932 122.844 83.9045 122.828L81.0728 121.187C81.0179 121.155 80.9841 121.097 80.9841 121.034C80.9841 120.971 81.0179 120.913 81.0728 120.882L96.9184 111.747C96.9733 111.715 97.0409 111.715 97.0958 111.747L112.811 120.875C112.865 120.906 112.898 120.964 112.898 121.028C112.898 121.091 112.864 121.149 112.809 121.18L109.978 122.812C109.923 122.844 109.855 122.844 109.8 122.812L97.0061 115.377L84.0819 122.828C84.0544 122.844 84.0238 122.852 83.9932 122.852ZM81.5141 121.035L83.9932 122.472L96.9184 115.021C96.9733 114.989 97.0409 114.989 97.0958 115.021L109.89 122.456L112.369 121.027L97.0071 112.103L81.5141 121.035Z" fill="black"/>
<path d="M97.0072 115.174L83.9944 122.676L81.1616 121.035L97.0072 111.899V115.174Z" fill="#BEC4CD"/>
<path d="M83.9932 122.852C83.9626 122.852 83.932 122.844 83.9045 122.828L81.0728 121.187C81.0179 121.155 80.9841 121.097 80.9841 121.034C80.9841 120.971 81.0179 120.913 81.0728 120.882L96.9184 111.747C96.9734 111.715 97.0399 111.715 97.0948 111.747C97.1497 111.779 97.1835 111.837 97.1835 111.9V115.174C97.1835 115.237 97.1497 115.295 97.0948 115.327L84.0808 122.829C84.0534 122.845 84.0228 122.854 83.9921 122.854L83.9932 122.852ZM81.5141 121.035L83.9932 122.472L96.8298 115.071V112.205L81.5131 121.035H81.5141Z" fill="black"/>
<path d="M128.131 115.468C128.131 115.906 127.847 116.343 127.271 116.666L98.972 132.997C98.4188 133.311 97.704 133.473 96.9892 133.489C96.2206 133.496 95.4446 133.335 94.8522 132.997L66.7307 116.666C66.1774 116.352 65.8924 115.922 65.8924 115.491L65.8691 101.072C65.8691 101.502 66.1532 101.924 66.7148 102.247L94.8364 118.577C95.4203 118.915 96.2121 119.076 96.9881 119.062C97.6955 119.046 98.4019 118.885 98.9477 118.577L127.247 102.247C127.823 101.916 128.107 101.486 128.107 101.048L128.13 115.468H128.131Z" fill="#F1F2F5"/>
<path d="M96.9385 133.666C96.1171 133.666 95.3474 133.483 94.7656 133.151L66.642 116.819C66.0549 116.485 65.7171 116 65.7171 115.492L65.6938 101.077V101.075C65.6938 100.975 65.773 100.896 65.8702 100.896C65.9673 100.896 66.0465 100.975 66.0465 101.072V101.076C66.0475 101.453 66.3168 101.815 66.8035 102.094L94.9261 118.425C95.4572 118.733 96.2163 118.903 96.985 118.885C97.6945 118.869 98.3607 118.706 98.8611 118.424L127.158 102.094C127.657 101.809 127.931 101.437 127.931 101.049C127.931 100.952 128.01 100.873 128.107 100.873C128.204 100.873 128.283 100.952 128.283 101.049L128.307 115.469C128.307 115.99 127.96 116.482 127.355 116.821L99.0586 133.151C98.5043 133.466 97.7705 133.649 96.9913 133.666C96.9723 133.666 96.9543 133.666 96.9364 133.666H96.9385ZM66.0486 101.94L66.0697 115.49C66.0697 115.869 66.3421 116.241 66.8183 116.512L94.942 132.844C95.4825 133.153 96.2227 133.326 96.9871 133.311C97.7071 133.295 98.3807 133.129 98.8844 132.843L127.182 116.512C127.682 116.232 127.954 115.862 127.954 115.467L127.933 101.923C127.78 102.098 127.579 102.259 127.334 102.398L99.0375 118.729C98.4853 119.039 97.7599 119.22 96.9934 119.236C96.1487 119.246 95.3347 119.068 94.7498 118.729L66.6272 102.398C66.3917 102.263 66.1975 102.108 66.0486 101.939V101.94Z" fill="black"/>
<path d="M96.9892 133.489C96.2206 133.496 95.4446 133.335 94.8522 132.997L66.7307 116.666C66.1774 116.352 65.8924 115.922 65.8924 115.491L65.8691 101.072C65.8691 101.502 66.1532 101.924 66.7148 102.247L94.8364 118.578C95.4203 118.915 96.2121 119.077 96.9882 119.062" fill="#BEC4CD"/>
<path d="M96.9364 133.666C96.1171 133.666 95.3474 133.483 94.7656 133.151L66.642 116.819C66.0549 116.485 65.7171 116.001 65.7171 115.492L65.6938 101.077V101.074C65.6938 100.976 65.773 100.896 65.8702 100.896C65.9673 100.896 66.0465 100.976 66.0465 101.073V101.076C66.0475 101.453 66.3168 101.815 66.8035 102.095L94.9261 118.426C95.4572 118.734 96.2163 118.903 96.985 118.885C97.0926 118.897 97.1634 118.961 97.1655 119.058C97.1676 119.155 97.0895 119.237 96.9923 119.239C96.135 119.252 95.3337 119.07 94.7487 118.731L66.6261 102.401C66.3907 102.266 66.1964 102.111 66.0475 101.942L66.0687 115.491C66.0687 115.87 66.3411 116.242 66.8172 116.513L94.9409 132.845C95.4815 133.154 96.2216 133.327 96.986 133.312H96.9881C97.0853 133.312 97.1644 133.39 97.1644 133.488C97.1644 133.585 97.0874 133.665 96.9902 133.666C96.9712 133.666 96.9533 133.666 96.9353 133.666H96.9364Z" fill="black"/>
<path d="M111.951 121.613C111.89 121.613 111.831 121.581 111.798 121.524C111.75 121.44 111.779 121.332 111.862 121.284L124.511 113.986C124.593 113.937 124.702 113.965 124.753 114.05C124.801 114.135 124.772 114.242 124.688 114.291L112.04 121.588C112.012 121.604 111.982 121.613 111.951 121.613Z" fill="black"/>
<path d="M101.095 128.21C100.998 128.21 100.919 128.131 100.919 128.034V121.742C100.919 121.645 100.998 121.565 101.095 121.565C101.192 121.565 101.272 121.645 101.272 121.742V128.034C101.272 128.131 101.192 128.21 101.095 128.21Z" fill="black"/>
<path d="M103.479 126.835C103.382 126.835 103.303 126.756 103.303 126.659V120.366C103.303 120.269 103.382 120.19 103.479 120.19C103.576 120.19 103.656 120.269 103.656 120.366V126.659C103.656 126.756 103.576 126.835 103.479 126.835Z" fill="black"/>
<path d="M105.863 125.458C105.766 125.458 105.687 125.379 105.687 125.282V118.99C105.687 118.893 105.766 118.813 105.863 118.813C105.96 118.813 106.04 118.893 106.04 118.99V125.282C106.04 125.379 105.96 125.458 105.863 125.458Z" fill="black"/>
<path d="M66.7297 99.869C65.5873 100.527 65.582 101.594 66.7117 102.25L94.8333 118.576C95.963 119.232 97.8043 119.232 98.9467 118.573L127.248 102.25C128.39 101.591 128.395 100.525 127.266 99.87L99.1442 83.5434C98.0145 82.8873 96.1731 82.8873 95.0307 83.5466L66.7297 99.87V99.869Z" fill="white"/>
<path d="M96.8825 119.24C96.1065 119.24 95.3326 119.069 94.7435 118.727L66.6219 102.4C66.0211 102.051 65.6907 101.577 65.6907 101.064C65.6907 100.546 66.0285 100.067 66.6398 99.7149L94.9409 83.3914C96.1287 82.7058 98.0534 82.7058 99.2317 83.3893L127.353 99.7159C127.954 100.065 128.285 100.54 128.283 101.052C128.283 101.57 127.946 102.049 127.334 102.401L99.0332 118.725C98.4388 119.068 97.6596 119.24 96.8815 119.24H96.8825ZM66.8183 100.021C66.321 100.308 66.0465 100.679 66.0454 101.065C66.0454 101.447 66.3136 101.813 66.8014 102.095L94.9229 118.422C96.003 119.05 97.7684 119.048 98.858 118.42L127.159 102.097C127.656 101.81 127.931 101.438 127.931 101.052C127.931 100.67 127.663 100.304 127.176 100.022L99.0543 83.6952C97.9753 83.0687 96.2089 83.0687 95.1183 83.6973L66.8172 100.021H66.8183Z" fill="black"/>
<path d="M123.435 108.194C124.231 107.735 124.88 108.104 124.882 109.014C124.884 109.928 124.241 111.042 123.445 111.502C122.654 111.958 122.006 111.589 122.002 110.676C122 109.764 122.643 108.651 123.435 108.194Z" fill="#67C3EC"/>
<path d="M118.301 111.157C119.097 110.698 119.745 111.067 119.747 111.977C119.749 112.891 119.106 114.005 118.31 114.464C117.519 114.921 116.871 114.552 116.868 113.639C116.866 112.727 117.509 111.613 118.301 111.157Z" fill="#67C3EC"/>
<path d="M113.166 114.12C113.962 113.661 114.611 114.03 114.613 114.94C114.615 115.854 113.972 116.968 113.176 117.427C112.385 117.884 111.737 117.515 111.734 116.601C111.732 115.69 112.375 114.576 113.166 114.12Z" fill="#67C3EC"/>
<path d="M81.1648 101.268L96.889 110.397L112.726 101.262L97.003 92.1343L81.1648 101.268Z" fill="white"/>
<path d="M96.889 110.574C96.8584 110.574 96.8277 110.565 96.8003 110.549L81.0771 101.421C81.0222 101.39 80.9895 101.332 80.9895 101.268C80.9895 101.205 81.0233 101.147 81.0782 101.117L96.9164 91.9813C96.9713 91.9496 97.0389 91.9496 97.0938 91.9813L112.817 101.109C112.872 101.141 112.905 101.199 112.905 101.262C112.905 101.325 112.871 101.383 112.816 101.414L96.9777 110.549C96.9502 110.565 96.9196 110.574 96.889 110.574ZM81.5174 101.269L96.8879 110.194L112.374 101.263L97.003 92.3388L81.5174 101.269Z" fill="black"/>
<path d="M112.723 101.262L109.89 102.895L97.0072 95.4092L83.9944 102.912L81.1616 101.271L97.0072 92.1353L112.723 101.262Z" fill="#BEC4CD"/>
<path d="M83.9932 103.088C83.9626 103.088 83.932 103.079 83.9045 103.064L81.0728 101.422C81.0179 101.391 80.9841 101.333 80.9841 101.269C80.9841 101.206 81.0179 101.148 81.0728 101.118L96.9184 91.9822C96.9733 91.9506 97.0409 91.9506 97.0958 91.9822L112.811 101.11C112.865 101.142 112.898 101.2 112.898 101.263C112.898 101.326 112.864 101.384 112.809 101.415L109.978 103.048C109.923 103.079 109.855 103.079 109.8 103.048L97.0061 95.6127L84.0819 103.064C84.0544 103.079 84.0238 103.088 83.9932 103.088ZM81.5141 101.27L83.9932 102.707L96.9184 95.2562C96.9733 95.2246 97.0409 95.2246 97.0958 95.2562L109.89 102.691L112.369 101.261L97.0071 92.3377L81.5141 101.269V101.27Z" fill="black"/>
<path d="M97.0072 95.4092L83.9944 102.912L81.1616 101.271L97.0072 92.1353V95.4092Z" fill="#BEC4CD"/>
<path d="M83.9932 103.088C83.9626 103.088 83.932 103.079 83.9045 103.064L81.0728 101.422C81.0179 101.391 80.9841 101.333 80.9841 101.269C80.9841 101.206 81.0179 101.148 81.0728 101.118L96.9184 91.9822C96.9734 91.9506 97.0399 91.9506 97.0948 91.9822C97.1497 92.0139 97.1835 92.0719 97.1835 92.1352V95.4091C97.1835 95.4724 97.1497 95.5304 97.0948 95.5621L84.0808 103.065C84.0534 103.08 84.0228 103.089 83.9921 103.089L83.9932 103.088ZM81.5141 101.27L83.9932 102.707L96.8298 95.3068V92.44L81.5131 101.27H81.5141Z" fill="black"/>
<path d="M128.131 95.7038C128.131 96.1415 127.847 96.5793 127.271 96.902L98.972 113.233C98.4188 113.547 97.704 113.709 96.9892 113.724C96.2206 113.732 95.4446 113.57 94.8522 113.233L66.7307 96.902C66.1774 96.5877 65.8924 96.1573 65.8924 95.727L65.8691 81.3074C65.8691 81.7377 66.1532 82.1596 66.7148 82.4824L94.8364 98.8132C95.4203 99.1508 96.2121 99.3121 96.9881 99.2974C97.6955 99.2815 98.4019 99.1212 98.9477 98.8132L127.247 82.4824C127.823 82.1522 128.107 81.7219 128.107 81.2842L128.13 95.7038H128.131Z" fill="#F1F2F5"/>
<path d="M96.9354 113.9C96.1161 113.9 95.3475 113.718 94.7647 113.386L66.641 97.0549C66.054 96.7205 65.7161 96.2364 65.7161 95.727L65.6929 81.3105V81.3084C65.6929 81.2092 65.7721 81.1301 65.8692 81.1301C65.9663 81.1301 66.0455 81.2092 66.0455 81.3063V81.3094C66.0466 81.687 66.3158 82.0488 66.8025 82.3283L94.9251 98.6592C95.4562 98.9672 96.2175 99.1359 96.984 99.1191C97.6924 99.1043 98.3597 98.9398 98.8602 98.6581L127.157 82.3283C127.656 82.0425 127.93 81.6712 127.93 81.2831C127.93 81.186 128.009 81.1069 128.106 81.1069C128.203 81.1069 128.282 81.186 128.282 81.2831L128.306 95.7027C128.306 96.2238 127.959 96.7163 127.354 97.0549L99.0576 113.385C98.5033 113.7 97.7684 113.884 96.9903 113.899C96.9713 113.899 96.9523 113.899 96.9333 113.899L96.9354 113.9ZM66.0487 82.1775L66.0698 95.727C66.0698 96.1056 66.3422 96.478 66.8184 96.749L94.942 113.081C95.4837 113.39 96.2175 113.566 96.9871 113.548C97.7062 113.533 98.3808 113.367 98.8844 113.08L127.182 96.7501C127.682 96.4706 127.954 96.1003 127.954 95.7048L127.933 82.1606C127.78 82.3357 127.579 82.4971 127.334 82.6363L99.0375 98.9672C98.4843 99.2783 97.76 99.4576 96.9924 99.4745C96.9576 99.4745 96.9227 99.4745 96.8879 99.4745C96.0855 99.4745 95.3116 99.291 94.7499 98.9661L66.6273 82.6353C66.3918 82.5003 66.1975 82.3452 66.0487 82.1765V82.1775Z" fill="black"/>
<path d="M96.9892 113.725C96.2206 113.732 95.4446 113.571 94.8522 113.233L66.7307 96.9022C66.1774 96.5879 65.8924 96.1576 65.8924 95.7272L65.8691 81.3076C65.8691 81.738 66.1532 82.1599 66.7148 82.4826L94.8364 98.8135C95.4203 99.151 96.2121 99.3124 96.9882 99.2976" fill="#BEC4CD"/>
<path d="M96.9343 113.901C96.116 113.901 95.3474 113.718 94.7656 113.386L66.642 97.0551C66.0549 96.7207 65.7171 96.2366 65.7171 95.7271L65.6938 81.3117V81.3085C65.6938 81.2105 65.773 81.1313 65.8702 81.1313C65.9673 81.1313 66.0465 81.2105 66.0465 81.3075V81.3107C66.0475 81.6883 66.3168 82.05 66.8035 82.3296L94.9261 98.6604C95.4572 98.9684 96.2184 99.1372 96.985 99.1203C97.0926 99.115 97.1634 99.1962 97.1655 99.2933C97.1676 99.3903 97.0895 99.4715 96.9923 99.4736C96.1403 99.4884 95.3347 99.3049 94.7487 98.9663L66.6261 82.6354C66.3907 82.5004 66.1964 82.3454 66.0475 82.1766L66.0687 95.7261C66.0687 96.1047 66.3411 96.4771 66.8172 96.7481L94.9409 113.08C95.4825 113.389 96.2163 113.565 96.986 113.547H96.9881C97.0853 113.547 97.1644 113.625 97.1644 113.722C97.1644 113.819 97.0874 113.9 96.9902 113.901C96.9712 113.901 96.9522 113.901 96.9332 113.901H96.9343Z" fill="black"/>
<path d="M111.951 101.849C111.89 101.849 111.831 101.817 111.798 101.76C111.75 101.676 111.779 101.568 111.862 101.52L124.511 94.2216C124.593 94.1731 124.702 94.2005 124.753 94.286C124.801 94.3703 124.772 94.4779 124.688 94.5265L112.04 101.824C112.012 101.84 111.982 101.849 111.951 101.849Z" fill="black"/>
<path d="M101.095 108.446C100.998 108.446 100.919 108.367 100.919 108.27V101.977C100.919 101.88 100.998 101.801 101.095 101.801C101.192 101.801 101.272 101.88 101.272 101.977V108.27C101.272 108.367 101.192 108.446 101.095 108.446Z" fill="black"/>
<path d="M103.479 107.071C103.382 107.071 103.303 106.992 103.303 106.895V100.602C103.303 100.505 103.382 100.426 103.479 100.426C103.576 100.426 103.656 100.505 103.656 100.602V106.895C103.656 106.992 103.576 107.071 103.479 107.071Z" fill="black"/>
<path d="M105.863 105.695C105.766 105.695 105.687 105.616 105.687 105.519V99.2264C105.687 99.1294 105.766 99.0503 105.863 99.0503C105.96 99.0503 106.04 99.1294 106.04 99.2264V105.519C106.04 105.616 105.96 105.695 105.863 105.695Z" fill="black"/>
<path d="M66.7297 80.1048C65.5873 80.763 65.582 81.8294 66.7117 82.4854L94.8333 98.8121C95.963 99.4681 97.8043 99.4681 98.9467 98.8089L127.248 82.4854C128.39 81.8273 128.395 80.7609 127.266 80.1059L99.1442 63.7792C98.0145 63.1232 96.1731 63.1232 95.0307 63.7824L66.7297 80.1059V80.1048Z" fill="white"/>
<path d="M96.8825 99.4755C96.1065 99.4755 95.3326 99.3046 94.7435 98.9629L66.6219 82.6363C66.0211 82.2871 65.6907 81.8125 65.6907 81.2999C65.6907 80.782 66.0285 80.3031 66.6398 79.9509L94.9409 63.6274C96.1287 62.9428 98.0524 62.9407 99.2317 63.6242L127.353 79.9509C127.954 80.3 128.285 80.7746 128.283 81.2872C128.283 81.8051 127.946 82.284 127.334 82.6363L99.0332 98.9597C98.4388 99.3036 97.6596 99.4745 96.8815 99.4745L96.8825 99.4755ZM97.0948 63.4618C96.381 63.4618 95.6652 63.6189 95.1193 63.9343L66.8183 80.2578C66.321 80.5447 66.0465 80.916 66.0454 81.302C66.0454 81.6838 66.3136 82.0498 66.8014 82.3325L94.9229 98.6591C96.002 99.2867 97.7684 99.2857 98.858 98.656L127.159 82.3325C127.656 82.0456 127.931 81.6743 127.931 81.2883C127.931 80.9065 127.664 80.5405 127.176 80.2578L99.0543 63.9312C98.5159 63.6179 97.8053 63.4618 97.0937 63.4618H97.0948Z" fill="black"/>
<path d="M123.435 88.4302C124.231 87.9714 124.88 88.3405 124.882 89.2508C124.884 90.1642 124.241 91.278 123.445 91.7379C122.654 92.1946 122.006 91.8255 122.002 90.912C122 90.0007 122.643 88.8869 123.435 88.4302Z" fill="#BEC4CD"/>
<path d="M118.301 91.3931C119.097 90.9343 119.745 91.3034 119.747 92.2137C119.749 93.1271 119.106 94.2409 118.31 94.7008C117.519 95.1575 116.871 94.7884 116.868 93.8749C116.866 92.9636 117.509 91.8498 118.301 91.3931Z" fill="#BEC4CD"/>
<path d="M113.166 94.3555C113.962 93.8967 114.611 94.2658 114.613 95.1761C114.615 96.0895 113.972 97.2033 113.176 97.6632C112.385 98.1199 111.737 97.7508 111.734 96.8373C111.732 95.926 112.375 94.8122 113.166 94.3555Z" fill="#BEC4CD"/>
<path d="M81.1648 81.5048L96.889 90.6338L112.726 81.4985L97.003 72.3706L81.1648 81.5048Z" fill="#67C3EC"/>
<path d="M96.889 90.8098C96.8584 90.8098 96.8277 90.8014 96.8003 90.7856L81.0771 81.6577C81.0222 81.626 80.9895 81.568 80.9895 81.5047C80.9895 81.4415 81.0233 81.3834 81.0782 81.3529L96.9164 72.2176C96.9713 72.1859 97.0389 72.1859 97.0938 72.2176L112.817 81.3455C112.872 81.3771 112.905 81.4351 112.905 81.4984C112.905 81.5617 112.871 81.6197 112.816 81.6503L96.9777 90.7856C96.9502 90.8014 96.9196 90.8098 96.889 90.8098ZM81.5174 81.5058L96.8879 90.4301L112.374 81.4984L97.003 72.5741L81.5174 81.5058Z" fill="black"/>
<path d="M112.723 81.4984L109.89 83.1312L97.0072 75.6456L83.9944 83.1481L81.1616 81.5069L97.0072 72.3716L112.723 81.4984Z" fill="black"/>
<path d="M83.9932 83.3241C83.9626 83.3241 83.932 83.3157 83.9045 83.2999L81.0728 81.6587C81.0179 81.627 80.9841 81.569 80.9841 81.5057C80.9841 81.4424 81.0179 81.3844 81.0728 81.3538L96.9184 72.2186C96.9733 72.1869 97.0409 72.1869 97.0958 72.2186L112.811 81.3454C112.865 81.377 112.898 81.435 112.898 81.4983C112.898 81.5616 112.864 81.6196 112.809 81.6502L109.978 83.283C109.923 83.3146 109.855 83.3146 109.8 83.283L97.0061 75.848L84.0819 83.2988C84.0544 83.3146 84.0238 83.3231 83.9932 83.3231V83.3241ZM81.5141 81.5068L83.9932 82.9434L96.9184 75.4925C96.9733 75.4609 97.0409 75.4609 97.0958 75.4925L109.89 82.9275L112.369 81.4973L97.0071 72.5751L81.5141 81.5068Z" fill="black"/>
<path d="M97.0072 75.6456L83.9944 83.1481L81.1616 81.5069L97.0072 72.3716V75.6456Z" fill="#BEC4CD"/>
<path d="M83.9932 83.3241C83.9626 83.3241 83.932 83.3157 83.9045 83.2999L81.0728 81.6587C81.0179 81.627 80.9841 81.569 80.9841 81.5057C80.9841 81.4424 81.0179 81.3844 81.0728 81.3538L96.9184 72.2186C96.9734 72.1869 97.0399 72.1869 97.0948 72.2186C97.1497 72.2502 97.1835 72.3082 97.1835 72.3715V75.6455C97.1835 75.7088 97.1497 75.7668 97.0948 75.7984L84.0808 83.3009C84.0534 83.3167 84.0228 83.3252 83.9921 83.3252L83.9932 83.3241ZM81.5141 81.5068L83.9932 82.9434L96.8298 75.5432V72.6763L81.5131 81.5068H81.5141Z" fill="black"/>
<path d="M53.5118 117.874C53.4812 117.874 53.4505 117.866 53.4231 117.85L31.855 105.329C31.8011 105.297 31.7673 105.239 31.7673 105.176V82.1649C31.7673 82.0679 31.8465 81.9888 31.9437 81.9888C32.0408 81.9888 32.12 82.0679 32.12 82.1649V105.074L53.6005 117.545C53.6849 117.593 53.7134 117.702 53.6638 117.786C53.6311 117.843 53.572 117.874 53.5118 117.874Z" fill="black"/>
<path d="M66.7717 110.226C66.7411 110.226 66.7105 110.218 66.683 110.202L45.116 97.6806C45.0621 97.6489 45.0283 97.5909 45.0283 97.5276V74.517C45.0283 74.4199 45.1075 74.3408 45.2046 74.3408C45.3018 74.3408 45.381 74.4199 45.381 74.517V97.4253L66.8604 109.896C66.9449 109.944 66.9734 110.053 66.9238 110.137C66.891 110.194 66.8319 110.225 66.7717 110.225V110.226Z" fill="black"/>
<path d="M80.0318 102.579C80.0012 102.579 79.9706 102.572 79.9431 102.555L58.375 90.0336C58.3211 90.0019 58.2874 89.9439 58.2874 89.8806V66.87C58.2874 66.773 58.3665 66.6938 58.4637 66.6938C58.5608 66.6938 58.64 66.773 58.64 66.87V89.7783L80.1205 102.249C80.205 102.297 80.2335 102.406 80.1838 102.49C80.1511 102.547 80.092 102.578 80.0318 102.578V102.579Z" fill="black"/>
<path d="M30.0854 71.077L30.114 81.1003C30.114 81.3725 30.2945 81.6446 30.6545 81.8534C31.3693 82.268 32.536 82.268 33.255 81.8534C33.6214 81.6414 33.804 81.3651 33.804 81.0898L33.7755 71.0664C33.7755 71.3417 33.5939 71.6191 33.2265 71.8301C32.5075 72.2446 31.3408 72.2446 30.626 71.8301C30.266 71.6212 30.0865 71.3491 30.0854 71.077Z" fill="white"/>
<path d="M31.9532 82.3386C31.4506 82.3386 30.948 82.2278 30.5658 82.0063C30.1625 81.7711 29.9397 81.4505 29.9387 81.1003L29.9102 71.078C29.9102 70.9799 29.9893 70.9008 30.0865 70.8997C30.1836 70.8997 30.2628 70.9788 30.2628 71.0748C30.2639 71.2942 30.4243 71.5072 30.7157 71.6771C31.3703 72.0568 32.48 72.0568 33.1388 71.6771C33.4366 71.5051 33.6002 71.2879 33.5992 71.0664C33.5992 70.9693 33.6783 70.8892 33.7755 70.8892C33.8726 70.8892 33.9518 70.9683 33.9518 71.0653L33.9803 81.0887C33.9803 81.442 33.7554 81.768 33.3437 82.0053C32.9604 82.2268 32.4557 82.3375 31.9532 82.3375V82.3386ZM30.2639 71.7878L30.2902 81.1003C30.2902 81.3186 30.4507 81.5317 30.7421 81.7015C31.3967 82.0812 32.5064 82.0812 33.1652 81.7015C33.463 81.5296 33.6266 81.3123 33.6256 81.0908L33.5992 71.7794C33.5168 71.8532 33.4218 71.9218 33.313 71.984C32.5444 72.427 31.2996 72.427 30.5352 71.984C30.4328 71.9239 30.3409 71.8585 30.2628 71.7889L30.2639 71.7878Z" fill="black"/>
<path d="M30.626 70.3217C29.907 70.7362 29.9028 71.4123 30.626 71.831C31.3408 72.2456 32.5075 72.2456 33.2265 71.831C33.9529 71.4112 33.9571 70.7362 33.2423 70.3217C32.5202 69.9019 31.3535 69.9019 30.626 70.3217Z" fill="white"/>
<path d="M31.9247 72.3154C31.4222 72.3154 30.9196 72.2046 30.5374 71.9831C30.132 71.7479 29.9092 71.4252 29.9092 71.0739C29.9092 70.7238 30.133 70.401 30.5384 70.1679C31.324 69.7143 32.5508 69.7154 33.3321 70.1679C33.7323 70.3999 33.9529 70.7206 33.9529 71.0687C33.9529 71.4209 33.727 71.7458 33.3163 71.9821C32.932 72.2036 32.4283 72.3143 31.9258 72.3143L31.9247 72.3154ZM31.9363 70.1827C31.495 70.1827 31.0526 70.2797 30.7148 70.4748C30.4234 70.6425 30.2629 70.8566 30.2618 71.076C30.2618 71.2954 30.4223 71.5095 30.7148 71.6794C31.3694 72.0591 32.479 72.0591 33.1379 71.6794C33.4345 71.5085 33.5982 71.2923 33.5982 71.0708C33.5982 70.8493 33.4398 70.6415 33.1526 70.4759C32.8179 70.2807 32.3766 70.1837 31.9353 70.1837L31.9363 70.1827Z" fill="black"/>
<path d="M43.3455 63.43L43.374 73.4534C43.374 73.7255 43.5545 73.9976 43.9145 74.2065C44.6293 74.621 45.796 74.621 46.515 74.2065C46.8814 73.9945 47.064 73.7181 47.064 73.4428L47.0355 63.4194C47.0355 63.6947 46.8539 63.9721 46.4865 64.1831C45.7675 64.5976 44.6008 64.5976 43.886 64.1831C43.526 63.9742 43.3465 63.7021 43.3455 63.43Z" fill="white"/>
<path d="M45.212 74.6916C44.7095 74.6916 44.2069 74.5809 43.8247 74.3594C43.4214 74.1241 43.1975 73.8035 43.1965 73.4533L43.168 63.4331V63.4299C43.168 63.3329 43.2472 63.2538 43.3443 63.2527C43.4414 63.2527 43.5206 63.3318 43.5206 63.4289C43.5206 63.6483 43.6821 63.8613 43.9736 64.0301C44.6282 64.4098 45.7378 64.4098 46.3966 64.0301C46.6944 63.8582 46.858 63.6419 46.857 63.4194C46.857 63.3223 46.9362 63.2422 47.0333 63.2422C47.1304 63.2422 47.2096 63.3213 47.2096 63.4183L47.2381 73.4417C47.2381 73.7951 47.0122 74.121 46.6004 74.3583C46.2172 74.5798 45.7125 74.6906 45.2099 74.6906L45.212 74.6916ZM43.5238 64.1408L43.5502 73.4533C43.5502 73.6717 43.7117 73.8847 44.0031 74.0545C44.6577 74.4342 45.7674 74.4342 46.4262 74.0545C46.7239 73.8826 46.8876 73.6653 46.8876 73.4438L46.8612 64.1324C46.7788 64.2062 46.6838 64.2748 46.5751 64.337C45.8086 64.78 44.5627 64.78 43.7972 64.337C43.6948 64.2769 43.603 64.2115 43.5248 64.1419L43.5238 64.1408Z" fill="black"/>
<path d="M43.8858 62.6737C43.1668 63.0883 43.1626 63.7644 43.8858 64.1831C44.6006 64.5976 45.7673 64.5976 46.4863 64.1831C47.2137 63.7633 47.2169 63.0883 46.5021 62.6737C45.7799 62.2539 44.6133 62.2539 43.8858 62.6737Z" fill="white"/>
<path d="M45.1835 64.6684C44.681 64.6684 44.1784 64.5577 43.7962 64.3362C43.3907 64.101 43.168 63.7782 43.168 63.428C43.168 63.0768 43.3918 62.7551 43.7972 62.522C44.5828 62.0695 45.8096 62.0695 46.5909 62.522C46.9911 62.7551 47.2117 63.0747 47.2107 63.4238C47.2107 63.7761 46.9847 64.101 46.574 64.3372C46.1908 64.5587 45.6861 64.6695 45.1835 64.6695V64.6684ZM45.1962 62.5346C44.7549 62.5346 44.3125 62.6317 43.9746 62.8258C43.6832 62.9935 43.5227 63.2076 43.5217 63.427C43.5217 63.6464 43.6822 63.8605 43.9746 64.0303C44.6292 64.41 45.7389 64.41 46.3977 64.0303C46.6944 63.8594 46.858 63.6432 46.858 63.4217C46.858 63.2044 46.7007 62.9924 46.4135 62.8268C46.0788 62.6327 45.6375 62.5357 45.1962 62.5357V62.5346Z" fill="black"/>
<path d="M56.6033 55.7825L56.6318 65.8059C56.6318 66.078 56.8123 66.3502 57.1724 66.559C57.8871 66.9735 59.0538 66.9735 59.7728 66.559C60.1392 66.347 60.3218 66.0706 60.3218 65.7954L60.2933 55.772C60.2933 56.0473 60.1117 56.3247 59.7443 56.5356C59.0253 56.9501 57.8586 56.9501 57.1438 56.5356C56.7838 56.3268 56.6043 56.0546 56.6033 55.7825Z" fill="white"/>
<path d="M58.4698 67.0441C57.9673 67.0441 57.4647 66.9334 57.0825 66.7119C56.6792 66.4767 56.4553 66.155 56.4543 65.8059L56.4258 55.7856V55.7825C56.4258 55.6854 56.505 55.6063 56.6021 55.6053C56.6992 55.6053 56.7784 55.6844 56.7784 55.7814C56.7784 56.0008 56.94 56.2139 57.2314 56.3826C57.886 56.7623 58.9956 56.7623 59.6545 56.3826C59.9522 56.2107 60.1158 55.9945 60.1148 55.7719C60.1148 55.6749 60.194 55.5947 60.2911 55.5947C60.3882 55.5947 60.4674 55.6738 60.4674 55.7709L60.4959 65.7943C60.498 66.1476 60.2721 66.4735 59.8593 66.7108C59.476 66.9323 58.9713 67.0431 58.4688 67.0431L58.4698 67.0441ZM56.7816 56.4934L56.808 65.8048C56.808 66.0231 56.9695 66.2373 57.2609 66.406C57.9155 66.7857 59.0252 66.7857 59.684 66.406C59.9818 66.2341 60.1454 66.0179 60.1444 65.7964L60.118 56.4839C60.0356 56.5577 59.9406 56.6263 59.8318 56.6885C59.0643 57.1315 57.8184 57.1315 57.054 56.6885C56.9516 56.6284 56.8597 56.563 56.7816 56.4934Z" fill="black"/>
<path d="M57.1436 55.0258C56.4246 55.4403 56.4204 56.1164 57.1436 56.5351C57.8584 56.9497 59.0251 56.9497 59.7441 56.5351C60.4705 56.1154 60.4747 55.4403 59.7599 55.0258C59.0378 54.606 57.8711 54.606 57.1436 55.0258Z" fill="white"/>
<path d="M58.4413 57.0206C57.9388 57.0206 57.4362 56.9098 57.054 56.6883C56.6486 56.4531 56.4258 56.1303 56.4258 55.7791C56.4258 55.4289 56.6496 55.1072 57.055 54.8731C57.8406 54.4206 59.0674 54.4206 59.8487 54.8731C60.2489 55.1062 60.4695 55.4258 60.4685 55.7738C60.4685 56.1261 60.2425 56.451 59.8318 56.6872C59.4486 56.9087 58.9439 57.0195 58.4413 57.0195V57.0206ZM58.454 54.8868C58.0127 54.8868 57.5703 54.9838 57.2324 55.1779C56.941 55.3456 56.7805 55.5597 56.7795 55.7791C56.7795 55.9985 56.94 56.2126 57.2324 56.3824C57.887 56.7621 58.9967 56.7621 59.6555 56.3824C59.9522 56.2116 60.1158 55.9953 60.1158 55.7738C60.1158 55.5565 59.9585 55.3445 59.6713 55.1789C59.3367 54.9849 58.8953 54.8878 58.454 54.8878V54.8868Z" fill="black"/>
<path d="M55.082 43.7339L55.1338 61.9686C55.1348 62.4633 55.4621 62.959 56.1167 63.3388C57.4164 64.0929 59.5397 64.0929 60.8478 63.3388C61.513 62.9548 61.8434 62.4538 61.8424 61.9549L61.7907 43.7202C61.7917 44.2191 61.4612 44.7201 60.7961 45.1041C59.4879 45.8582 57.3647 45.8582 56.065 45.1041C55.4104 44.7243 55.0841 44.2286 55.082 43.7339Z" fill="black"/>
<path d="M58.4785 64.0791C57.5895 64.0791 56.7026 63.8829 56.0269 63.4916C55.3385 63.0918 54.9584 62.5507 54.9563 61.9685L54.9045 43.7349C54.9045 43.6378 54.9837 43.5587 55.0809 43.5577C55.178 43.5577 55.2572 43.6368 55.2572 43.7338C55.2582 44.1852 55.576 44.6177 56.1525 44.9521C57.4036 45.6788 59.4466 45.6777 60.7052 44.9521C61.2912 44.6135 61.6132 44.1768 61.6121 43.7211C61.6121 43.6241 61.6913 43.545 61.7884 43.5439C61.8856 43.5439 61.9648 43.6231 61.9648 43.7201L62.0154 61.9548C62.0186 62.5423 61.6332 63.0876 60.9322 63.4916C60.2543 63.8829 59.3643 64.0791 58.4753 64.0791H58.4785ZM55.2614 44.6683L55.31 61.9685C55.311 62.4199 55.6288 62.8524 56.2053 63.1867C57.4554 63.9135 59.4984 63.9135 60.758 63.1867C61.3439 62.8492 61.666 62.4126 61.6638 61.9569L61.6153 44.6546C61.4347 44.8772 61.1898 45.0818 60.8825 45.259C59.5248 46.0427 57.3234 46.0416 55.9751 45.259C55.6774 45.086 55.4377 44.8867 55.2614 44.6694V44.6683Z" fill="black"/>
<path d="M56.0659 42.3594C54.7577 43.1135 54.7514 44.3423 56.0648 45.1049C57.3645 45.8591 59.4878 45.8591 60.7959 45.1049C62.1178 44.3423 62.1178 43.1178 60.8181 42.3636C59.5047 41.601 57.3888 41.5968 56.0659 42.3594Z" fill="black"/>
<path d="M58.428 45.8444C57.539 45.8444 56.651 45.6482 55.9764 45.2569C55.2858 44.856 54.9058 44.3128 54.9058 43.7285C54.9058 43.1442 55.2869 42.6041 55.9785 42.2054C57.3637 41.407 59.5281 41.4091 60.9081 42.2097C61.5922 42.6073 61.9691 43.1452 61.9681 43.7253C61.967 44.3107 61.5827 44.8539 60.8848 45.2569C60.207 45.6482 59.3169 45.8444 58.429 45.8444H58.428ZM58.4385 41.966C57.6118 41.966 56.7851 42.1474 56.1548 42.5113C55.5783 42.8436 55.2595 43.2771 55.2595 43.7296C55.2595 44.1821 55.5773 44.6166 56.1548 44.952C57.4059 45.6788 59.4489 45.6777 60.7074 44.952C61.2913 44.6156 61.6133 44.1799 61.6144 43.7253C61.6144 43.2771 61.3008 42.8467 60.7296 42.5155C60.0993 42.1495 59.2694 41.966 58.4396 41.966H58.4385Z" fill="black"/>
<path d="M41.823 51.3818L41.8747 69.6165C41.8758 70.1112 42.2031 70.6069 42.8577 70.9866C44.1574 71.7408 46.2806 71.7408 47.5888 70.9866C48.2561 70.6016 48.5886 70.0985 48.5865 69.5975L48.5348 51.3628C48.5359 51.8638 48.2043 52.368 47.5371 52.7519C46.2289 53.5061 44.1057 53.5061 42.806 52.7519C42.1514 52.3722 41.8251 51.8765 41.823 51.3818Z" fill="black"/>
<path d="M45.2185 71.7269C44.3295 71.7269 43.4426 71.5307 42.7669 71.1394C42.0785 70.7397 41.6984 70.1986 41.6963 69.6163L41.6445 51.3827C41.6445 51.2857 41.7237 51.2066 41.8209 51.2055C41.918 51.2055 41.9972 51.2846 41.9972 51.3817C41.9982 51.832 42.316 52.2655 42.8925 52.5999C44.1426 53.3256 46.1866 53.3256 47.4462 52.5999C48.0343 52.2603 48.3574 51.8215 48.3553 51.3637C48.3553 51.2667 48.4345 51.1865 48.5316 51.1865C48.6287 51.1865 48.7079 51.2656 48.7079 51.3627L48.7597 69.5974C48.7607 70.187 48.3753 70.7354 47.6732 71.1394C46.9943 71.5307 46.1043 71.7269 45.2163 71.7269H45.2185ZM42.0014 52.3151L42.05 69.6153C42.051 70.0667 42.3688 70.4992 42.9453 70.8335C44.1954 71.5603 46.2394 71.5603 47.499 70.8335C48.0871 70.495 48.4102 70.0551 48.4081 69.5974L48.3595 52.2982C48.179 52.5229 47.9319 52.7286 47.6236 52.9058C46.2658 53.6884 44.0645 53.6884 42.7151 52.9058C42.4174 52.7328 42.1777 52.5335 42.0014 52.3162V52.3151Z" fill="black"/>
<path d="M42.8059 50.0065C41.4977 50.7607 41.4914 51.9895 42.8048 52.7521C44.1045 53.5062 46.2278 53.5062 47.5359 52.7521C48.8578 51.9895 48.8652 50.7607 47.5655 50.0065C46.2521 49.2439 44.1288 49.2439 42.8059 50.0065Z" fill="black"/>
<path d="M45.1667 53.4923C44.2777 53.4923 43.3908 53.2961 42.7151 52.9048C42.0246 52.5029 41.6445 51.9608 41.6445 51.3764C41.6445 50.7921 42.0257 50.2521 42.7172 49.8534C44.1056 49.0528 46.2743 49.0528 47.6542 49.8534C48.3363 50.2489 48.7111 50.7868 48.71 51.3669C48.71 51.9544 48.3236 52.5008 47.6236 52.9048C46.9447 53.2961 46.0547 53.4923 45.1667 53.4923ZM45.1889 49.6108C44.359 49.6108 43.5281 49.7932 42.8946 50.1592C42.3181 50.4915 41.9993 50.925 41.9993 51.3775C41.9993 51.831 42.316 52.2645 42.8946 52.5999C44.1447 53.3256 46.1887 53.3256 47.4483 52.5999C48.0343 52.2614 48.3574 51.8236 48.3574 51.368C48.3574 50.9187 48.0459 50.4894 47.4768 50.1603C46.8476 49.7943 46.0188 49.6118 45.1889 49.6118V49.6108Z" fill="black"/>
<path d="M28.563 59.0297L28.6147 77.2644C28.6158 77.7591 28.9431 78.2548 29.5977 78.6346C30.8974 79.3887 33.0206 79.3887 34.3288 78.6346C34.9961 78.2496 35.3286 77.7464 35.3265 77.2454L35.2748 59.0107C35.2758 59.5118 34.9443 60.0159 34.277 60.3999C32.9689 61.154 30.8457 61.154 29.5459 60.3999C28.8913 60.0202 28.5651 59.5244 28.563 59.0297Z" fill="black"/>
<path d="M31.9594 79.3739C31.0704 79.3739 30.1835 79.1777 29.5078 78.7864C28.8194 78.3866 28.4393 77.8456 28.4372 77.2633L28.3855 59.0297C28.3855 58.9326 28.4647 58.8535 28.5618 58.8525C28.659 58.8525 28.7381 58.9316 28.7381 59.0286C28.7392 59.4801 29.057 59.9125 29.6335 60.2469C30.8836 60.9736 32.9265 60.9736 34.1861 60.2469C34.7742 59.9072 35.0973 59.4685 35.0962 59.0107C35.0962 58.9137 35.1754 58.8335 35.2726 58.8335C35.3697 58.8335 35.4489 58.9126 35.4489 59.0096L35.5006 77.2443C35.5017 77.834 35.1163 78.3824 34.4142 78.7864C33.7364 79.1777 32.8463 79.3739 31.9573 79.3739H31.9594ZM28.7424 59.9631L28.7909 77.2633C28.792 77.7148 29.1098 78.1472 29.6863 78.4816C30.9363 79.2083 32.9793 79.2083 34.2389 78.4816C34.827 78.1419 35.1501 77.7032 35.149 77.2454L35.1005 59.9452C34.9199 60.1699 34.6729 60.3756 34.3646 60.5528C33.0078 61.3354 30.8065 61.3354 29.4571 60.5528C29.1594 60.3798 28.9197 60.1804 28.7434 59.9631H28.7424Z" fill="black"/>
<path d="M29.5469 57.654C28.2387 58.4081 28.2324 59.6369 29.5458 60.3995C30.8455 61.1537 32.9687 61.1537 34.2769 60.3995C35.5988 59.6369 35.6062 58.4081 34.3065 57.654C32.993 56.8914 30.8698 56.8914 29.5469 57.654Z" fill="black"/>
<path d="M31.9077 61.1401C31.0187 61.1401 30.1318 60.944 29.4561 60.5526C28.7656 60.1508 28.3855 59.6086 28.3855 59.0243C28.3855 58.4399 28.7666 57.8999 29.4571 57.5012C30.8466 56.6996 33.0142 56.7006 34.3941 57.5012C35.0762 57.8967 35.451 58.4347 35.451 59.0148C35.4499 59.6033 35.0635 60.1487 34.3646 60.5526C33.6867 60.944 32.7967 61.1401 31.9077 61.1401ZM29.6345 57.8071C29.058 58.1404 28.7403 58.5728 28.7392 59.0253C28.7392 59.4778 29.057 59.9124 29.6345 60.2478C30.8846 60.9745 32.9276 60.9745 34.1872 60.2478C34.7732 59.9092 35.0962 59.4715 35.0973 59.0148C35.0973 58.5655 34.7848 58.1372 34.2157 57.8071C32.9572 57.0772 30.9015 57.0761 29.6335 57.8071H29.6345Z" fill="black"/>
<path d="M86.6441 18.5966C84.41 17.2918 81.3049 17.4807 77.8957 19.4372C76.0681 20.4952 74.326 21.9592 72.7739 23.6837L65.5986 19.5332C67.1655 17.7939 68.9065 16.3299 70.7352 15.2867C74.1444 13.3154 77.2347 13.1277 79.4688 14.4313L86.6441 18.5966Z" fill="black"/>
<path d="M72.7739 23.8607C72.7433 23.8607 72.7127 23.8533 72.6852 23.8364L65.5099 19.686C65.4635 19.6596 65.4318 19.6132 65.4234 19.5604C65.4149 19.5077 65.4308 19.4539 65.4667 19.4149C67.0979 17.6039 68.841 16.1631 70.6465 15.1326C74.0082 13.1897 77.1746 12.887 79.5575 14.2782L86.7043 18.4276C86.7138 18.4329 86.7233 18.4382 86.7328 18.4445C86.8173 18.4941 86.8458 18.6017 86.7962 18.686C86.7476 18.7704 86.6389 18.7989 86.5544 18.7493H86.5533L86.5301 18.7356C84.2633 17.4256 81.2278 17.7294 77.9844 19.591C76.2 20.6236 74.4907 22.0402 72.9059 23.8027C72.8711 23.8407 72.8236 23.8617 72.775 23.8617L72.7739 23.8607ZM65.8774 19.4898L72.7391 23.4588C74.3218 21.7185 76.0269 20.3146 77.808 19.2841C80.3167 17.8433 82.7133 17.3096 84.7595 17.7062L79.3802 14.583C77.1102 13.2551 74.0705 13.561 70.8228 15.4384C69.1029 16.4204 67.44 17.7821 65.8763 19.4898H65.8774Z" fill="black"/>
<path d="M71.4544 17.3065C70.3954 16.6831 68.9299 16.7696 67.3198 17.7115C66.1014 18.4076 64.9548 19.5088 64.0267 20.7703L56.8662 16.6198C57.7953 15.3446 58.9409 14.2424 60.1456 13.5473C61.7705 12.6202 63.2359 12.5326 64.2949 13.1412L71.4554 17.3065H71.4544Z" fill="black"/>
<path d="M64.0257 20.9475C63.995 20.9475 63.9644 20.9401 63.937 20.9232L56.7764 16.7728C56.7332 16.7475 56.7025 16.7053 56.692 16.6567C56.6814 16.6082 56.692 16.5565 56.7215 16.5165C57.6897 15.1853 58.8743 14.0768 60.0547 13.3944C61.6839 12.4651 63.219 12.3206 64.3804 12.9883L71.5156 17.1398C71.5251 17.1451 71.5335 17.1504 71.542 17.1556C71.6264 17.2052 71.6539 17.3128 71.6043 17.3972C71.5536 17.4805 71.448 17.51 71.3625 17.4605L71.3372 17.4468C70.2908 16.8445 68.8951 16.9953 67.4053 17.8666C66.2671 18.5163 65.1163 19.5848 64.165 20.8768C64.1302 20.9232 64.0774 20.9486 64.0225 20.9486L64.0257 20.9475ZM57.1249 16.566L63.9781 20.5393C64.9516 19.2483 66.0729 18.2199 67.2322 17.5586C68.251 16.9626 69.2329 16.6873 70.1177 16.7327L64.2041 13.2931C63.1578 12.6919 61.7451 12.8364 60.2311 13.7002C59.1394 14.331 58.0413 15.3446 57.1238 16.566H57.1249Z" fill="black"/>
<path d="M10.9267 82.1658L3.7609 78.0058C1.55319 76.7243 0.186974 73.9977 0.17536 70.1225C0.153188 62.3278 5.63708 52.8276 12.446 48.9007C13.354 48.3776 14.2525 47.9757 15.1056 47.6973L22.2703 51.8572C21.4172 52.1357 20.5188 52.5376 19.6108 53.0607C12.8029 56.9876 7.31793 66.4878 7.3401 74.2825C7.35066 78.1587 8.71794 80.8853 10.9256 82.1658H10.9267Z" fill="black"/>
<path d="M10.9267 82.342C10.8961 82.342 10.8654 82.3346 10.838 82.3177L3.67324 78.1577C1.31456 76.7887 0.0106308 73.9345 7.27223e-05 70.1215C-0.0231551 62.2794 5.52092 52.6906 12.3584 48.7468C13.2579 48.2279 14.1638 47.8186 15.0507 47.5275C15.0982 47.5117 15.151 47.517 15.1953 47.5423L22.3601 51.7023C22.4202 51.7371 22.454 51.8046 22.4466 51.8731C22.4393 51.9417 22.3917 52.0007 22.3263 52.0229C21.4605 52.3056 20.5779 52.7053 19.6994 53.2116C12.9602 57.0984 7.49528 66.5501 7.51746 74.2804C7.52801 77.9626 8.76965 80.7082 11.0143 82.0118C11.0988 82.0604 11.1273 82.169 11.0777 82.2534C11.0449 82.3103 10.9858 82.3409 10.9256 82.3409L10.9267 82.342ZM15.0866 47.8882C14.2451 48.1699 13.3878 48.5612 12.5357 49.0527C5.79543 52.9405 0.330542 62.3912 0.35377 70.1215C0.363272 73.8037 1.60596 76.5492 3.85062 77.8529L9.23421 80.9792C7.89544 79.4213 7.17326 77.1167 7.16481 74.2826C7.14264 66.4394 12.6867 56.8505 19.5231 52.9078C20.2981 52.4606 21.0783 52.0946 21.8491 51.8162L15.0866 47.8893V47.8882Z" fill="black"/>
<path d="M57.7868 5.81315C53.8697 3.53803 48.4576 3.85657 42.4944 7.30564C30.5975 14.1616 21.0076 30.7857 21.0509 44.41C21.0509 47.2652 21.4859 49.7587 22.2693 51.8598L15.1087 47.6945C14.3253 45.6071 13.8903 43.1 13.8756 40.2447C13.846 26.6204 23.4359 10.01 35.3339 3.14039C41.2971 -0.294965 46.7092 -0.613503 50.6263 1.6479L57.7868 5.81315Z" fill="black"/>
<path d="M22.2703 52.0367C22.2397 52.0367 22.209 52.0283 22.1816 52.0125L15.0211 47.8472C14.9862 47.8272 14.9588 47.7945 14.944 47.7565C14.1331 45.5932 13.715 43.066 13.7003 40.2456C13.6718 26.578 23.3367 9.86425 35.2462 2.98721C41.0722 -0.370091 46.5656 -0.900635 50.7139 1.49472L57.8754 5.65997C57.9599 5.70849 57.9884 5.81713 57.9388 5.90046C57.8902 5.98484 57.7815 6.01332 57.697 5.9648C53.6638 3.62112 48.2961 4.15272 42.5831 7.45728C30.7643 14.2679 21.1849 30.8445 21.2282 44.4087C21.2282 47.1616 21.6347 49.6477 22.436 51.7973C22.4624 51.8669 22.4413 51.946 22.3843 51.9945C22.3516 52.022 22.3115 52.0357 22.2703 52.0357V52.0367ZM15.2534 47.574L21.9419 51.465C21.2335 49.3829 20.8756 47.0129 20.8756 44.4108C20.8323 30.7337 30.4908 14.02 42.4078 7.15246C47.1167 4.42801 51.6092 3.55784 55.3478 4.59677L50.5386 1.79955C46.5033 -0.528305 41.1355 0.000130009 35.4236 3.29309C23.6112 10.1132 14.0254 26.6898 14.054 40.2445C14.0677 42.9974 14.471 45.4635 15.2534 47.574Z" fill="black"/>
<path d="M42.4924 7.30315C54.3681 0.453538 64.0235 5.97204 64.0626 19.5932C64.0637 19.9866 64.0468 20.3695 64.0288 20.7735C64.9527 19.5057 66.1003 18.4066 67.3135 17.7073C70.5369 15.8478 73.1479 17.3455 73.1584 21.0351C73.1605 21.8852 73.0148 22.8007 72.7667 23.6888C74.3293 21.9559 76.0704 20.495 77.8948 19.4424C84.6847 15.5261 90.2045 18.6798 90.2267 26.4745C90.2489 34.2797 84.765 43.7694 77.9751 47.6857C71.1661 51.6126 26.481 77.3856 19.691 81.3019C12.8832 85.2288 7.36233 82.0867 7.34015 74.2815C7.31798 66.4868 12.8019 56.9866 19.6108 53.0597C20.5188 52.5365 21.4173 52.1347 22.2704 51.8562C21.4849 49.7636 21.0509 47.2659 21.0435 44.4054C21.0045 30.7842 30.5976 14.1633 42.4913 7.30315H42.4924Z" fill="white"/>
<path d="M14.1575 83.1753C12.9539 83.1753 11.8421 82.8957 10.8602 82.3315C8.48779 80.9676 7.17542 78.1092 7.16486 74.2826C7.14269 66.4394 12.6868 56.8506 19.5231 52.9079C20.3636 52.4237 21.2103 52.0335 22.0423 51.7476C21.2695 49.617 20.8746 47.1478 20.8672 44.4065C20.8281 30.7358 30.4899 14.0231 42.4037 7.15131C48.2191 3.79718 53.6987 3.2603 57.8333 5.63668C61.9436 8.0004 64.2188 12.9567 64.2368 19.5933C64.2368 19.8042 64.2326 20.012 64.2262 20.2219C65.1216 19.0986 66.171 18.162 67.2237 17.5555C68.8423 16.6209 70.3753 16.4754 71.5356 17.1431C72.6896 17.8065 73.3284 19.1893 73.3337 21.0362C73.3347 21.6659 73.2555 22.3578 73.1014 23.0676C74.589 21.5034 76.1685 20.2356 77.805 19.2916C81.1562 17.3593 84.3141 17.0534 86.7024 18.4256C89.0779 19.7905 90.3914 22.65 90.403 26.4756C90.4252 34.3177 84.8895 43.9013 78.0627 47.8397L19.7808 81.4549C17.8001 82.5983 15.8848 83.1753 14.1575 83.1753ZM52.1287 4.52918C49.2031 4.52918 45.9533 5.51116 42.581 7.45614C30.7644 14.2709 21.1829 30.8465 21.2209 44.4054C21.2283 47.1784 21.6369 49.6645 22.4372 51.7951C22.4541 51.8404 22.452 51.89 22.4309 51.9333C22.4097 51.9765 22.3717 52.0092 22.3263 52.025C21.4606 52.3077 20.5779 52.7075 19.6995 53.2137C12.9602 57.1005 7.49533 66.5522 7.5175 74.2826C7.52806 77.9774 8.77709 80.7282 11.0355 82.0266C13.3139 83.3366 16.3557 83.0244 19.6023 81.1512L77.8863 47.5349C84.615 43.6534 90.0725 34.207 90.0504 26.4766C90.0398 22.7818 88.7887 20.032 86.5271 18.7315C84.2508 17.4236 81.2174 17.7316 77.9824 19.5975C76.2044 20.6227 74.494 22.0403 72.8976 23.8091C72.8427 23.8693 72.753 23.884 72.6812 23.8461C72.6094 23.806 72.5745 23.7226 72.5957 23.6446C72.8501 22.7343 72.9831 21.8336 72.981 21.0383C72.9758 19.3232 72.4003 18.0491 71.3593 17.45C70.3109 16.8467 68.9056 16.9954 67.4 17.8624C66.2523 18.5248 65.1057 19.5964 64.1703 20.8801C64.1249 20.9423 64.0415 20.9687 63.9697 20.9423C63.8958 20.917 63.8472 20.8463 63.8514 20.7683L63.8546 20.7124C63.8704 20.3316 63.8863 19.9688 63.8852 19.5964C63.8662 13.0907 61.6553 8.24194 57.658 5.94361C56.0152 4.9996 54.1485 4.53023 52.1287 4.53023V4.52918Z" fill="black"/>
<g opacity="0.1">
<path d="M26.4209 161.802C25.2785 162.46 25.2732 163.527 26.4029 164.183L54.5245 180.509C55.6542 181.166 57.4955 181.166 58.6379 180.506L86.9389 164.183C88.0813 163.525 88.0866 162.458 86.9569 161.803L58.8353 145.477C57.7056 144.821 55.8643 144.821 54.7219 145.479L26.4209 161.802Z" fill="black"/>
</g>
<path d="M86.2789 159.394C86.2789 159.832 85.9949 160.27 85.4184 160.592L57.1195 176.923C56.5662 177.238 55.8514 177.399 55.1367 177.415C54.368 177.422 53.592 177.261 52.9997 176.923L24.8781 160.592C24.3249 160.278 24.0398 159.848 24.0398 159.417L24.0166 144.998C24.0166 145.428 24.3006 145.85 24.8623 146.173L52.9839 162.504C53.5677 162.841 54.3596 163.003 55.1356 162.988C55.843 162.972 56.5493 162.812 57.0952 162.504L85.3941 146.173C85.9706 145.843 86.2546 145.412 86.2546 144.975L86.2778 159.394H86.2789Z" fill="#F1F2F5"/>
<path d="M55.084 177.591C54.2647 177.591 53.4961 177.409 52.9133 177.076L24.7906 160.744C24.2036 160.41 23.8658 159.926 23.8658 159.416L23.8425 145V144.998C23.8425 144.899 23.9217 144.82 24.0188 144.82C24.116 144.82 24.1952 144.899 24.1952 144.996V144.999C24.1962 145.376 24.4655 145.738 24.9522 146.018L53.0737 162.349C53.6059 162.657 54.3597 162.828 55.1336 162.809C55.8421 162.794 56.5094 162.629 57.0098 162.348L85.3066 146.018C85.805 145.732 86.0784 145.362 86.0784 144.973C86.0784 144.875 86.1576 144.796 86.2548 144.796C86.3519 144.796 86.4311 144.875 86.4311 144.973L86.4543 159.392C86.4543 159.913 86.108 160.406 85.503 160.744L57.2062 177.074C56.6519 177.39 55.917 177.573 55.1389 177.589C55.1199 177.589 55.1009 177.589 55.0819 177.589L55.084 177.591ZM24.1962 145.867L24.2173 159.416C24.2173 159.795 24.4897 160.167 24.9659 160.438L53.0885 176.77C53.6302 177.079 54.3682 177.257 55.1347 177.238C55.8537 177.223 56.5284 177.056 57.032 176.769L85.3299 160.44C85.8293 160.16 86.1017 159.79 86.1017 159.394L86.0795 145.85C85.9275 146.025 85.7258 146.187 85.4819 146.326L57.1851 162.657C56.6318 162.968 55.9075 163.147 55.14 163.164C54.3217 163.182 53.4834 162.996 52.8953 162.657L24.7738 146.326C24.5383 146.191 24.344 146.036 24.1952 145.867H24.1962Z" fill="black"/>
<path d="M55.1367 177.415C54.368 177.422 53.592 177.261 52.9997 176.924L24.8781 160.593C24.3249 160.278 24.0398 159.848 24.0398 159.418L24.0166 144.998C24.0166 145.428 24.3006 145.85 24.8623 146.173L52.9839 162.504C53.5677 162.841 54.3596 163.003 55.1356 162.988" fill="#BEC4CD"/>
<path d="M55.0817 177.591C54.2635 177.591 53.4949 177.409 52.912 177.076L24.7894 160.745C24.2024 160.41 23.8645 159.926 23.8645 159.417L23.8413 145.001V144.998C23.8413 144.9 23.9205 144.821 24.0176 144.821C24.1148 144.821 24.1939 144.9 24.1939 144.997V145C24.195 145.378 24.4642 145.739 24.951 146.019L53.0725 162.35C53.6047 162.658 54.3585 162.829 55.1324 162.81H55.1356C55.2317 162.81 55.3098 162.887 55.3119 162.983C55.314 163.08 55.2359 163.161 55.1388 163.163C54.2846 163.183 53.4811 162.995 52.8941 162.656L24.7725 146.325C24.5371 146.19 24.3428 146.035 24.1939 145.866L24.2151 159.416C24.2151 159.794 24.4875 160.166 24.9636 160.438L53.0863 176.769C53.6152 177.071 54.3216 177.237 55.0796 177.237C55.0976 177.237 55.1102 177.228 55.1345 177.237C55.2317 177.237 55.3108 177.315 55.3108 177.412C55.3108 177.509 55.2338 177.589 55.1366 177.59C55.1176 177.59 55.0986 177.59 55.0796 177.59L55.0817 177.591Z" fill="black"/>
<path d="M70.0996 165.54C70.0384 165.54 69.9793 165.508 69.9465 165.451C69.898 165.367 69.9275 165.259 70.0109 165.21L82.6596 157.913C82.7419 157.864 82.8507 157.891 82.9013 157.977C82.9499 158.061 82.9204 158.169 82.8369 158.217L70.1883 165.515C70.1609 165.531 70.1302 165.54 70.0996 165.54Z" fill="black"/>
<path d="M59.2437 172.137C59.1466 172.137 59.0674 172.058 59.0674 171.961V165.668C59.0674 165.571 59.1466 165.492 59.2437 165.492C59.3408 165.492 59.42 165.571 59.42 165.668V171.961C59.42 172.058 59.3408 172.137 59.2437 172.137Z" fill="black"/>
<path d="M61.6277 170.761C61.5306 170.761 61.4514 170.682 61.4514 170.585V164.292C61.4514 164.195 61.5306 164.116 61.6277 164.116C61.7249 164.116 61.8041 164.195 61.8041 164.292V170.585C61.8041 170.682 61.7249 170.761 61.6277 170.761Z" fill="black"/>
<path d="M64.0108 169.385C63.9137 169.385 63.8345 169.306 63.8345 169.209V162.916C63.8345 162.819 63.9137 162.74 64.0108 162.74C64.1079 162.74 64.1871 162.819 64.1871 162.916V169.209C64.1871 169.306 64.1079 169.385 64.0108 169.385Z" fill="black"/>
<path d="M24.8781 143.794C23.7357 144.453 23.7305 145.519 24.8602 146.175L52.9817 162.502C54.1115 163.158 55.9528 163.158 57.0952 162.498L85.3962 146.175C86.5386 145.517 86.5439 144.45 85.4142 143.795L57.2926 127.469C56.1629 126.813 54.3216 126.813 53.1792 127.471L24.8781 143.794Z" fill="white"/>
<path d="M55.0311 163.166C54.2551 163.166 53.4812 162.995 52.8921 162.655L24.7705 146.328C24.1697 145.979 23.8393 145.504 23.8403 144.992C23.8403 144.474 24.1782 143.995 24.7895 143.643L53.0906 127.319C54.2773 126.634 56.201 126.633 57.3803 127.316L85.5019 143.643C86.1026 143.992 86.4331 144.465 86.4321 144.979C86.4321 145.497 86.0942 145.976 85.4829 146.328L57.1818 162.652C56.5874 162.994 55.8082 163.166 55.0301 163.166H55.0311ZM55.2423 127.151C54.5286 127.151 53.8127 127.309 53.2669 127.624L24.9658 143.947C24.4685 144.234 24.194 144.606 24.193 144.992C24.193 145.374 24.4601 145.74 24.9479 146.022L53.0694 162.349C54.1506 162.976 55.917 162.974 57.0045 162.346L85.3055 146.022C85.8028 145.735 86.0773 145.364 86.0784 144.978C86.0784 144.596 85.8102 144.23 85.3235 143.947L57.2019 127.621C56.6634 127.308 55.9529 127.151 55.2413 127.151H55.2423Z" fill="black"/>
<path d="M81.5839 152.121C82.3799 151.662 83.0282 152.031 83.0303 152.941C83.0324 153.855 82.3894 154.968 81.5934 155.428C80.8026 155.885 80.1543 155.516 80.1511 154.602C80.149 153.691 80.792 152.577 81.5839 152.121Z" fill="#67C3EC"/>
<path d="M76.4484 155.084C77.2445 154.625 77.8927 154.994 77.8948 155.904C77.8969 156.818 77.2539 157.931 76.4579 158.391C75.6671 158.848 75.0188 158.479 75.0156 157.565C75.0135 156.654 75.6565 155.54 76.4484 155.084Z" fill="#67C3EC"/>
<path d="M71.3138 158.046C72.1099 157.588 72.7582 157.957 72.7603 158.867C72.7624 159.78 72.1194 160.894 71.3234 161.354C70.5325 161.811 69.8843 161.442 69.8811 160.528C69.879 159.617 70.522 158.503 71.3138 158.046Z" fill="#67C3EC"/>
<path d="M39.3132 145.195L55.0364 154.324L70.8746 145.189L55.1504 136.061L39.3132 145.195Z" fill="white"/>
<path d="M55.0364 154.5C55.0058 154.5 54.9752 154.492 54.9478 154.476L39.2246 145.348C39.1697 145.316 39.137 145.258 39.137 145.195C39.137 145.132 39.1707 145.074 39.2257 145.043L55.0639 135.908C55.1188 135.876 55.1864 135.876 55.2413 135.908L70.9644 145.036C71.0193 145.068 71.0521 145.126 71.0521 145.189C71.0521 145.252 71.0183 145.31 70.9634 145.341L55.1251 154.476C55.0977 154.492 55.0671 154.5 55.0364 154.5ZM39.6659 145.196L55.0364 154.121L70.522 145.189L55.1515 136.265L39.6659 145.196Z" fill="black"/>
<path d="M70.8706 145.189L68.0379 146.822L55.1549 139.336L42.142 146.839L39.3103 145.197L55.1549 136.061L70.8706 145.189Z" fill="#BEC4CD"/>
<path d="M42.1419 147.015C42.1113 147.015 42.0806 147.006 42.0532 146.99L39.2215 145.349C39.1666 145.317 39.1328 145.259 39.1328 145.196C39.1328 145.133 39.1666 145.075 39.2215 145.044L55.0661 135.909C55.121 135.877 55.1885 135.877 55.2434 135.909L70.9592 145.037C71.0141 145.069 71.0468 145.127 71.0468 145.19C71.0468 145.253 71.0131 145.311 70.9582 145.342L68.1265 146.974C68.0716 147.006 68.004 147.006 67.9491 146.974L55.1537 139.539L42.2295 146.99C42.2021 147.006 42.1714 147.015 42.1408 147.015H42.1419ZM39.6628 145.197L42.1419 146.634L55.0661 139.183C55.121 139.151 55.1885 139.151 55.2434 139.183L68.0388 146.618L70.5179 145.189L55.1548 136.265L39.6628 145.197Z" fill="black"/>
<path d="M55.1549 139.336L42.142 146.839L39.3103 145.197L55.1549 136.061V139.336Z" fill="#BEC4CD"/>
<path d="M42.1419 147.015C42.1113 147.015 42.0806 147.006 42.0532 146.99L39.2215 145.349C39.1666 145.317 39.1328 145.259 39.1328 145.196C39.1328 145.133 39.1666 145.075 39.2215 145.044L55.0661 135.909C55.121 135.877 55.1875 135.877 55.2424 135.909C55.2973 135.941 55.3311 135.999 55.3311 136.062V139.336C55.3311 139.399 55.2973 139.457 55.2424 139.489L42.2295 146.991C42.2021 147.007 42.1714 147.016 42.1408 147.016L42.1419 147.015ZM39.6628 145.197L42.1419 146.634L54.9784 139.234V136.367L39.6628 145.197Z" fill="black"/>
<path d="M86.2789 139.63C86.2789 140.068 85.9949 140.506 85.4184 140.828L57.1195 157.159C56.5662 157.473 55.8514 157.635 55.1367 157.651C54.368 157.658 53.592 157.497 52.9997 157.159L24.8781 140.828C24.3249 140.514 24.0398 140.084 24.0398 139.653L24.0166 125.234C24.0166 125.664 24.3006 126.086 24.8623 126.409L52.9839 142.74C53.5677 143.077 54.3596 143.238 55.1356 143.224C55.843 143.208 56.5493 143.048 57.0952 142.74L85.3941 126.409C85.9706 126.079 86.2546 125.648 86.2546 125.21L86.2778 139.63H86.2789Z" fill="#F1F2F5"/>
<path d="M55.086 157.828C54.2656 157.828 53.4959 157.645 52.912 157.313L24.7894 140.981C24.2024 140.647 23.8645 140.163 23.8645 139.653L23.8413 125.238V125.236C23.8413 125.136 23.9205 125.057 24.0176 125.057C24.1148 125.057 24.1939 125.136 24.1939 125.234V125.237C24.195 125.614 24.4642 125.976 24.951 126.256L53.0725 142.586C53.6047 142.894 54.3501 143.066 55.1324 143.046C55.8419 143.03 56.5081 142.867 57.0086 142.585L85.3054 126.256C85.8038 125.97 86.0772 125.598 86.0772 125.21C86.0772 125.113 86.1564 125.034 86.2535 125.034C86.3507 125.034 86.4299 125.113 86.4299 125.21L86.4531 139.629C86.4531 140.15 86.1068 140.643 85.5018 140.981L57.205 157.311C56.6507 157.626 55.9169 157.809 55.1377 157.826C55.1187 157.826 55.1007 157.826 55.0828 157.826L55.086 157.828ZM24.1961 126.103L24.2172 139.652C24.2172 140.031 24.4896 140.403 24.9657 140.674L53.0884 157.006C53.6173 157.308 54.3247 157.473 55.0838 157.473C55.1007 157.473 55.1187 157.473 55.1345 157.473C55.8546 157.457 56.5282 157.291 57.0318 157.005L85.3297 140.674C85.8291 140.395 86.1015 140.024 86.1015 139.629L86.0793 126.085C85.9273 126.26 85.7256 126.42 85.4817 126.56L57.1849 142.891C56.6327 143.201 55.9074 143.382 55.1409 143.399C54.293 143.411 53.4822 143.23 52.8962 142.891L24.7746 126.56C24.5392 126.425 24.3449 126.27 24.1961 126.102V126.103Z" fill="black"/>
<path d="M55.1367 157.651C54.368 157.658 53.592 157.497 52.9997 157.159L24.8781 140.829C24.3249 140.514 24.0398 140.084 24.0398 139.654L24.0166 125.234C24.0166 125.664 24.3006 126.086 24.8623 126.409L52.9839 142.74C53.5677 143.077 54.3596 143.239 55.1356 143.224" fill="#BEC4CD"/>
<path d="M55.0838 157.828C54.2656 157.828 53.4959 157.645 52.912 157.313L24.7894 140.981C24.2024 140.647 23.8645 140.163 23.8645 139.653L23.8413 125.238V125.235C23.8413 125.137 23.9205 125.058 24.0176 125.058C24.1148 125.058 24.1939 125.137 24.1939 125.234V125.237C24.195 125.615 24.4642 125.976 24.951 126.256L53.0725 142.587C53.6047 142.895 54.3501 143.067 55.1324 143.047H55.1356C55.2317 143.047 55.3098 143.124 55.3119 143.22C55.314 143.317 55.2359 143.398 55.1388 143.4C54.2793 143.41 53.4801 143.231 52.8941 142.893L24.7725 126.562C24.5371 126.427 24.3428 126.272 24.1939 126.103L24.2151 139.652C24.2151 140.031 24.4875 140.403 24.9636 140.674L53.0863 157.006C53.6152 157.308 54.3226 157.474 55.0817 157.474C55.0997 157.474 55.1124 157.477 55.1345 157.474C55.2317 157.474 55.3108 157.552 55.3108 157.649C55.3108 157.746 55.2338 157.826 55.1366 157.827C55.1176 157.827 55.0997 157.827 55.0817 157.827L55.0838 157.828Z" fill="black"/>
<path d="M70.0996 145.775C70.0384 145.775 69.9793 145.743 69.9465 145.686C69.898 145.602 69.9275 145.494 70.0109 145.446L82.6596 138.148C82.7419 138.099 82.8507 138.127 82.9013 138.212C82.9499 138.297 82.9204 138.404 82.8369 138.453L70.1883 145.751C70.1609 145.766 70.1302 145.775 70.0996 145.775Z" fill="black"/>
<path d="M59.2437 152.373C59.1466 152.373 59.0674 152.293 59.0674 152.196V145.904C59.0674 145.807 59.1466 145.728 59.2437 145.728C59.3408 145.728 59.42 145.807 59.42 145.904V152.196C59.42 152.293 59.3408 152.373 59.2437 152.373Z" fill="black"/>
<path d="M61.6277 150.997C61.5306 150.997 61.4514 150.918 61.4514 150.821V144.528C61.4514 144.431 61.5306 144.352 61.6277 144.352C61.7249 144.352 61.8041 144.431 61.8041 144.528V150.821C61.8041 150.918 61.7249 150.997 61.6277 150.997Z" fill="black"/>
<path d="M64.0108 149.621C63.9137 149.621 63.8345 149.541 63.8345 149.444V143.152C63.8345 143.055 63.9137 142.976 64.0108 142.976C64.1079 142.976 64.1871 143.055 64.1871 143.152V149.444C64.1871 149.541 64.1079 149.621 64.0108 149.621Z" fill="black"/>
<path d="M24.8781 124.03C23.7357 124.689 23.7305 125.755 24.8602 126.411L52.9817 142.738C54.1115 143.394 55.9528 143.394 57.0952 142.734L85.3962 126.411C86.5386 125.753 86.5439 124.686 85.4142 124.03L57.2926 107.704C56.1629 107.048 54.3216 107.048 53.1792 107.706L24.8781 124.029V124.03Z" fill="white"/>
<path d="M55.0311 143.402C54.2551 143.402 53.4812 143.231 52.8921 142.89L24.7705 126.564C24.1697 126.215 23.8393 125.74 23.8403 125.227C23.8403 124.71 24.1782 124.231 24.7895 123.878L53.0906 107.555C54.2783 106.869 56.201 106.868 57.3803 107.553L85.5019 123.879C86.1026 124.229 86.4331 124.703 86.4321 125.216C86.4321 125.734 86.0942 126.213 85.4829 126.565L57.1818 142.888C56.5874 143.231 55.8082 143.403 55.0301 143.403L55.0311 143.402ZM24.9669 124.183C24.4696 124.47 24.1951 124.841 24.194 125.227C24.194 125.609 24.4622 125.975 24.9489 126.258L53.0705 142.585C54.1495 143.211 55.9159 143.211 57.0055 142.582L85.3066 126.259C85.8038 125.972 86.0784 125.601 86.0794 125.215C86.0794 124.833 85.8112 124.467 85.3245 124.184L57.2029 107.858C56.1229 107.23 54.3575 107.232 53.2679 107.86L24.9669 124.183Z" fill="black"/>
<path d="M81.5839 132.356C82.3799 131.898 83.0282 132.267 83.0303 133.177C83.0324 134.09 82.3894 135.204 81.5934 135.664C80.8026 136.121 80.1543 135.752 80.1511 134.838C80.149 133.927 80.792 132.813 81.5839 132.356Z" fill="#BEC4CD"/>
<path d="M76.4484 135.319C77.2445 134.861 77.8927 135.23 77.8948 136.14C77.8969 137.053 77.2539 138.167 76.4579 138.627C75.6671 139.084 75.0188 138.715 75.0156 137.801C75.0135 136.89 75.6565 135.776 76.4484 135.319Z" fill="#BEC4CD"/>
<path d="M71.3138 138.282C72.1099 137.823 72.7582 138.193 72.7603 139.103C72.7624 140.016 72.1194 141.13 71.3234 141.59C70.5325 142.047 69.8843 141.678 69.8811 140.764C69.879 139.853 70.522 138.739 71.3138 138.282Z" fill="#BEC4CD"/>
<path d="M39.3132 125.431L55.0364 134.56L70.8746 125.425L55.1504 116.297L39.3132 125.431Z" fill="white"/>
<path d="M55.0364 134.736C55.0058 134.736 54.9752 134.728 54.9478 134.712L39.2246 125.584C39.1697 125.552 39.137 125.494 39.137 125.431C39.137 125.368 39.1707 125.31 39.2257 125.279L55.0639 116.144C55.1188 116.112 55.1864 116.112 55.2413 116.144L70.9644 125.272C71.0193 125.303 71.0521 125.361 71.0521 125.425C71.0521 125.488 71.0183 125.546 70.9634 125.577L55.1251 134.712C55.0977 134.728 55.0671 134.736 55.0364 134.736ZM39.6659 125.432L55.0364 134.356L70.522 125.426L55.1515 116.501L39.6659 125.432Z" fill="black"/>
<path d="M70.8706 125.425L68.0379 127.058L55.1549 119.572L42.142 127.074L39.3103 125.433L55.1549 116.297L70.8706 125.425Z" fill="#BEC4CD"/>
<path d="M42.1419 127.25C42.1113 127.25 42.0806 127.242 42.0532 127.226L39.2215 125.585C39.1666 125.553 39.1328 125.495 39.1328 125.432C39.1328 125.369 39.1666 125.311 39.2215 125.28L55.0661 116.145C55.121 116.113 55.1885 116.113 55.2434 116.145L70.9592 125.273C71.0141 125.304 71.0468 125.362 71.0468 125.426C71.0468 125.489 71.0131 125.547 70.9582 125.578L68.1265 127.21C68.0716 127.242 68.004 127.242 67.9491 127.21L55.1537 119.775L42.2295 127.226C42.2021 127.242 42.1714 127.25 42.1408 127.25H42.1419ZM39.6628 125.433L42.1419 126.87L55.0661 119.419C55.121 119.387 55.1885 119.387 55.2434 119.419L68.0378 126.854L70.5168 125.424L55.1537 116.5L39.6618 125.432L39.6628 125.433Z" fill="black"/>
<path d="M55.1549 119.572L42.142 127.074L39.3103 125.433L55.1549 116.297V119.572Z" fill="#BEC4CD"/>
<path d="M42.1419 127.25C42.1113 127.25 42.0806 127.242 42.0532 127.226L39.2215 125.585C39.1666 125.553 39.1328 125.495 39.1328 125.432C39.1328 125.369 39.1666 125.311 39.2215 125.28L55.0661 116.145C55.121 116.113 55.1875 116.113 55.2424 116.145C55.2973 116.176 55.3311 116.234 55.3311 116.298V119.572C55.3311 119.635 55.2973 119.693 55.2424 119.725L42.2295 127.227C42.2021 127.243 42.1714 127.251 42.1408 127.251L42.1419 127.25ZM39.6628 125.433L42.1419 126.87L54.9784 119.469V116.603L39.6628 125.433Z" fill="black"/>
<path d="M86.2789 119.866C86.2789 120.304 85.9949 120.741 85.4184 121.064L57.1195 137.395C56.5662 137.709 55.8514 137.871 55.1367 137.887C54.368 137.894 53.592 137.733 52.9997 137.395L24.8781 121.064C24.3249 120.75 24.0398 120.319 24.0398 119.889L24.0166 105.469C24.0166 105.9 24.3006 106.322 24.8623 106.645L52.9839 122.975C53.5677 123.313 54.3596 123.474 55.1356 123.459C55.843 123.444 56.5493 123.283 57.0952 122.975L85.3941 106.645C85.9706 106.314 86.2546 105.884 86.2546 105.446L86.2778 119.866H86.2789Z" fill="#F1F2F5"/>
<path d="M55.084 138.063C54.2647 138.063 53.4961 137.88 52.9133 137.548L24.7906 121.216C24.2036 120.882 23.8658 120.398 23.8658 119.888L23.8425 105.472V105.47C23.8425 105.37 23.9217 105.291 24.0188 105.291C24.116 105.291 24.1952 105.37 24.1952 105.467V105.471C24.1962 105.848 24.4655 106.21 24.9522 106.489L53.0737 122.82C53.6059 123.128 54.3597 123.298 55.1336 123.28C55.8421 123.265 56.5094 123.101 57.0098 122.819L85.3066 106.489C85.805 106.204 86.0784 105.832 86.0784 105.444C86.0784 105.347 86.1576 105.268 86.2548 105.268C86.3519 105.268 86.4311 105.347 86.4311 105.444L86.4543 119.864C86.4543 120.385 86.108 120.877 85.503 121.216L57.2062 137.546C56.6519 137.861 55.917 138.045 55.1389 138.061C55.1199 138.061 55.1009 138.061 55.0819 138.061L55.084 138.063ZM24.1962 106.339L24.2173 119.888C24.2173 120.267 24.4897 120.639 24.9659 120.91L53.0885 137.242C53.6291 137.551 54.3333 137.722 55.1347 137.709C55.8537 137.695 56.5284 137.528 57.032 137.241L85.3299 120.911C85.8293 120.632 86.1017 120.261 86.1017 119.866L86.0795 106.322C85.9275 106.497 85.7258 106.657 85.4819 106.797L57.1851 123.128C56.6318 123.439 55.9075 123.619 55.14 123.636C54.3217 123.649 53.4834 123.468 52.8953 123.128L24.7738 106.797C24.5383 106.662 24.344 106.507 24.1952 106.339H24.1962Z" fill="black"/>
<path d="M55.1367 137.887C54.368 137.894 53.592 137.733 52.9997 137.395L24.8781 121.064C24.3249 120.75 24.0398 120.32 24.0398 119.889L24.0166 105.47C24.0166 105.9 24.3006 106.322 24.8623 106.645L52.9839 122.976C53.5677 123.313 54.3596 123.474 55.1356 123.46" fill="#BEC4CD"/>
<path d="M55.0817 138.063C54.2635 138.063 53.4949 137.88 52.912 137.548L24.7894 121.216C24.2024 120.882 23.8645 120.398 23.8645 119.888L23.8413 105.473V105.47C23.8413 105.372 23.9205 105.292 24.0176 105.292C24.1148 105.292 24.1939 105.372 24.1939 105.469V105.472C24.195 105.849 24.4642 106.211 24.951 106.491L53.0725 122.822C53.6047 123.13 54.3585 123.299 55.1324 123.281H55.1356C55.2317 123.281 55.3098 123.358 55.3119 123.454C55.314 123.551 55.2359 123.633 55.1388 123.635C54.2846 123.654 53.4811 123.467 52.8941 123.127L24.7725 106.797C24.5371 106.662 24.3428 106.507 24.1939 106.338L24.2151 119.887C24.2151 120.266 24.4875 120.638 24.9636 120.909L53.0863 137.241C53.6268 137.55 54.3311 137.721 55.1324 137.708H55.1345C55.2317 137.708 55.3108 137.786 55.3108 137.884C55.3108 137.981 55.2338 138.061 55.1366 138.062C55.1176 138.062 55.0986 138.062 55.0796 138.062L55.0817 138.063Z" fill="black"/>
<path d="M70.0996 126.011C70.0384 126.011 69.9793 125.98 69.9465 125.923C69.898 125.838 69.9275 125.731 70.0109 125.682L82.6596 118.384C82.7419 118.336 82.8507 118.363 82.9013 118.449C82.9499 118.533 82.9204 118.641 82.8369 118.689L70.1883 125.987C70.1609 126.003 70.1302 126.011 70.0996 126.011Z" fill="black"/>
<path d="M59.2437 132.608C59.1466 132.608 59.0674 132.529 59.0674 132.432V126.14C59.0674 126.042 59.1466 125.963 59.2437 125.963C59.3408 125.963 59.42 126.042 59.42 126.14V132.432C59.42 132.529 59.3408 132.608 59.2437 132.608Z" fill="black"/>
<path d="M61.6277 131.233C61.5306 131.233 61.4514 131.154 61.4514 131.057V124.764C61.4514 124.667 61.5306 124.588 61.6277 124.588C61.7249 124.588 61.8041 124.667 61.8041 124.764V131.057C61.8041 131.154 61.7249 131.233 61.6277 131.233Z" fill="black"/>
<path d="M64.0108 129.858C63.9137 129.858 63.8345 129.779 63.8345 129.682V123.389C63.8345 123.292 63.9137 123.213 64.0108 123.213C64.1079 123.213 64.1871 123.292 64.1871 123.389V129.682C64.1871 129.779 64.1079 129.858 64.0108 129.858Z" fill="black"/>
<path d="M24.8781 104.267C23.7357 104.925 23.7305 105.992 24.8602 106.648L52.9817 122.974C54.1115 123.63 55.9528 123.63 57.0952 122.971L85.3962 106.648C86.5386 105.99 86.5439 104.923 85.4142 104.267L57.2926 87.9405C56.1629 87.2845 54.3216 87.2845 53.1792 87.9426L24.8781 104.266V104.267Z" fill="white"/>
<path d="M55.0311 123.638C54.2551 123.638 53.4812 123.467 52.8921 123.126L24.7705 106.8C24.1697 106.451 23.8393 105.976 23.8403 105.463C23.8403 104.945 24.1782 104.467 24.7895 104.114L53.0906 87.7909C54.2773 87.1053 56.201 87.1042 57.3803 87.7877L85.5019 104.114C86.1026 104.463 86.4331 104.938 86.4321 105.451C86.4321 105.969 86.0942 106.447 85.4829 106.8L57.1818 123.123C56.5874 123.466 55.8082 123.638 55.0301 123.638H55.0311ZM55.2423 87.6242C54.5286 87.6242 53.8127 87.7814 53.2669 88.0967L24.9658 104.42C24.4685 104.707 24.194 105.078 24.193 105.464C24.193 105.846 24.4612 106.212 24.9479 106.495L53.0694 122.822C54.1506 123.449 55.917 123.447 57.0045 122.818L85.3055 106.495C85.8028 106.208 86.0773 105.837 86.0784 105.451C86.0784 105.069 85.8102 104.703 85.3235 104.42L57.2019 88.0936C56.6634 87.7803 55.9529 87.6242 55.2413 87.6242H55.2423Z" fill="black"/>
<path d="M81.5839 112.592C82.3799 112.133 83.0282 112.503 83.0303 113.413C83.0324 114.326 82.3894 115.44 81.5934 115.9C80.8026 116.357 80.1543 115.988 80.1511 115.074C80.149 114.163 80.792 113.049 81.5839 112.592Z" fill="#67C3EC"/>
<path d="M76.4484 115.555C77.2445 115.096 77.8927 115.466 77.8948 116.376C77.8969 117.289 77.2539 118.403 76.4579 118.863C75.6671 119.32 75.0188 118.95 75.0156 118.037C75.0135 117.126 75.6565 116.012 76.4484 115.555Z" fill="#67C3EC"/>
<path d="M71.3138 118.518C72.1099 118.059 72.7582 118.428 72.7603 119.339C72.7624 120.252 72.1194 121.366 71.3234 121.826C70.5325 122.283 69.8843 121.913 69.8811 121C69.879 120.089 70.522 118.975 71.3138 118.518Z" fill="#67C3EC"/>
<path d="M39.3132 105.667L55.0364 114.796L70.8746 105.661L55.1504 96.5327L39.3132 105.667Z" fill="#006FBA"/>
<path d="M55.0364 114.972C55.0058 114.972 54.9752 114.964 54.9478 114.948L39.2246 105.819C39.1697 105.787 39.137 105.729 39.137 105.666C39.137 105.603 39.1707 105.545 39.2257 105.514L55.0639 96.3787C55.1188 96.3471 55.1864 96.3471 55.2413 96.3787L70.9644 105.507C71.0193 105.538 71.0521 105.596 71.0521 105.66C71.0521 105.723 71.0183 105.781 70.9634 105.811L55.1251 114.947C55.0977 114.963 55.0671 114.971 55.0364 114.971V114.972ZM39.6659 105.668L55.0364 114.592L70.522 105.661L55.1515 96.7363L39.6659 105.667V105.668Z" fill="black"/>
<path d="M70.8706 105.661L68.0379 107.293L55.1549 99.8077L42.142 107.31L39.3103 105.669L55.1549 96.5337L70.8706 105.661Z" fill="black"/>
<path d="M42.1419 107.486C42.1113 107.486 42.0806 107.478 42.0532 107.462L39.2215 105.821C39.1666 105.789 39.1328 105.731 39.1328 105.668C39.1328 105.605 39.1666 105.547 39.2215 105.516L55.0661 96.3807C55.121 96.349 55.1885 96.349 55.2434 96.3807L70.9592 105.508C71.0141 105.539 71.0468 105.597 71.0468 105.66C71.0468 105.724 71.0131 105.782 70.9582 105.812L68.1265 107.445C68.0716 107.477 68.004 107.477 67.9491 107.445L55.1537 100.01L42.2295 107.461C42.2021 107.477 42.1714 107.485 42.1408 107.485L42.1419 107.486ZM39.6628 105.669L42.1419 107.105L55.0661 99.6546C55.121 99.623 55.1885 99.623 55.2434 99.6546L68.0378 107.09L70.5168 105.659L55.1537 96.7372L39.6618 105.669H39.6628Z" fill="black"/>
<path d="M55.1549 99.8077L42.142 107.31L39.3103 105.669L55.1549 96.5337V99.8077Z" fill="#BEC4CD"/>
<path d="M42.1419 107.486C42.1113 107.486 42.0806 107.478 42.0532 107.462L39.2215 105.821C39.1666 105.789 39.1328 105.731 39.1328 105.668C39.1328 105.605 39.1666 105.547 39.2215 105.516L55.0661 96.3807C55.121 96.349 55.1875 96.349 55.2424 96.3807C55.2973 96.4123 55.3311 96.4703 55.3311 96.5336V99.8076C55.3311 99.8709 55.2973 99.9289 55.2424 99.9605L42.2295 107.463C42.2021 107.479 42.1714 107.487 42.1408 107.487L42.1419 107.486ZM39.6628 105.669L42.1419 107.105L54.9784 99.7053V96.8384L39.6628 105.669Z" fill="black"/>
<path d="M164.503 139.588C163.225 138.851 163.218 137.656 164.487 136.918C165.756 136.181 167.822 136.182 169.1 136.918C170.377 137.656 170.384 138.85 169.115 139.587C167.846 140.324 165.78 140.324 164.503 139.587V139.588Z" fill="white"/>
<path d="M166.811 140.314C165.943 140.314 165.076 140.123 164.413 139.741C163.737 139.351 163.363 138.82 163.363 138.249C163.363 137.681 163.73 137.155 164.397 136.766C165.714 136.003 167.863 136.002 169.188 136.766C169.864 137.157 170.238 137.686 170.238 138.258C170.238 138.825 169.871 139.353 169.202 139.741C168.544 140.123 167.678 140.314 166.811 140.314ZM164.591 139.435C165.817 140.142 167.806 140.143 169.025 139.435C169.58 139.113 169.887 138.695 169.886 138.258C169.886 137.818 169.574 137.396 169.011 137.071C167.785 136.364 165.793 136.364 164.576 137.071C164.022 137.393 163.715 137.812 163.716 138.248C163.716 138.688 164.028 139.11 164.591 139.435Z" fill="#006FBA"/>
<path d="M166.793 137.412C167.291 137.412 167.773 137.525 168.116 137.723C168.39 137.881 168.549 138.077 168.549 138.258C168.549 138.437 168.395 138.629 168.124 138.786C167.784 138.984 167.305 139.097 166.808 139.097C166.311 139.097 165.829 138.984 165.486 138.786C165.21 138.628 165.053 138.433 165.052 138.252C165.052 138.072 165.206 137.88 165.476 137.723C165.815 137.526 166.296 137.413 166.793 137.413V137.412Z" fill="#67C3EC"/>
<path d="M155.547 131.017C156.082 131.017 156.599 131.138 156.967 131.35C157.262 131.52 157.431 131.73 157.432 131.924C157.432 132.116 157.267 132.323 156.976 132.492C156.612 132.704 156.096 132.825 155.561 132.825C155.027 132.825 154.51 132.704 154.142 132.492C153.847 132.321 153.677 132.112 153.677 131.917C153.677 131.725 153.843 131.518 154.132 131.349C154.496 131.137 155.011 131.016 155.546 131.016L155.547 131.017Z" fill="black"/>
<path d="M9.11482 167.416C10.3923 168.153 10.3997 169.348 9.13065 170.086C7.86157 170.823 5.79534 170.822 4.51781 170.086C3.24028 169.348 3.23394 168.154 4.50303 167.417C5.77211 166.68 7.83728 166.68 9.11482 167.417V167.416Z" fill="white"/>
<path d="M6.82792 170.811C5.96004 170.811 5.09217 170.62 4.43017 170.237C3.7534 169.847 3.38069 169.318 3.37964 168.747C3.37964 168.179 3.74706 167.652 4.41434 167.264C5.72988 166.5 7.8774 166.499 9.2035 167.264C9.88027 167.654 10.254 168.185 10.254 168.757C10.254 169.325 9.88661 169.851 9.21934 170.238C8.56051 170.62 7.69474 170.811 6.82792 170.811ZM6.80681 167.038C6.00439 167.038 5.20197 167.216 4.59277 167.569C4.03741 167.891 3.73228 168.309 3.73334 168.746C3.73334 169.186 4.04374 169.608 4.60649 169.933C5.83335 170.64 7.82461 170.641 9.04196 169.933C9.59732 169.611 9.90245 169.193 9.90139 168.757C9.90139 168.316 9.58993 167.895 9.02718 167.57C8.41375 167.217 7.61028 167.039 6.80681 167.039V167.038Z" fill="#006FBA"/>
<path d="M6.82369 169.593C6.32534 169.593 5.84389 169.48 5.50075 169.282C5.22624 169.124 5.06787 168.929 5.06787 168.747C5.06787 168.568 5.22202 168.376 5.49231 168.219C5.83228 168.022 6.31162 167.909 6.80891 167.909C7.30619 167.909 7.78764 168.022 8.13078 168.219C8.40635 168.377 8.56367 168.572 8.56472 168.754C8.56472 168.933 8.41057 169.125 8.14028 169.282C7.80137 169.479 7.32097 169.592 6.82369 169.592V169.593Z" fill="#67C3EC"/>
<path d="M18.0712 175.988C17.5359 175.988 17.0186 175.867 16.6512 175.655C16.3555 175.485 16.1866 175.275 16.1855 175.081C16.1855 174.889 16.3513 174.682 16.6417 174.513C17.0059 174.301 17.5222 174.18 18.0564 174.18C18.5907 174.18 19.108 174.301 19.4755 174.513C19.7711 174.684 19.9411 174.893 19.9411 175.088C19.9411 175.28 19.7753 175.487 19.486 175.656C19.1218 175.868 18.6065 175.989 18.0723 175.989L18.0712 175.988Z" fill="black"/>
<path d="M134.751 152.477C133.474 153.214 133.466 154.409 134.735 155.146C136.004 155.884 138.071 155.883 139.348 155.146C140.626 154.409 140.632 153.215 139.363 152.478C138.094 151.74 136.029 151.74 134.751 152.478V152.477Z" fill="white"/>
<path d="M137.038 155.872C136.17 155.872 135.305 155.681 134.647 155.299C133.978 154.911 133.611 154.385 133.612 153.816C133.612 153.244 133.986 152.715 134.663 152.325C135.988 151.56 138.136 151.561 139.452 152.325C140.12 152.713 140.489 153.239 140.488 153.808C140.488 154.379 140.114 154.909 139.437 155.299C138.775 155.681 137.906 155.873 137.039 155.873L137.038 155.872ZM134.839 152.628C134.276 152.953 133.966 153.375 133.965 153.815C133.965 154.252 134.27 154.67 134.824 154.992C136.041 155.7 138.033 155.7 139.26 154.992C139.822 154.667 140.133 154.245 140.134 153.805C140.134 153.369 139.829 152.951 139.273 152.628C138.055 151.92 136.065 151.921 134.839 152.628Z" fill="#006FBA"/>
<path d="M137.042 154.652C137.541 154.652 138.022 154.539 138.365 154.341C138.64 154.183 138.798 153.988 138.798 153.806C138.798 153.627 138.644 153.435 138.374 153.278C138.034 153.081 137.554 152.968 137.057 152.968C136.56 152.968 136.078 153.081 135.735 153.278C135.46 153.436 135.302 153.631 135.301 153.813C135.301 153.992 135.455 154.184 135.726 154.341C136.065 154.538 136.545 154.651 137.042 154.651V154.652Z" fill="#67C3EC"/>
<path d="M113.822 166.967C114.357 166.967 114.875 166.845 115.242 166.633C115.538 166.463 115.707 166.254 115.708 166.059C115.708 165.867 115.542 165.661 115.252 165.492C114.887 165.28 114.371 165.159 113.837 165.159C113.303 165.159 112.785 165.28 112.418 165.492C112.122 165.663 111.952 165.872 111.952 166.067C111.952 166.259 112.118 166.466 112.407 166.634C112.771 166.846 113.287 166.968 113.821 166.968L113.822 166.967Z" fill="black"/>
<path d="M164.503 139.588C163.225 138.851 163.218 137.656 164.487 136.918C165.756 136.181 167.822 136.182 169.1 136.918C170.377 137.656 170.384 138.85 169.115 139.587C167.846 140.324 165.78 140.324 164.503 139.587V139.588Z" fill="white"/>
<path d="M166.811 140.314C165.943 140.314 165.076 140.123 164.413 139.741C163.737 139.351 163.363 138.82 163.363 138.249C163.363 137.681 163.73 137.155 164.397 136.766C165.714 136.003 167.863 136.002 169.188 136.766C169.864 137.157 170.238 137.686 170.238 138.258C170.238 138.825 169.871 139.353 169.202 139.741C168.544 140.123 167.678 140.314 166.811 140.314ZM164.591 139.435C165.817 140.142 167.806 140.143 169.025 139.435C169.58 139.113 169.887 138.695 169.886 138.258C169.886 137.818 169.574 137.396 169.011 137.071C167.785 136.364 165.793 136.364 164.576 137.071C164.022 137.393 163.715 137.812 163.716 138.248C163.716 138.688 164.028 139.11 164.591 139.435Z" fill="#006FBA"/>
<path d="M166.793 137.412C167.291 137.412 167.773 137.525 168.116 137.723C168.39 137.881 168.549 138.077 168.549 138.258C168.549 138.437 168.395 138.629 168.124 138.786C167.784 138.984 167.305 139.097 166.808 139.097C166.311 139.097 165.829 138.984 165.486 138.786C165.21 138.628 165.053 138.433 165.052 138.252C165.052 138.072 165.206 137.88 165.476 137.723C165.815 137.526 166.296 137.413 166.793 137.413V137.412Z" fill="#67C3EC"/>
<path d="M155.547 131.017C156.082 131.017 156.599 131.138 156.967 131.35C157.262 131.52 157.431 131.73 157.432 131.924C157.432 132.116 157.267 132.323 156.976 132.492C156.612 132.704 156.096 132.825 155.561 132.825C155.027 132.825 154.51 132.704 154.142 132.492C153.847 132.321 153.677 132.112 153.677 131.917C153.677 131.725 153.843 131.518 154.132 131.349C154.496 131.137 155.011 131.016 155.546 131.016L155.547 131.017Z" fill="black"/>
<path d="M36.2439 47.4455C37.8773 46.5036 39.1907 47.2514 39.196 49.1257C39.2013 50.9842 37.8963 53.2583 36.264 54.2002C34.6317 55.1421 33.3183 54.3784 33.313 52.5199C33.3077 50.6456 34.6127 48.3884 36.245 47.4465L36.2439 47.4455Z" fill="#006FBA"/>
<path d="M48.5272 40.3598C50.1458 39.4263 51.474 40.1657 51.4793 42.04C51.4845 43.8985 50.1658 46.181 48.5473 47.1144C46.915 48.0563 45.6005 47.2927 45.5952 45.4342C45.59 43.5599 46.8949 41.3016 48.5272 40.3608V40.3598Z" fill="#006FBA"/>
<path d="M60.8127 33.2663C62.4355 32.3307 63.7521 33.0796 63.7573 34.9581C63.7626 36.8208 62.4545 39.1002 60.8317 40.0368C59.1952 40.9808 57.8786 40.215 57.8733 38.3523C57.868 36.4738 59.1762 34.2103 60.8127 33.2663Z" fill="#006FBA"/>
</g>
<defs>
<clipPath id="clip0_1_1267">
<rect width="181" height="181" fill="white"/>
</clipPath>
</defs>
</svg>
