<svg width="152" height="157" viewBox="0 0 152 157" fill="none" xmlns="http://www.w3.org/2000/svg">
<path d="M131.546 118.526C131.52 118.526 131.495 118.52 131.471 118.505L95.4205 96.7737C94.5833 96.274 93.2233 96.2731 92.3888 96.7737L81.1945 103.496C81.1224 103.538 81.0324 103.513 80.9924 103.441C80.9514 103.368 80.9745 103.274 81.0458 103.232L92.24 96.5096C93.1565 95.9592 94.6501 95.9602 95.5701 96.5096L131.622 118.241C131.692 118.283 131.716 118.377 131.675 118.45C131.647 118.499 131.598 118.526 131.547 118.526H131.546Z" fill="#DBDEE4"/>
<path d="M82.5643 81.1094C82.5144 81.1094 82.4654 81.0827 82.4378 81.0358C82.396 80.963 82.4173 80.8692 82.4877 80.825L112.58 61.9386C112.892 61.7517 113.083 61.4075 113.083 61.0385V41.0605C113.083 40.9758 113.15 40.9077 113.231 40.9077C113.312 40.9077 113.379 40.9758 113.379 41.0605V61.0385C113.379 61.5161 113.13 61.9616 112.731 62.2018L82.6409 81.0864C82.6169 81.1011 82.5901 81.1085 82.5643 81.1085V81.1094Z" fill="#DBDEE4"/>
<g opacity="0.1">
<path d="M18.0414 156.447L5.94759 149.185C4.93851 148.579 4.94029 147.072 5.95115 146.469L71.8938 107.126C72.3649 106.845 72.9456 106.845 73.4159 107.128L86.7253 115.121C87.7344 115.726 87.7326 117.234 86.7218 117.837L21.9966 156.454C20.772 157.184 19.2633 157.182 18.0414 156.448V156.447Z" fill="#1E1E1E"/>
</g>
<path d="M5.33838 78.0088L68.3687 40.1577L73.9645 43.4958L10.9342 81.3478L5.33838 78.0088Z" fill="#F1F2F5"/>
<path d="M10.9341 81.5005C10.9083 81.5005 10.8834 81.4941 10.8602 81.4803L5.26533 78.1422C5.21991 78.1146 5.19141 78.0649 5.19141 78.0097C5.19141 77.9544 5.21902 77.9047 5.26533 77.8771L68.2947 40.0251C68.341 39.9975 68.3972 39.9975 68.4435 40.0251L74.0393 43.3632C74.0847 43.3908 74.1132 43.4405 74.1132 43.4957C74.1132 43.551 74.0856 43.6007 74.0393 43.6283L11.009 81.4803C10.9858 81.4941 10.96 81.5005 10.9341 81.5005ZM5.63494 78.0087L10.9341 81.1701L73.6687 43.4957L68.3687 40.3343L5.63494 78.0087Z" fill="black"/>
<path d="M79.0731 105.715L16.0454 143.567C15.4879 143.904 14.7095 143.855 13.8572 143.35C12.1632 142.338 10.7801 139.871 10.7854 137.859L10.9324 81.3496L73.9645 43.4976L73.8175 100.007C73.8122 102.018 75.1908 104.486 76.8902 105.498C77.7425 106.008 78.5155 106.052 79.0731 105.715Z" fill="#BEC4CD"/>
<path d="M15.2357 143.938C14.7877 143.938 14.2934 143.785 13.7831 143.482C12.0428 142.443 10.6311 139.92 10.6365 137.859L10.7843 81.3495C10.7843 81.2952 10.8128 81.2446 10.8583 81.217L73.8903 43.3649C73.9366 43.3373 73.9928 43.3373 74.0391 43.3649C74.0845 43.3926 74.113 43.4432 74.113 43.4975L73.966 100.007C73.9607 101.974 75.3055 104.377 76.9639 105.364C77.7369 105.827 78.4557 105.906 78.9918 105.586L78.999 105.582C79.0693 105.54 79.1602 105.564 79.2011 105.637C79.2421 105.71 79.218 105.804 79.1477 105.846C79.145 105.848 79.1423 105.85 79.1397 105.852L16.1201 143.699C15.8564 143.859 15.5581 143.938 15.2357 143.938ZM11.08 81.4379L10.9322 137.859C10.9268 139.823 12.2726 142.227 13.93 143.217C14.712 143.68 15.4361 143.758 15.9695 143.435L78.1618 106.085C77.7405 106.064 77.2836 105.912 76.8142 105.63C75.074 104.595 73.6632 102.072 73.6686 100.007L73.8146 43.7644L11.08 81.4379Z" fill="black"/>
<path d="M61.772 8.48584C61.1298 8.87239 60.7353 9.68781 60.7353 10.8557L60.6747 31.9639L6.20508 64.6758L6.26564 43.5612C6.26564 42.4006 6.66642 41.5778 7.30856 41.1913L61.772 8.48584Z" fill="white"/>
<path d="M6.20497 64.8291C6.17914 64.8291 6.15421 64.8227 6.13105 64.8089C6.08563 64.7813 6.05713 64.7306 6.05713 64.6754L6.11769 43.5608C6.11769 42.3819 6.51402 41.4928 7.23453 41.0593L61.6961 8.35387C61.6961 8.35387 61.6961 8.35387 61.697 8.35387C61.7683 8.31153 61.8582 8.33546 61.8992 8.40909C61.9402 8.48272 61.9161 8.57567 61.8458 8.61801C61.225 8.99259 60.8821 9.78685 60.8821 10.8554L60.8215 31.9635C60.8215 32.0178 60.793 32.0675 60.7476 32.0951L6.27978 64.8079C6.25663 64.8218 6.2308 64.8282 6.20497 64.8282V64.8291ZM60.9569 9.15181L7.38238 41.3235C6.75716 41.6999 6.41249 42.4951 6.41249 43.5608L6.35282 64.4094L60.5259 31.8761L60.5864 10.8554C60.5864 10.1826 60.7147 9.60462 60.956 9.15273L60.9569 9.15181Z" fill="black"/>
<path d="M73.9342 18.7327L73.7204 104.436L19.2561 137.148L19.4637 51.4446C19.4841 45.1292 15.1842 37.4323 9.86897 34.2608C7.19443 32.665 4.76748 32.5195 3.01562 33.5697L57.4861 0.865134C59.238 -0.192345 61.6587 -0.0395669 64.3395 1.55631C69.6547 4.72783 73.9475 12.4182 73.9342 18.7327Z" fill="white"/>
<path d="M19.2562 137.301C19.2304 137.301 19.2054 137.295 19.1823 137.281C19.1368 137.253 19.1083 137.203 19.1083 137.148L19.3159 51.4447C19.3363 45.1872 15.0649 37.5382 9.7951 34.3943C7.25593 32.8785 4.8744 32.6337 3.08959 33.7032C3.02013 33.7455 2.92839 33.7206 2.88742 33.6479C2.84645 33.5752 2.8705 33.4814 2.94086 33.439L57.4114 0.732659C59.2835 -0.395687 61.7683 -0.150874 64.4135 1.42292C69.759 4.61284 74.0963 12.3778 74.0821 18.7328L73.8683 104.436C73.8683 104.491 73.8398 104.541 73.7944 104.569L19.331 137.281C19.3078 137.295 19.282 137.301 19.2562 137.301ZM5.55128 32.7405C6.90235 32.7405 8.39771 33.2062 9.94294 34.1293C15.2947 37.322 19.632 45.0906 19.6115 51.4456L19.4049 136.882L73.5717 104.349L73.7855 18.7337C73.7997 12.4763 69.5283 4.83004 64.2647 1.68982C61.7175 0.174008 59.336 -0.0726449 57.5601 0.998639L4.53686 32.8334C4.86461 32.7718 5.20304 32.7405 5.55128 32.7405Z" fill="black"/>
<path d="M9.86797 34.2632C15.1823 37.4338 19.4805 45.1261 19.4626 51.4424L19.2534 137.145L13.1953 133.531L13.4046 47.8227C13.4109 45.4804 11.8193 42.6274 9.84748 41.4511C7.87119 40.2722 6.26896 41.2201 6.26272 43.5624L6.20483 64.6752L0.147705 61.0601L0.205596 39.9528C0.222517 33.6365 4.54827 31.0899 9.86797 34.2632Z" fill="white"/>
<path d="M19.2535 137.299C19.2277 137.299 19.2027 137.293 19.1796 137.279L13.1224 133.665C13.077 133.637 13.0485 133.586 13.0485 133.532L13.2578 47.824C13.2641 45.5332 11.7019 42.7345 9.77459 41.5849C8.86437 41.0419 8.01561 40.949 7.38594 41.3236C6.76072 41.6954 6.41427 42.4915 6.4116 43.5637L6.35371 64.6764C6.35371 64.7307 6.32521 64.7814 6.27978 64.809C6.23347 64.8357 6.17825 64.8366 6.13194 64.809L0.0739217 61.1929C0.0284999 61.1653 0 61.1147 0 61.0604L0.0578905 39.9532C0.0667967 36.8525 1.09636 34.5342 2.95865 33.427C4.83163 32.3115 7.31291 32.561 9.94292 34.1311C15.292 37.3219 19.6293 45.0887 19.6115 51.4428L19.4022 137.146C19.4022 137.201 19.3737 137.251 19.3283 137.279C19.3052 137.293 19.2793 137.299 19.2544 137.299H19.2535ZM13.3442 133.443L19.1056 136.88L19.3149 51.4419C19.3319 45.1853 15.0613 37.5382 9.79418 34.3952C7.26036 32.884 4.88507 32.6346 3.1056 33.6921C1.3395 34.7431 0.361593 36.9657 0.353577 39.9532L0.295687 60.9721L6.05802 64.4095L6.11502 43.5619C6.11858 42.3746 6.51669 41.4856 7.2372 41.0567C7.96217 40.6259 8.91603 40.718 9.92154 41.319C11.9299 42.5173 13.5588 45.4357 13.5526 47.824L13.3433 133.444L13.3442 133.443Z" fill="black"/>
<path d="M17.0911 98.8598L80.1205 61.0078L85.7198 64.3487L22.6895 102.2L17.0911 98.8598Z" fill="#F1F2F5"/>
<path d="M22.6894 102.353C22.6636 102.353 22.6386 102.347 22.6155 102.333L17.017 98.9923C16.9716 98.9647 16.9431 98.915 16.9431 98.8597C16.9431 98.8045 16.9707 98.7548 17.017 98.7272L80.0464 60.8752C80.0928 60.8476 80.1489 60.8476 80.1952 60.8752L85.7945 64.2161C85.8399 64.2437 85.8684 64.2934 85.8684 64.3486C85.8684 64.4038 85.8408 64.4535 85.7945 64.4811L22.7642 102.333C22.7411 102.347 22.7152 102.353 22.6894 102.353ZM17.3866 98.8588L22.6894 102.023L85.424 64.3486L80.1204 61.1844L17.3866 98.8588Z" fill="black"/>
<path d="M22.6895 102.2L22.5426 144.871C22.5274 150.551 18.6212 152.85 13.8385 149.996C9.05231 147.141 5.17542 140.198 5.19146 134.519L5.33841 78.0088L10.9342 81.3469L10.7872 137.857C10.7819 139.871 12.1606 142.336 13.8572 143.348C15.553 144.36 16.9379 143.544 16.9441 141.53L17.0911 98.8592L22.6904 102.2H22.6895Z" fill="black"/>
<path d="M17.7234 151.38C16.505 151.38 15.1575 150.96 13.7655 150.129C8.94096 147.25 5.02845 140.247 5.04448 134.519L5.19144 78.0089C5.19144 77.9546 5.21994 77.9039 5.26536 77.8763C5.31167 77.8496 5.36689 77.8487 5.4132 77.8763L11.0081 81.2144C11.0535 81.242 11.082 81.2927 11.082 81.347L10.936 137.857C10.9306 139.823 12.2746 142.226 13.9311 143.215C14.7069 143.677 15.4274 143.757 15.9662 143.438C16.4979 143.122 16.7927 142.444 16.7954 141.53L16.9423 98.8593C16.9423 98.805 16.9708 98.7544 17.0162 98.7268C17.0626 98.7001 17.1178 98.6992 17.1641 98.7268L22.7625 102.068C22.808 102.095 22.8365 102.146 22.8365 102.201L22.6904 144.872C22.6833 147.666 21.7508 149.756 20.0666 150.758C19.3675 151.173 18.5757 151.38 17.7216 151.38H17.7234ZM5.48623 78.2739L5.34017 134.52C5.32414 140.152 9.17074 147.035 13.9133 149.865C16.188 151.221 18.321 151.444 19.9206 150.493C21.5085 149.548 22.3876 147.552 22.3956 144.871L22.5417 102.289L17.2389 99.1244L17.0928 141.531C17.0902 142.558 16.7428 143.33 16.1149 143.704C15.4826 144.08 14.6552 144 13.7842 143.481C12.0448 142.444 10.6349 139.921 10.6403 137.858L10.7863 81.4362L5.48712 78.2739H5.48623Z" fill="black"/>
<path d="M85.5745 107.02C85.5638 109.842 84.5957 111.831 83.0389 112.766L20.0068 150.618C21.569 149.677 22.5371 147.693 22.5424 144.872L22.6894 102.201L63.4122 77.7494L63.3909 68.4916C63.3855 66.801 64.5433 64.7247 65.9737 63.8706L83.0968 53.6556C84.528 52.8025 85.6903 53.4927 85.6956 55.1834L85.5745 107.02Z" fill="#67C3EC"/>
<path d="M20.0069 150.771C19.9561 150.771 19.9062 150.744 19.8786 150.695C19.8377 150.621 19.8617 150.528 19.9321 150.486C21.5147 149.533 22.3893 147.539 22.3946 144.872L22.5416 102.2C22.5416 102.146 22.5701 102.096 22.6155 102.068L63.2645 77.6607L63.244 68.4913C63.2386 66.7472 64.4303 64.6147 65.9007 63.7377L83.0238 53.5227C83.7639 53.081 84.4702 53.0138 85.009 53.335C85.5452 53.6534 85.8417 54.3096 85.8444 55.183L85.7233 107.021C85.7126 109.807 84.7864 111.895 83.1147 112.899L20.0817 150.751C20.0576 150.765 20.0327 150.771 20.0069 150.771ZM22.8373 102.289L22.6912 144.873C22.6868 146.876 22.2049 148.52 21.3081 149.659L82.965 112.633C84.5432 111.686 85.4169 109.692 85.4267 107.019L85.5478 55.1821C85.5452 54.4238 85.302 53.8614 84.8612 53.5991C84.4185 53.3359 83.8174 53.4012 83.1717 53.7869L66.0485 64.0018C64.6601 64.8301 63.5343 66.8438 63.5396 68.4894L63.5601 77.7472C63.5601 77.8015 63.5325 77.8521 63.4862 77.8797L22.8373 102.287V102.289Z" fill="black"/>
<path d="M63.8569 113.432C64.792 112.874 65.5535 113.322 65.5562 114.429C65.5588 115.539 64.8027 116.894 63.8676 117.452C62.9377 118.007 62.1763 117.558 62.1736 116.448C62.1709 115.341 62.9271 113.987 63.8569 113.432Z" fill="white"/>
<path d="M63.1132 117.997C62.9004 117.997 62.7018 117.944 62.5236 117.838C62.1086 117.592 61.8797 117.097 61.8779 116.449C61.8735 115.224 62.6786 113.782 63.7091 113.167C64.2568 112.839 64.7894 112.795 65.208 113.043C65.6221 113.29 65.851 113.781 65.8528 114.429C65.8564 115.657 65.0495 117.101 64.0163 117.718C63.7046 117.904 63.3974 117.997 63.1141 117.997L63.1132 117.997ZM64.0048 113.697C63.1702 114.195 62.4675 115.455 62.4702 116.446C62.4711 116.867 62.5949 117.173 62.8193 117.306C63.042 117.438 63.3706 117.394 63.7198 117.185C64.5569 116.685 65.2623 115.423 65.2605 114.429C65.2596 114.01 65.1358 113.706 64.9123 113.572C64.6888 113.439 64.3592 113.484 64.0056 113.696L64.0048 113.697Z" fill="#67C3EC"/>
<path d="M56.5739 117.778C57.5091 117.221 58.2705 117.669 58.2732 118.776C58.2759 119.886 57.5198 121.241 56.5846 121.799C55.6548 122.354 54.8933 121.904 54.8906 120.794C54.888 119.687 55.6441 118.333 56.5739 117.778Z" fill="white"/>
<path d="M55.8314 122.344C55.6186 122.344 55.42 122.291 55.2418 122.185C54.8268 121.939 54.597 121.445 54.5952 120.796C54.5908 119.571 55.3959 118.129 56.4264 117.514C56.9741 117.186 57.5076 117.142 57.9253 117.39C58.3394 117.637 58.5683 118.129 58.5701 118.776C58.5736 120.003 57.7667 121.447 56.7336 122.064C56.4219 122.25 56.1146 122.345 55.8314 122.345V122.344ZM57.3348 117.846C57.1531 117.846 56.942 117.912 56.722 118.044C55.8875 118.542 55.1848 119.801 55.1875 120.793C55.1884 121.215 55.3122 121.521 55.5366 121.654C55.7602 121.787 56.0861 121.742 56.437 121.533C57.2742 121.033 57.9796 119.771 57.9778 118.777C57.9769 118.358 57.8531 118.054 57.6296 117.921C57.545 117.871 57.4452 117.847 57.3348 117.847V117.846Z" fill="#67C3EC"/>
<path d="M49.2924 122.125C50.2276 121.567 50.9891 122.015 50.9917 123.122C50.9944 124.232 50.2383 125.587 49.3031 126.145C48.3733 126.7 47.6118 126.251 47.6091 125.141C47.6065 124.033 48.3626 122.68 49.2924 122.125Z" fill="white"/>
<path d="M48.5487 126.69C48.3367 126.69 48.1381 126.637 47.9591 126.531C47.5441 126.284 47.3143 125.79 47.3125 125.141C47.3089 123.915 48.1141 122.474 49.1436 121.859C49.6923 121.532 50.2249 121.488 50.6426 121.736C51.0567 121.983 51.2856 122.474 51.2874 123.121C51.2909 124.349 50.484 125.794 49.4509 126.41C49.1392 126.596 48.8319 126.689 48.5487 126.69ZM50.053 122.192C49.8713 122.192 49.6602 122.258 49.4402 122.39C48.6057 122.887 47.903 124.146 47.9057 125.14C47.9066 125.561 48.0304 125.867 48.2557 126C48.4766 126.132 48.8052 126.088 49.1552 125.879C49.9924 125.379 50.6978 124.117 50.696 123.122C50.6951 122.702 50.5713 122.399 50.3478 122.266C50.2631 122.216 50.1634 122.192 50.053 122.192Z" fill="#67C3EC"/>
<path d="M84.9385 53.4727C84.4727 53.1865 83.8172 53.2279 83.0941 53.654L65.9763 63.8662C65.3012 64.2711 64.6929 64.9485 64.2333 65.7234C63.7203 66.5959 63.389 67.5945 63.389 68.4946L63.4157 77.653L57.9037 74.3508L57.877 65.1777C57.877 64.284 58.2083 63.2864 58.7213 62.4129C59.1808 61.638 59.7882 60.9606 60.4642 60.563L77.582 50.3435C78.3052 49.9174 78.9598 49.8686 79.4265 50.1548L84.9385 53.4709V53.4727Z" fill="#F1F2F5"/>
<path d="M63.4165 77.807C63.3907 77.807 63.3649 77.8006 63.3426 77.7868L57.8305 74.4846C57.7851 74.457 57.7566 74.4073 57.7566 74.353L57.729 65.1799C57.729 64.2945 58.0363 63.2849 58.5947 62.3351C59.0917 61.4966 59.7302 60.8211 60.3911 60.4318L77.508 50.2132C78.2641 49.7668 78.973 49.7006 79.5021 50.0254L84.9928 53.3277C84.9999 53.3323 85.007 53.3359 85.015 53.3405C85.0854 53.3838 85.1085 53.4777 85.0667 53.5495C85.0248 53.6222 84.9349 53.647 84.8645 53.6038L84.8458 53.5927C84.4103 53.3369 83.8154 53.404 83.1679 53.786L66.051 63.9982C65.4293 64.3709 64.8291 65.0115 64.3597 65.8029C63.8298 66.704 63.5368 67.6602 63.5368 68.494L63.5644 77.6524C63.5644 77.7076 63.5368 77.7583 63.4904 77.7859C63.4682 77.7997 63.4415 77.8061 63.4165 77.8061V77.807ZM58.0523 74.2637L63.2678 77.3883L63.2411 68.4968C63.2411 67.6068 63.5483 66.5945 64.1068 65.6456C64.6011 64.8117 65.2387 64.1334 65.9023 63.7359L83.02 53.5228C83.395 53.3019 83.7584 53.1749 84.095 53.1436L79.3516 50.2905C78.9169 50.0236 78.3149 50.0917 77.6558 50.4792L60.5389 60.6978C59.9199 61.0632 59.3197 61.701 58.8485 62.4952C58.3257 63.3834 58.0256 64.3617 58.0256 65.179L58.0532 74.2628L58.0523 74.2637Z" fill="black"/>
<path d="M64.2333 65.7246C63.7203 66.597 63.389 67.5956 63.389 68.4957L63.4157 77.6541L57.9037 74.3519L57.877 65.1788C57.877 64.2851 58.2083 63.2875 58.7213 62.4141" fill="#DBDEE4"/>
<path d="M63.4165 77.807C63.3907 77.807 63.3649 77.8005 63.3426 77.7867L57.8305 74.4845C57.7851 74.4569 57.7566 74.4072 57.7566 74.3529L57.729 65.1798C57.729 64.2944 58.0363 63.2848 58.5947 62.335C58.6365 62.2614 58.7283 62.2402 58.7986 62.2835C58.869 62.3267 58.8904 62.4215 58.8485 62.4933C58.3248 63.3824 58.0256 64.3607 58.0256 65.178L58.0532 74.2618L63.2687 77.3864L63.242 68.4949C63.242 67.6049 63.5492 66.5926 64.1076 65.6437C64.1495 65.571 64.2412 65.5489 64.3116 65.5921C64.382 65.6354 64.4033 65.7302 64.3615 65.802C63.8307 66.7039 63.5385 67.6592 63.5385 68.4931L63.5661 77.6514C63.5661 77.7067 63.5385 77.7573 63.4922 77.7849C63.47 77.7987 63.4432 77.8051 63.4183 77.8051L63.4165 77.807Z" fill="black"/>
<path d="M32.0474 36.9741L32.0776 48.1112L41.4568 42.5155C41.4737 48.6726 37.2851 56.1707 32.1088 59.2585C26.9236 62.3527 22.7065 59.8696 22.6905 53.7115C22.6736 47.5599 26.863 40.0674 32.0483 36.9741H32.0474Z" fill="#BEC4CD"/>
<path d="M33.4722 34.2259C38.6485 31.1381 42.8647 33.6203 42.8816 39.7728L33.5025 45.3685L33.4722 34.2268V34.2259Z" fill="#67C3EC"/>
<path d="M13.9043 33.0516C13.8536 33.0516 13.8037 33.024 13.7761 32.9752C13.7351 32.9025 13.7592 32.8087 13.8295 32.7663L61.697 4.02574C61.7682 3.98341 61.8582 4.00734 61.8991 4.08096C61.9401 4.15367 61.9161 4.24755 61.8457 4.28988L13.9792 33.0305C13.9551 33.0443 13.9302 33.0507 13.9043 33.0507V33.0516Z" fill="black"/>
<path d="M18.0931 36.7338C18.0423 36.7338 17.9924 36.7062 17.9648 36.6574C17.9238 36.5847 17.9479 36.4908 18.0183 36.4485L65.8866 7.70787C65.9569 7.66554 66.0478 7.68947 66.0887 7.76309C66.1297 7.8358 66.1057 7.92968 66.0353 7.97201L18.1679 36.7135C18.1438 36.7273 18.1189 36.7338 18.0931 36.7338Z" fill="black"/>
<path d="M44.9292 28.1333C44.8785 28.1333 44.8286 28.1057 44.801 28.0569C44.76 27.9842 44.7841 27.8903 44.8544 27.848L68.7881 13.4777C68.8594 13.4354 68.9494 13.4602 68.9903 13.5329C69.0313 13.6056 69.0072 13.6995 68.9369 13.7418L45.0032 28.1121C44.9791 28.1259 44.9542 28.1324 44.9284 28.1324L44.9292 28.1333Z" fill="black"/>
<path d="M46.3365 34.9149C46.2857 34.9149 46.2358 34.8873 46.2082 34.8385C46.1673 34.7658 46.1913 34.672 46.2617 34.6296L68.7873 21.1051C68.8585 21.0628 68.9485 21.0876 68.9895 21.1604C69.0304 21.2331 69.0064 21.3269 68.936 21.3693L46.4104 34.8938C46.3863 34.9076 46.3614 34.914 46.3356 34.914L46.3365 34.9149Z" fill="black"/>
<path d="M46.3365 42.1666C46.2857 42.1666 46.2358 42.139 46.2082 42.0902C46.1673 42.0175 46.1913 41.9236 46.2617 41.8813L68.7873 28.3568C68.8585 28.3145 68.9485 28.3384 68.9895 28.412C69.0304 28.4847 69.0064 28.5786 68.936 28.6209L46.4104 42.1454C46.3863 42.1592 46.3614 42.1657 46.3356 42.1657L46.3365 42.1666Z" fill="black"/>
<path d="M46.3365 49.4188C46.2857 49.4188 46.2358 49.3912 46.2082 49.3424C46.1673 49.2697 46.1913 49.1759 46.2617 49.1335L68.7873 35.609C68.8585 35.5667 68.9485 35.5916 68.9895 35.6643C69.0304 35.737 69.0064 35.8308 68.936 35.8732L46.4104 49.3977C46.3863 49.4115 46.3614 49.4179 46.3356 49.4179L46.3365 49.4188Z" fill="black"/>
<path d="M22.6895 70.8697C22.6387 70.8697 22.5889 70.8421 22.5613 70.7933C22.5203 70.7206 22.5443 70.6267 22.6147 70.5844L68.7873 42.8617C68.8585 42.8193 68.9485 42.8433 68.9894 42.9169C69.0304 42.9896 69.0064 43.0835 68.936 43.1258L22.7643 70.8494C22.7403 70.8632 22.7153 70.8697 22.6895 70.8697Z" fill="black"/>
<path d="M22.6895 78.1216C22.6387 78.1216 22.5889 78.094 22.5613 78.0452C22.5203 77.9725 22.5443 77.8787 22.6147 77.8363L68.7873 50.1136C68.8585 50.0713 68.9485 50.0952 68.9894 50.1689C69.0304 50.2416 69.0064 50.3354 68.936 50.3778L22.7643 78.1014C22.7403 78.1152 22.7153 78.1216 22.6895 78.1216Z" fill="black"/>
<path d="M22.6895 85.374C22.6387 85.374 22.5889 85.3464 22.5613 85.2976C22.5203 85.2249 22.5443 85.1311 22.6147 85.0887L52.4123 67.1981C52.4826 67.1558 52.5735 67.1797 52.6144 67.2533C52.6554 67.326 52.6314 67.4199 52.561 67.4622L22.7634 85.3529C22.7394 85.3667 22.7144 85.3731 22.6886 85.3731L22.6895 85.374Z" fill="black"/>
<path d="M146.097 52.7196L148.526 51.2608L148.537 47.145L146.109 48.6038L146.097 52.7196Z" fill="white"/>
<path d="M146.097 52.8732C146.071 52.8732 146.046 52.8668 146.023 52.853C145.978 52.8254 145.949 52.7748 145.949 52.7205L145.96 48.6047C145.96 48.5504 145.988 48.4997 146.034 48.4721L148.463 47.0134C148.51 46.9858 148.566 46.9858 148.612 47.0134C148.658 47.041 148.686 47.0916 148.686 47.1459L148.675 51.2617C148.675 51.316 148.647 51.3666 148.601 51.3942L146.172 52.853C146.149 52.8668 146.123 52.8732 146.097 52.8732ZM146.256 48.6921L146.246 52.4536L148.378 51.1724L148.389 47.411L146.256 48.6912V48.6921Z" fill="black"/>
<path d="M114.517 1.80651C114.918 1.56262 115.478 1.59575 116.089 1.96481L147.212 20.5319C148.44 21.2617 149.427 23.038 149.421 24.4848L149.357 47.9058C149.357 48.6291 149.109 49.1353 148.708 49.3792L151.138 47.9186C151.539 47.6757 151.787 47.1686 151.787 46.4452L151.85 23.0306C151.856 21.5774 150.863 19.8011 149.641 19.0713L118.52 0.504218C117.909 0.136079 117.348 0.102947 116.948 0.346839L114.518 1.80743L114.517 1.80651Z" fill="#F1F2F5"/>
<path d="M148.708 49.5324C148.658 49.5324 148.609 49.5048 148.58 49.456C148.539 49.3833 148.563 49.2894 148.633 49.2471C149.004 49.0216 149.208 48.5449 149.208 47.9061L149.271 24.4851C149.277 23.0825 148.32 21.3689 147.136 20.6657L116.015 2.09771C115.483 1.77651 114.968 1.71761 114.599 1.93573L114.592 1.94033C114.521 1.98175 114.431 1.95782 114.39 1.88511C114.349 1.8124 114.373 1.71853 114.442 1.67619C114.445 1.67435 114.449 1.67251 114.451 1.67067L116.873 0.21468C117.334 -0.0660259 117.962 -0.00804406 118.595 0.372979L149.717 18.9391C150.983 19.6947 152.007 21.5308 152 23.0319L151.936 46.4465C151.936 47.1984 151.679 47.769 151.214 48.0515L148.783 49.5131C148.759 49.5269 148.734 49.5333 148.708 49.5333V49.5324ZM115.302 1.51237C115.578 1.54826 115.871 1.65502 116.164 1.83265L147.287 20.3988C148.552 21.1507 149.577 22.9841 149.57 24.4842L149.506 47.9043C149.506 48.2503 149.452 48.5568 149.349 48.8163L151.064 47.7846C151.435 47.5601 151.64 47.0833 151.64 46.4437L151.703 23.0292C151.71 21.6265 150.751 19.9101 149.569 19.2024L118.445 0.637119C117.909 0.313157 117.389 0.255175 117.022 0.478819L115.301 1.51329L115.302 1.51237Z" fill="black"/>
<path d="M116.092 1.96236C114.869 1.23253 113.874 1.82339 113.87 3.2757L113.806 26.693C113.802 28.1453 114.79 29.9188 116.014 30.6487L142.106 46.2163L146.098 52.7204L146.109 48.6046L147.137 49.2176C148.36 49.9474 149.355 49.3565 149.359 47.9042L149.423 24.4869C149.427 23.0346 148.439 21.2611 147.216 20.5313L116.092 1.96236Z" fill="white"/>
<path d="M146.097 52.8733C146.047 52.8733 146 52.8475 145.972 52.8025L142 46.3306L115.94 30.7822C114.678 30.0294 113.654 28.1951 113.659 26.6931L113.723 3.27676C113.726 2.51839 113.983 1.94778 114.45 1.67075C114.917 1.39281 115.527 1.44987 116.167 1.83181L147.29 20.4007C148.552 21.1536 149.576 22.9878 149.571 24.4889L149.507 47.9062C149.505 48.6646 149.247 49.2352 148.78 49.5122C148.313 49.7911 147.703 49.7331 147.063 49.3512L146.256 48.8698L146.246 52.7215C146.246 52.7896 146.202 52.8494 146.139 52.8687C146.125 52.8724 146.111 52.8752 146.098 52.8752L146.097 52.8733ZM115.102 1.80236C114.915 1.80236 114.745 1.84654 114.597 1.93489C114.226 2.15577 114.02 2.63159 114.019 3.27676L113.954 26.6931C113.95 28.0967 114.907 29.8122 116.087 30.5163L142.18 46.0839C142.201 46.0959 142.218 46.1134 142.231 46.1345L145.95 52.195L145.96 48.6038C145.96 48.5495 145.988 48.4989 146.034 48.4713C146.08 48.4446 146.135 48.4437 146.182 48.4713L147.21 49.0852C147.755 49.4101 148.259 49.468 148.632 49.2453C149.002 49.0244 149.208 48.5486 149.21 47.9035L149.274 24.4861C149.278 23.0826 148.321 21.3671 147.14 20.663L116.018 2.09503C115.691 1.89992 115.379 1.80236 115.102 1.80236Z" fill="black"/>
<path d="M129.213 20.5883C128.709 20.2873 128.301 20.5275 128.3 21.1257C128.299 21.724 128.704 22.4538 129.208 22.7548L142.351 30.5961C142.855 30.8971 143.266 30.6541 143.268 30.0559C143.27 29.4576 142.861 28.7297 142.357 28.4296L129.214 20.5883H129.213Z" fill="#DBDEE4"/>
<path d="M136.941 30.8959C136.437 30.5949 136.029 30.8351 136.028 31.4334C136.027 32.0316 136.432 32.7614 136.936 33.0624L142.351 36.2937C142.855 36.5947 143.266 36.3517 143.268 35.7535C143.27 35.1552 142.861 34.4273 142.357 34.1272L136.942 30.8959H136.941Z" fill="white"/>
<path d="M142.76 36.5765C142.609 36.5765 142.444 36.5259 142.277 36.4265L136.862 33.1961C136.311 32.8675 135.879 32.0935 135.88 31.4346C135.881 31.0894 136.002 30.8271 136.221 30.6974C136.442 30.5657 136.725 30.5906 137.016 30.7645L142.431 33.9959C142.986 34.3263 143.419 35.0994 143.417 35.7556C143.416 36.1007 143.294 36.363 143.074 36.4937C142.98 36.5498 142.874 36.5774 142.761 36.5774L142.76 36.5765ZM136.532 30.9192C136.471 30.9192 136.416 30.933 136.368 30.9615C136.245 31.0351 136.176 31.2026 136.176 31.4346C136.175 31.9748 136.557 32.6605 137.01 32.9301L142.425 36.1605C142.622 36.2783 142.8 36.3013 142.925 36.2268C143.05 36.1522 143.119 35.9838 143.119 35.7528C143.121 35.2153 142.737 34.5315 142.282 34.26L136.867 31.0287C136.746 30.956 136.631 30.9192 136.532 30.9192Z" fill="black"/>
<path d="M96.6381 11.45C97.0389 11.207 97.5991 11.2392 98.2163 11.6074L129.333 30.1745C130.555 30.9043 131.548 32.6741 131.548 34.1273L131.485 57.5483C131.478 58.2717 131.236 58.7779 130.835 59.0154L133.265 57.5548C133.66 57.3182 133.908 56.8121 133.914 56.0877L133.977 32.6668C133.977 31.2135 132.984 29.4437 131.762 28.7139L100.646 10.1468C100.029 9.77866 99.4685 9.74552 99.0677 9.98942L96.6372 11.45H96.6381Z" fill="#F1F2F5"/>
<path d="M130.834 59.168C130.784 59.168 130.734 59.1404 130.706 59.0916C130.666 59.018 130.689 58.925 130.76 58.8827L130.774 58.8744C131.131 58.6554 131.33 58.1851 131.336 57.5473L131.399 34.1272C131.399 32.7265 130.439 31.0128 129.258 30.3069L98.1413 11.7398C97.5963 11.414 97.0931 11.3569 96.7199 11.5769L96.7119 11.5824C96.6406 11.6238 96.5507 11.5999 96.5097 11.5272C96.4688 11.4545 96.4919 11.3606 96.5623 11.3183C96.5658 11.3164 96.5685 11.3146 96.5721 11.3127L98.9928 9.85768C99.4612 9.57421 100.075 9.62943 100.72 10.016L131.836 28.5831C133.099 29.3368 134.126 31.1692 134.126 32.6685L134.062 56.0895C134.056 56.8451 133.798 57.412 133.339 57.6881L130.924 59.1386C130.919 59.1422 130.914 59.145 130.907 59.1487C130.884 59.1625 130.858 59.1689 130.833 59.1689L130.834 59.168ZM97.4262 11.1526C97.6996 11.1885 97.9908 11.2971 98.2901 11.4747L129.407 30.0418C130.67 30.7956 131.696 32.628 131.696 34.1272L131.632 57.5482C131.63 57.8924 131.575 58.198 131.473 58.4538L133.19 57.4221C133.556 57.2031 133.76 56.7282 133.766 56.0867L133.83 32.6666C133.83 31.2649 132.869 29.5513 131.688 28.8463L100.572 10.2792C100.021 9.95063 99.5138 9.89541 99.1424 10.1209L97.4262 11.1526Z" fill="black"/>
<path d="M98.2153 11.6079C96.9925 10.8781 95.9932 11.4616 95.9897 12.9139L95.9255 36.3358C95.922 37.7881 96.9141 39.5598 98.137 40.2896L99.1612 40.9007L99.1496 45.0165L103.167 43.2909L129.255 58.8558C130.478 59.5856 131.477 59.0021 131.481 57.5498L131.545 34.1279C131.549 32.6756 130.557 30.9039 129.334 30.1741L98.2144 11.6079H98.2153Z" fill="white"/>
<path d="M130.252 59.3242C129.921 59.3242 129.556 59.211 129.181 58.9883L103.156 43.4612L99.2057 45.1574C99.1603 45.1767 99.1068 45.1721 99.0667 45.1426C99.0249 45.1141 99.0008 45.0662 99.0008 45.0156L99.0124 40.9882L98.0621 40.4222C96.7974 39.6675 95.7723 37.8342 95.7759 36.3358L95.84 12.9139C95.8427 12.1583 96.0992 11.5905 96.5641 11.3134C97.0326 11.0346 97.6462 11.0916 98.2883 11.4754L129.408 30.0416C130.671 30.7963 131.697 32.6287 131.693 34.1279L131.629 57.5498C131.627 58.3054 131.37 58.8733 130.906 59.1503C130.71 59.2672 130.489 59.3242 130.252 59.3242ZM103.167 43.1372C103.193 43.1372 103.219 43.1436 103.241 43.1574L129.33 58.7223C129.877 59.0481 130.385 59.1061 130.758 58.8834C131.127 58.6634 131.331 58.1895 131.333 57.548L131.397 34.1261C131.402 32.7244 130.442 31.0107 129.26 30.3048L98.1405 11.7386C97.5919 11.4119 97.0842 11.3549 96.7128 11.5776C96.3432 11.7975 96.1384 12.2715 96.1366 12.913L96.0725 36.3349C96.068 37.7366 97.0272 39.4503 98.21 40.1562L99.2342 40.7673C99.2796 40.7949 99.3081 40.8455 99.3081 40.8998L99.2974 44.7855L103.11 43.1482C103.128 43.1409 103.148 43.1363 103.167 43.1363V43.1372Z" fill="black"/>
<path d="M102.928 25.1762C102.423 24.8752 102.016 25.1154 102.015 25.7136C102.013 26.3119 102.418 27.0417 102.922 27.3427L124.54 40.2404C125.044 40.5413 125.456 40.2984 125.458 39.7001C125.459 39.1019 125.05 38.3739 124.547 38.0739L102.928 25.1762H102.928Z" fill="#DBDEE4"/>
<path d="M110.09 35.1459C109.586 34.8449 109.178 35.0851 109.177 35.6834C109.175 36.2816 109.58 37.0114 110.085 37.3124L124.54 45.9369C125.044 46.2379 125.456 45.9949 125.458 45.3967C125.459 44.7985 125.05 44.0705 124.546 43.7705L110.091 35.1459H110.09Z" fill="white"/>
<path d="M124.949 46.2207C124.798 46.2207 124.633 46.1701 124.465 46.0707L110.009 37.4461C109.457 37.1166 109.026 36.3426 109.027 35.6846C109.028 35.3394 109.149 35.0771 109.368 34.9474C109.589 34.8157 109.872 34.8406 110.163 35.0145L124.619 43.6391C125.173 43.9695 125.605 44.7417 125.605 45.3979C125.604 45.743 125.482 46.0053 125.262 46.1369C125.167 46.1931 125.061 46.2207 124.948 46.2207H124.949ZM109.681 35.1692C109.621 35.1692 109.564 35.183 109.517 35.2115C109.394 35.2851 109.326 35.4526 109.325 35.6846C109.323 36.2248 109.704 36.9095 110.158 37.1801L124.614 45.8047C124.81 45.9206 124.987 45.9464 125.115 45.871C125.239 45.7964 125.309 45.628 125.309 45.397C125.31 44.8595 124.926 44.1757 124.472 43.9042L110.016 35.2796C109.895 35.2069 109.78 35.1701 109.681 35.1701V35.1692Z" fill="black"/>
<g opacity="0.1">
<path d="M100.586 144.354C99.2277 145.164 99.2277 146.481 100.577 147.291L111.21 153.676C112.559 154.486 114.752 154.486 116.11 153.676L150.823 132.965C152.189 132.151 152.196 130.839 150.846 130.028L140.213 123.642C138.864 122.832 136.664 122.828 135.299 123.642L100.586 144.353V144.354Z" fill="#1E1E1E"/>
</g>
<path d="M97.8936 139.413L97.9176 143.002C97.9336 143.533 98.2658 144.065 98.9383 144.474L109.572 150.851C109.817 150.998 110.094 151.12 110.395 151.219C111.289 151.513 112.365 151.537 113.307 151.309C113.734 151.211 114.13 151.056 114.478 150.851L149.18 130.141C149.877 129.732 150.209 129.193 150.209 128.661L150.185 125.063C150.185 125.603 149.836 126.135 149.156 126.543L114.439 147.261C114.106 147.457 113.719 147.613 113.308 147.703C112.374 147.941 111.305 147.916 110.396 147.638C110.087 147.54 109.795 147.417 109.542 147.261L98.916 140.868C98.2356 140.476 97.8953 139.935 97.8953 139.413H97.8936Z" fill="#BEC4CD"/>
<path d="M110.395 147.638V151.219C111.289 151.513 112.365 151.537 113.306 151.309V147.703C112.373 147.94 111.304 147.916 110.395 147.638Z" fill="#DBDEE4"/>
<path d="M112.014 151.614C111.1 151.614 110.188 151.405 109.498 150.986L98.8617 144.607C98.1822 144.196 97.7841 143.612 97.7707 143.008L97.7476 139.427V139.412C97.7476 139.326 97.8135 139.258 97.8954 139.257C97.9773 139.257 98.0432 139.325 98.0432 139.409V139.424C98.0504 139.915 98.3924 140.391 98.9846 140.733L109.612 147.126C110.921 147.913 113.054 147.913 114.364 147.126L149.08 126.412C149.697 126.044 150.035 125.566 150.035 125.062C150.035 124.978 150.101 124.91 150.183 124.91C150.265 124.91 150.331 124.978 150.331 125.062L150.354 128.656C150.354 129.282 149.961 129.855 149.25 130.272L114.546 150.986C113.844 151.404 112.926 151.613 112.013 151.613L112.014 151.614ZM98.0504 140.307L98.0682 143.004C98.0789 143.497 98.4226 143.986 99.0113 144.342L109.647 150.721C110.947 151.509 113.08 151.509 114.4 150.721L149.104 130.006C149.721 129.645 150.059 129.166 150.059 128.657L150.042 125.951C149.855 126.22 149.582 126.467 149.229 126.677L114.514 147.391C113.122 148.228 110.856 148.228 109.463 147.391L98.8386 141C98.5028 140.806 98.2356 140.569 98.0504 140.307Z" fill="black"/>
<path d="M98.9177 137.934C97.5595 138.744 97.5595 140.061 98.9088 140.871L109.542 147.257C110.891 148.067 113.084 148.067 114.442 147.257L149.155 126.546C150.52 125.732 150.528 124.419 149.178 123.608L138.545 117.223C137.196 116.413 134.996 116.408 133.631 117.223L98.9177 137.933V137.934Z" fill="white"/>
<path d="M111.988 148.014C111.075 148.014 110.161 147.806 109.467 147.389L98.8339 141.004C98.1339 140.583 97.7482 140.014 97.75 139.403C97.75 138.79 98.1392 138.222 98.8437 137.801L133.557 117.09C134.958 116.254 137.229 116.255 138.62 117.09L149.253 123.476C149.95 123.895 150.333 124.46 150.332 125.068C150.332 125.682 149.94 126.254 149.229 126.678L114.516 147.388C113.818 147.805 112.903 148.013 111.988 148.013V148.014ZM98.9167 137.934L98.9906 138.067C98.3815 138.431 98.0457 138.905 98.0457 139.404C98.0448 139.902 98.377 140.376 98.9826 140.74L109.616 147.125C110.921 147.909 113.053 147.909 114.367 147.125L149.08 126.415C149.696 126.047 150.035 125.57 150.036 125.069C150.036 124.575 149.705 124.104 149.103 123.742L138.47 117.356C137.161 116.57 135.022 116.57 133.704 117.356L98.9915 138.067L98.9176 137.934H98.9167Z" fill="black"/>
<path d="M129.112 84.6934L129.222 124.682L136.313 128.941L136.204 88.9518L129.112 84.6934Z" fill="black"/>
<path d="M136.313 129.094C136.287 129.094 136.262 129.087 136.238 129.073L129.146 124.815C129.101 124.787 129.072 124.738 129.072 124.682L128.963 84.6943C128.963 84.64 128.991 84.5884 129.037 84.5617C129.083 84.5341 129.139 84.5341 129.186 84.5617L136.277 88.8202C136.322 88.8478 136.351 88.8975 136.351 88.9527L136.46 128.942C136.46 128.996 136.432 129.048 136.386 129.074C136.363 129.088 136.337 129.095 136.312 129.095L136.313 129.094ZM129.37 124.594L136.164 128.675L136.055 89.041L129.261 84.9612L129.37 124.595V124.594Z" fill="black"/>
<path d="M136.204 88.9516L136.313 128.941L143.456 124.679L143.346 84.6904L136.204 88.9516Z" fill="white"/>
<path d="M136.313 129.093C136.287 129.093 136.262 129.087 136.239 129.073C136.194 129.046 136.165 128.996 136.165 128.941L136.056 88.9516C136.056 88.8973 136.084 88.8457 136.13 88.819L143.272 84.5578C143.319 84.5302 143.374 84.5302 143.42 84.5578C143.466 84.5854 143.494 84.6351 143.494 84.6903L143.604 124.678C143.604 124.733 143.575 124.784 143.53 124.811L136.387 129.073C136.364 129.087 136.338 129.093 136.313 129.093ZM136.351 89.0399L136.461 128.676L143.308 124.59L143.199 84.9545L136.352 89.0399H136.351Z" fill="black"/>
<path d="M129.112 84.6933L136.204 88.9518L143.347 84.6906L136.256 80.4321L129.112 84.6933Z" fill="#67C3EC"/>
<path d="M136.204 89.1044C136.178 89.1044 136.152 89.098 136.129 89.0842L129.038 84.8257C128.992 84.7981 128.964 84.7475 128.964 84.6932C128.964 84.6389 128.992 84.5883 129.038 84.5607L136.181 80.2985C136.227 80.2709 136.283 80.2709 136.329 80.2985L143.421 84.557C143.467 84.5846 143.495 84.6352 143.495 84.6895C143.495 84.7438 143.467 84.7944 143.421 84.822L136.279 89.0833C136.255 89.0971 136.23 89.1035 136.205 89.1035L136.204 89.1044ZM129.408 84.6932L136.204 88.774L143.051 84.6895L136.255 80.6078L129.408 84.6932Z" fill="black"/>
<path d="M116.877 100.509L116.987 131.981L124.079 136.24L123.968 104.769L116.877 100.509Z" fill="black"/>
<path d="M124.079 136.394C124.053 136.394 124.027 136.387 124.004 136.373L116.912 132.115C116.867 132.087 116.838 132.038 116.838 131.983L116.729 100.512C116.729 100.457 116.756 100.406 116.802 100.379C116.849 100.351 116.905 100.351 116.951 100.379L124.042 104.637C124.088 104.665 124.116 104.714 124.116 104.769L124.227 136.24C124.227 136.295 124.199 136.346 124.153 136.373C124.13 136.387 124.104 136.394 124.079 136.394ZM117.135 131.893L123.929 135.973L123.821 104.856L117.027 100.776L117.135 131.893Z" fill="black"/>
<path d="M123.968 104.768L124.079 136.24L131.221 131.979L131.112 100.506L123.968 104.768Z" fill="white"/>
<path d="M124.079 136.393C124.053 136.393 124.028 136.387 124.005 136.373C123.959 136.346 123.931 136.295 123.931 136.241L123.821 104.769C123.821 104.714 123.85 104.664 123.895 104.636L131.038 100.375C131.084 100.347 131.14 100.347 131.186 100.375C131.231 100.402 131.26 100.452 131.26 100.507L131.369 131.979C131.369 132.034 131.341 132.084 131.295 132.112L124.153 136.374C124.129 136.388 124.104 136.394 124.079 136.394V136.393ZM124.117 104.857L124.226 135.976L131.073 131.89L130.965 100.771L124.118 104.857H124.117Z" fill="black"/>
<path d="M116.877 100.509L123.969 104.769L131.112 100.506L124.02 96.248L116.877 100.509Z" fill="#67C3EC"/>
<path d="M123.968 104.921C123.943 104.921 123.917 104.915 123.894 104.901L116.802 100.643C116.757 100.615 116.729 100.564 116.729 100.51C116.729 100.456 116.757 100.405 116.802 100.378L123.945 96.1164C123.992 96.0888 124.048 96.0888 124.094 96.1164L131.186 100.375C131.231 100.402 131.26 100.453 131.26 100.507C131.26 100.562 131.231 100.612 131.186 100.64L124.043 104.901C124.02 104.915 123.994 104.921 123.969 104.921H123.968ZM117.174 100.51L123.969 104.592L130.816 100.507L124.021 96.4256L117.174 100.51Z" fill="black"/>
<path d="M104.648 116.324L104.757 139.278L111.849 143.537L111.739 120.582L104.648 116.324Z" fill="black"/>
<path d="M111.849 143.689C111.823 143.689 111.797 143.683 111.774 143.669L104.682 139.411C104.636 139.383 104.608 139.333 104.608 139.279L104.498 116.325C104.498 116.269 104.526 116.219 104.572 116.191C104.618 116.164 104.675 116.164 104.721 116.191L111.813 120.45C111.858 120.477 111.887 120.527 111.887 120.581L111.996 143.536C111.996 143.591 111.969 143.641 111.923 143.669C111.9 143.683 111.874 143.689 111.849 143.689ZM104.904 139.19L111.699 143.27L111.59 120.67L104.796 116.591L104.904 139.19Z" fill="black"/>
<path d="M111.739 120.582L111.849 143.537L118.986 139.278L118.877 116.324L111.739 120.582Z" fill="white"/>
<path d="M111.849 143.689C111.823 143.689 111.798 143.683 111.775 143.669C111.728 143.641 111.7 143.592 111.7 143.537L111.59 120.583C111.59 120.528 111.618 120.477 111.664 120.45L118.803 116.191C118.849 116.164 118.905 116.164 118.95 116.191C118.997 116.219 119.025 116.268 119.025 116.323L119.135 139.277C119.135 139.332 119.107 139.383 119.061 139.411L111.923 143.669C111.9 143.683 111.874 143.689 111.85 143.689H111.849ZM111.888 120.67L111.996 143.272L118.838 139.19L118.73 116.588L111.889 120.67H111.888Z" fill="black"/>
<path d="M104.648 116.324L111.739 120.582L118.877 116.324L111.785 112.065L104.648 116.324Z" fill="#67C3EC"/>
<path d="M111.739 120.735C111.713 120.735 111.687 120.729 111.664 120.715L104.572 116.456C104.527 116.429 104.498 116.378 104.498 116.324C104.498 116.269 104.527 116.219 104.572 116.191L111.711 111.933C111.757 111.905 111.813 111.905 111.859 111.933L118.951 116.191C118.997 116.219 119.025 116.269 119.025 116.324C119.025 116.378 118.997 116.429 118.951 116.456L111.813 120.715C111.79 120.729 111.764 120.735 111.739 120.735ZM104.943 116.324L111.738 120.406L118.58 116.324L111.784 112.243L104.943 116.325V116.324Z" fill="black"/>
<path d="M134.465 154.234C134.415 154.234 134.365 154.207 134.337 154.158C134.296 154.085 134.32 153.991 134.391 153.949L149.162 145.047C149.546 144.818 149.757 144.523 149.757 144.215C149.757 143.911 149.55 143.617 149.171 143.391L140.283 138.078C140.212 138.035 140.188 137.941 140.229 137.869C140.27 137.795 140.361 137.77 140.431 137.813L149.32 143.126C149.794 143.41 150.054 143.798 150.053 144.216C150.053 144.638 149.789 145.027 149.309 145.313L134.538 154.214C134.514 154.229 134.489 154.235 134.464 154.235L134.465 154.234Z" fill="#DBDEE4"/>
<path d="M134.191 156.231C135.262 155.592 135.269 154.555 134.204 153.915C133.14 153.275 131.407 153.276 130.335 153.915C129.264 154.555 129.259 155.591 130.323 156.231C131.387 156.87 133.12 156.87 134.191 156.231V156.231Z" fill="white"/>
<path d="M132.255 156.862C131.527 156.862 130.8 156.696 130.248 156.365C129.687 156.028 129.379 155.572 129.38 155.078C129.38 154.583 129.693 154.123 130.261 153.784C131.372 153.121 133.175 153.122 134.279 153.784C134.839 154.121 135.148 154.578 135.147 155.071C135.147 155.567 134.833 156.027 134.265 156.366C133.71 156.697 132.982 156.863 132.255 156.863V156.862ZM132.273 153.588C131.598 153.588 130.924 153.742 130.409 154.049C129.937 154.33 129.676 154.697 129.676 155.078C129.676 155.457 129.931 155.819 130.397 156.099C131.419 156.712 133.087 156.713 134.117 156.099C134.589 155.817 134.85 155.451 134.85 155.068C134.85 154.689 134.594 154.327 134.13 154.048C133.619 153.741 132.946 153.587 132.273 153.587V153.588Z" fill="#DBDEE4"/>
<path d="M132.269 154.343C131.851 154.343 131.447 154.441 131.159 154.612C130.929 154.75 130.796 154.919 130.796 155.076C130.796 155.232 130.925 155.398 131.152 155.535C131.437 155.706 131.84 155.803 132.257 155.803C132.674 155.803 133.078 155.705 133.365 155.534C133.596 155.396 133.729 155.226 133.729 155.07C133.729 154.914 133.6 154.748 133.372 154.612C133.087 154.44 132.685 154.343 132.268 154.343H132.269Z" fill="#67C3EC"/>
<path d="M141.703 148.794C141.254 148.794 140.821 148.9 140.512 149.084C140.264 149.232 140.122 149.413 140.122 149.582C140.122 149.748 140.261 149.928 140.504 150.074C140.809 150.258 141.242 150.363 141.69 150.363C142.138 150.363 142.573 150.257 142.881 150.074C143.128 149.926 143.271 149.745 143.271 149.575C143.271 149.409 143.132 149.229 142.889 149.083C142.583 148.9 142.15 148.794 141.702 148.794H141.703Z" fill="black"/>
<path d="M59.2896 153.759C59.2388 153.759 59.1889 153.731 59.1613 153.682C59.1204 153.61 59.1444 153.516 59.2148 153.473L70.409 146.751C70.784 146.527 70.9888 146.237 70.9888 145.935C70.9888 145.63 70.7786 145.338 70.3992 145.112L54.1373 135.402C54.067 135.36 54.042 135.266 54.083 135.193C54.124 135.12 54.2157 135.095 54.2852 135.137L70.5471 144.847C71.0226 145.13 71.2845 145.517 71.2854 145.935C71.2854 146.35 71.028 146.735 70.5586 147.016L59.3644 153.738C59.3403 153.752 59.3154 153.759 59.2896 153.759Z" fill="#DBDEE4"/>
<path d="M59.2896 153.759C59.2388 153.759 59.1889 153.731 59.1613 153.682C59.1204 153.61 59.1444 153.516 59.2148 153.473L70.409 146.751C70.784 146.527 70.9888 146.237 70.9888 145.935C70.9888 145.63 70.7786 145.338 70.3992 145.112L54.1373 135.402C54.067 135.36 54.042 135.266 54.083 135.193C54.124 135.12 54.2157 135.095 54.2852 135.137L70.5471 144.847C71.0226 145.13 71.2845 145.517 71.2854 145.935C71.2854 146.35 71.028 146.735 70.5586 147.016L59.3644 153.738C59.3403 153.752 59.3154 153.759 59.2896 153.759Z" fill="#DBDEE4"/>
<path d="M88.7604 140.171C88.7346 140.171 88.7097 140.164 88.6865 140.15L69.034 128.416C68.9628 128.374 68.9387 128.28 68.9797 128.207C69.0206 128.134 69.1124 128.109 69.1818 128.151L88.8343 139.885C88.9056 139.928 88.9296 140.022 88.8887 140.094C88.8611 140.143 88.8112 140.171 88.7604 140.171Z" fill="#DBDEE4"/>
<path d="M85.9477 140.383C84.8763 139.743 84.8701 138.706 85.9344 138.066C86.9987 137.427 88.7318 137.428 89.8032 138.066C90.8747 138.706 90.88 139.742 89.8157 140.382C88.7514 141.022 87.0191 141.022 85.9477 140.382V140.383Z" fill="white"/>
<path d="M87.884 141.012C87.1564 141.012 86.4288 140.846 85.8739 140.515C85.3057 140.176 84.9931 139.716 84.9922 139.22C84.9922 138.727 85.2995 138.27 85.8597 137.934C86.964 137.271 88.7666 137.271 89.8781 137.934C90.4455 138.272 90.759 138.731 90.759 139.228C90.759 139.721 90.4517 140.177 89.8906 140.514C89.3375 140.845 88.6117 141.011 87.884 141.011V141.012ZM87.8662 137.738C87.1929 137.738 86.5205 137.892 86.0093 138.199C85.5435 138.478 85.2879 138.84 85.2888 139.219C85.2888 139.602 85.5497 139.967 86.0217 140.25C87.0495 140.864 88.7194 140.864 89.7419 140.25C90.2077 139.97 90.4633 139.608 90.4633 139.228C90.4633 138.847 90.2032 138.481 89.7303 138.199C89.2155 137.893 88.5404 137.739 87.8662 137.739V137.738Z" fill="#DBDEE4"/>
<path d="M87.8699 138.494C88.2876 138.494 88.6919 138.593 88.9796 138.764C89.2103 138.902 89.343 139.07 89.343 139.228C89.343 139.383 89.2138 139.55 88.9867 139.686C88.7017 139.857 88.2992 139.955 87.8824 139.955C87.4647 139.955 87.0612 139.856 86.7735 139.685C86.5429 139.547 86.4102 139.378 86.4102 139.221C86.4102 139.066 86.5393 138.899 86.7655 138.763C87.0505 138.592 87.4531 138.494 87.8699 138.494Z" fill="#67C3EC"/>
<path d="M78.4352 132.945C78.884 132.945 79.3178 133.051 79.6268 133.235C79.8744 133.383 80.0169 133.565 80.0169 133.733C80.0169 133.9 79.878 134.079 79.6348 134.226C79.3294 134.41 78.8965 134.514 78.4485 134.514C78.0005 134.514 77.5659 134.409 77.2578 134.226C77.0102 134.077 76.8677 133.896 76.8677 133.727C76.8677 133.56 77.0066 133.381 77.2498 133.234C77.5552 133.051 77.9881 132.945 78.4361 132.945H78.4352Z" fill="black"/>
<path d="M60.9854 154.657C62.0568 154.017 62.0631 152.98 60.9988 152.34C59.9345 151.701 58.2013 151.702 57.1299 152.34C56.0585 152.98 56.0531 154.016 57.1174 154.656C58.1817 155.295 59.914 155.295 60.9854 154.656V154.657Z" fill="white"/>
<path d="M59.0493 155.287C58.3207 155.287 57.5949 155.122 57.0427 154.79C56.4825 154.454 56.1734 153.997 56.1743 153.504C56.1743 153.008 56.4878 152.548 57.0551 152.21C58.1666 151.546 59.9684 151.547 61.0727 152.21C61.6329 152.547 61.942 153.003 61.9411 153.496C61.9411 153.992 61.6276 154.453 61.0594 154.791C60.5045 155.123 59.776 155.288 59.0493 155.288V155.287ZM59.0671 152.014C58.3929 152.014 57.7187 152.167 57.2039 152.474C56.7318 152.755 56.4718 153.122 56.4709 153.504C56.4709 153.883 56.7265 154.246 57.1923 154.524C58.2138 155.139 59.8829 155.138 60.9124 154.524C61.3845 154.243 61.6454 153.876 61.6454 153.495C61.6454 153.115 61.3898 152.753 60.924 152.474C60.4137 152.167 59.7413 152.014 59.0671 152.014Z" fill="#DBDEE4"/>
<path d="M59.0644 152.769C58.6467 152.769 58.2424 152.868 57.9547 153.039C57.724 153.177 57.5913 153.345 57.5913 153.503C57.5913 153.658 57.7204 153.825 57.9476 153.961C58.2326 154.132 58.6351 154.23 59.0519 154.23C59.4696 154.23 59.8731 154.131 60.1608 153.96C60.3914 153.822 60.5241 153.653 60.5241 153.496C60.5241 153.341 60.395 153.174 60.1688 153.038C59.8838 152.867 59.4812 152.769 59.0644 152.769Z" fill="#67C3EC"/>
<path d="M65.2072 140.862C64.7584 140.862 64.3246 140.968 64.0156 141.152C63.768 141.3 63.6255 141.481 63.6255 141.65C63.6255 141.816 63.7644 141.996 64.0076 142.142C64.313 142.326 64.7459 142.431 65.1939 142.431C65.6419 142.431 66.0765 142.325 66.3846 142.142C66.6322 141.994 66.7747 141.813 66.7747 141.643C66.7747 141.477 66.6358 141.297 66.3927 141.151C66.0872 140.968 65.6543 140.862 65.2063 140.862H65.2072Z" fill="black"/>
<path d="M103.46 100.539C103.011 100.539 102.578 100.644 102.269 100.828C102.021 100.977 101.878 101.158 101.878 101.326C101.878 101.493 102.017 101.672 102.26 101.819C102.566 102.003 102.999 102.108 103.447 102.108C103.895 102.108 104.329 102.002 104.638 101.819C104.885 101.671 105.028 101.489 105.028 101.32C105.028 101.153 104.889 100.974 104.646 100.828C104.34 100.644 103.907 100.539 103.459 100.539H103.46Z" fill="black"/>
</svg>
