<svg width="632" height="235" viewBox="0 0 632 235" fill="none" xmlns="http://www.w3.org/2000/svg">
<g clip-path="url(#clip0_1_14)">
<path d="M502.881 468.088C606.87 364.21 606.87 195.789 502.881 91.9108C398.892 -11.9677 230.293 -11.9677 126.304 91.9108C22.3148 195.789 22.3148 364.21 126.304 468.088C230.293 571.967 398.892 571.967 502.881 468.088Z" fill="white" stroke="#263238" stroke-miterlimit="10"/>
<path d="M299.951 160.642L307.532 170.732L324.609 177.057L328.4 190.309L317.653 194.72V197.258L336.606 204.831L345.457 202.937L349.893 195.989L348.622 184.005L337.251 179.574L330.295 168.215L305.012 156.855L299.951 160.642Z" fill="#006FBA" stroke="#263238" stroke-miterlimit="10"/>
<path d="M464.272 448.513L444.049 440.315L419.411 431.474H399.814L381.486 427.687L361.264 432.098L349.893 432.722H342.937L329.67 440.295L317.028 445.35L299.971 434.615L304.387 416.932L293.64 412.521H280.999L279.104 406.842L280.374 395.482L275.958 389.178L267.107 390.447L264.587 396.751L253.84 397.375L244.364 386.016L240.574 370.87L250.05 353.187L268.377 354.456L273.438 358.866H281.019L290.495 353.187L298.701 355.704L310.072 375.281L314.488 374.657L313.218 360.135L309.427 352.562L310.697 340.559L334.085 330.448L337.251 307.085L347.372 298.888L355.578 284.366L361.889 283.097L376.426 273.631L377.051 268.576L366.929 269.2L365.034 264.145H358.078L347.332 266.663L352.393 258.465L374.51 252.161L379.571 246.482L388.422 260.379L394.108 266.058L402.959 263.541L399.169 255.344L385.902 245.877L370.74 228.838L354.933 218.103L339.771 215.586L332.19 208.013L322.069 205.495L320.799 208.013L319.528 226.321L322.049 232.625L316.363 252.826L303.721 242.715L305.617 233.874L292.35 227.57L286.664 220.621L289.83 204.831L308.157 191.578L309.427 176.432L302.471 177.057L298.056 171.377L296.161 161.911L291.745 161.287L289.225 171.397L282.269 172.666L279.104 150.572L274.043 147.41L265.192 143.623L255.07 148.679L267.712 160.682L270.232 171.417L247.489 154.378L231.682 137.339L230.412 120.3L213.98 115.245L201.338 123.442C201.338 123.442 195.028 127.229 191.862 128.498C188.697 129.767 176.7 131.015 176.7 131.015L174.18 141.75L159.643 142.375L160.914 149.323L184.302 153.11L196.318 166.362V188.456L189.362 208.033L190.632 228.859L172.93 259.795L169.14 305.876L174.825 332.402L183.031 352.603L192.507 353.872L189.342 343.761L184.281 336.188L181.116 322.291L186.802 321.022L195.653 343.741L201.963 363.942V380.357L213.98 394.878L235.473 410.668L268.337 419.51L278.458 428.976L286.039 439.087L297.411 446.035L311.322 449.822L325.234 449.197C325.234 449.197 324.609 455.501 324.609 458.663C324.609 461.826 315.758 472.56 315.758 472.56L308.802 485.189L313.863 499.086L327.775 504.765L347.372 524.966L356.223 528.753V538.219L357.332 542.63C407.616 534.533 453.203 512.358 489.878 480.294L490.2 475.723L507.257 444.786L499.051 439.107L464.292 448.573L464.272 448.513Z" fill="#67C3EC" stroke="#263238" stroke-miterlimit="10"/>
<path d="M530 199.151L523.044 187.147L514.193 173.25L511.673 154.318L523.044 156.211L523.669 149.907L515.463 149.283L522.419 146.121L530 141.71V135.406L522.419 125.295L520.806 111.7C471.974 52.0639 397.737 13.998 314.589 13.998C276.785 13.998 240.836 21.873 208.274 36.0722L222.851 46.3842L214 57.7435L201.984 60.2611L200.713 77.3001L195.653 79.1933L189.342 86.1419L189.967 97.5012L200.713 98.7701L196.298 109.505H207.044L225.372 86.1419L227.267 76.0313L244.969 74.7624L249.385 67.1895L267.712 65.2963L269.607 54.5613L282.874 53.937C282.874 53.937 292.35 48.8817 294.245 48.8817C296.14 48.8817 304.992 52.0437 304.992 52.0437L314.468 59.6166H327.734L339.106 52.6681L353.643 53.937C353.643 53.937 357.433 56.4545 360.599 56.4545C363.764 56.4545 373.24 52.0437 373.24 52.0437L391.568 63.4031L399.148 69.0827V78.5488L408.625 79.8177L411.79 74.138L419.996 77.9245L419.371 82.9798L400.419 88.0351L411.165 101.932L433.908 114.56L443.384 127.189L457.296 128.457L460.461 122.153L465.522 120.884L449.09 108.256L438.969 106.987L447.174 104.47L439.594 93.7349L450.34 93.1105L464.252 100.683L467.417 115.829L474.373 124.026L480.059 142.334L493.971 152.445V173.27L508.508 182.736L507.882 189.685L505.987 197.882L509.778 209.242L511.048 214.921L521.794 216.814L526.855 206.079L530.02 199.131L530 199.151Z" fill="#006FBA" stroke="#263238" stroke-miterlimit="10"/>
<path d="M538.226 135.547V139.172L535.061 149.283L536.956 158.125L543.912 160.642V172.646L536.331 169.484L534.436 203.582L526.855 217.479L531.916 235.163L540.122 242.735V276.834L548.328 303.359L557.179 323.56L571.716 327.346L576.776 314.718L578.833 313.107C580.184 302.271 580.889 291.234 580.889 280.036C580.889 226.784 565.203 177.178 538.226 135.587V135.547Z" fill="#006FBA" stroke="#263238" stroke-miterlimit="10"/>
<path d="M392.233 131.599L350.518 113.292L332.19 113.916L327.755 125.92L320.174 117.702L306.282 120.864L305.012 141.69L316.383 149.907L324.609 137.903L334.085 147.39L353.683 164.429L357.473 182.736L373.905 203.562L400.439 199.151L399.814 189.685L394.128 178.95L392.858 153.694L399.189 142.959L392.233 131.599Z" fill="#67C3EC" stroke="#263238" stroke-miterlimit="10"/>
<path d="M426.347 145.476L416.871 142.958L408.665 149.907L413.081 168.215H421.307L426.347 145.476Z" fill="#006FBA" stroke="#263238" stroke-miterlimit="10"/>
<path d="M485.14 157.48L463.647 146.121L459.211 138.548L454.171 140.441L458.586 153.069L462.377 169.484L471.853 173.27L473.748 170.733L468.062 161.267L484.494 167.591L485.14 157.48Z" fill="#006FBA" stroke="#263238" stroke-miterlimit="10"/>
<path d="M225.573 386.137C132.545 386.137 57.1191 303.923 57.1191 202.514C57.1191 101.106 132.545 18.8921 225.573 18.8921C234.424 18.8921 243.114 19.6373 251.602 21.0673" stroke="#67C3EC" stroke-miterlimit="10" stroke-dasharray="2 2"/>
<path d="M62.8249 366.54C41.3725 354.516 23.4081 335.966 12.2988 312.12C-16.2507 250.832 11.1697 177.62 73.5511 148.618C135.953 119.615 209.685 145.778 238.235 207.066C239.586 209.966 240.816 212.887 241.925 215.847" stroke="#67C3EC" stroke-miterlimit="10" stroke-dasharray="2 2"/>
<path d="M596.515 382.068C636.012 328.413 643.351 256.894 609.297 198.768C585.748 158.587 546.916 132.485 503.305 122.918" stroke="#67C3EC" stroke-miterlimit="10" stroke-dasharray="2 2"/>
<path d="M501.33 122.475C500.664 122.334 500.019 122.213 499.354 122.072" stroke="#67C3EC" stroke-miterlimit="10"/>
<path d="M207.739 92.5513C223.08 69.3996 243.523 49.201 268.648 33.7722C362.898 -24.1039 487.332 7.12088 546.566 103.5C580.547 158.79 585.688 223.503 566.121 279.574" stroke="#67C3EC" stroke-miterlimit="10" stroke-dasharray="2 2"/>
</g>
<defs>
<clipPath id="clip0_1_14">
<rect width="632" height="547" fill="white"/>
</clipPath>
</defs>
</svg>
